<mxfile host="app.diagrams.net" modified="2021-10-20T05:29:01.175Z" agent="5.0 (Windows NT 10.0; Win64; x64) AppleWebKit/537.36 (KHTML, like Gecko) Chrome/94.0.4606.81 Safari/537.36" etag="Rkxgblxqgev0zNLFJE-4" version="14.9.8" type="github">
  <diagram id="whp8y7LoMeyAkEey8Vx3" name="Page-1">
    <mxGraphModel dx="782" dy="436" grid="0" gridSize="10" guides="1" tooltips="1" connect="1" arrows="1" fold="1" page="0" pageScale="1" pageWidth="1654" pageHeight="2336" math="0" shadow="0">
      <root>
        <mxCell id="0" />
        <mxCell id="1" parent="0" />
        <mxCell id="08xPflxwf2jpWXcSHeCm-2" value="" style="shape=image;verticalLabelPosition=bottom;labelBackgroundColor=#ffffff;verticalAlign=top;aspect=fixed;imageAspect=0;image=data:image/png,iVBORw0KGgoAAAANSUhEUgAAAggAAAFICAYAAAA1TAaSAAAAAXNSR0IArs4c6QAAIABJREFUeF7svQd8FfeVPX5m5jW9p4a6hApC9N47iGJj05uNe2Ibt7WdZLPOOtnkn91kd3+pm81ukk1xnLgDxo4NGBvjQu8giQ6iCIGQUO/Sa1P+n3tnnhAYgjDYBr3v2A+k96ae7/C+Z+4991zJMAwDYhEICAQEAgIBgYBAQCDQDgFJEARxPwgEBAICAYGAQEAgcCkCgiCIe0IgIBAQCAgEBAICgc8gIAiCuCkEAgIBgYBAQCAgEBAEQdwDAgGBgEBAICAQEAhcHQERQbg6RmINgYBAQCAgEBAIhB0CgiCE3ZCLCxYICAQEAgIBgcDVERAE4eoYiTUEAgIBgYBAQCAQdggIghB2Qy4uWCAgEBAICAQEAldHQBCEq2Mk1hAICAQEAgIBgUDYISAIQtgNubhggYBAQCAgEBAIXB0BQRCujpFYQyAgEBAICAQEAmGHgCAIYTfk4oIFAgIBgYBAQCBwdQQEQbg6RmINgYBAQCAgEBAIhB0CgiCE3ZCLCxYICAQEAgIBgcDVERAE4eoYiTUEAgIBgYBAQCAQdggIghB2Qy4uWCAgEBAICAQEAldHQBCEq2Mk1hAICAQEAgIBgUDYISAIQtgNubhggYBAQCAgEBAIXB0BQRCujpFYQyDwdxEwDOOyn9P7kiRdM3q0Tft9hvZx6XHa7/vvfXbNJyA2EAgIBAQCAARBELeBQOA6EKCJWdO0tgm9/eROn8myzJ/pug5FUZgw0M+hz9qvH5rwQ++FCEZoH3QcWujz9i9aL0QQ2u/j85CT64BCbCoQEAh0MgQEQehkAyou58tFgCbmYDDIEzRN4Ha7nX9uP2ETIVBVlcmCzWZrIwz0e3syEPo9RALaRyBC+7w0KtGeELTfjvZFL7EIBAQCAoHPi4AgCJ8XObGdQADgyT5EEOhnp9PJRKH90j7KEHryp2gCEQf6PRSBaD+hh9aj/dDn9DttQz+3jyiE3g8RjdB+BUEQt6dAQCBwvQgIgnC9CIrtwxoBmuRbWlpQU1ODpqYmnsgpShAbG8vkoaqqivGJiYlBSkoKv1dbW4vS0lJ+nwiFy+VCYmIi/037C0USaF8UeQi919DQwNvTvugYIRIRIhq0Lu27S5cucLvdIoIQ1nemuHiBwPUjIAjC9WMo9hDGCNAT/fnz57Ft2zbU19cjKiqKJ/T09HSewI8dO8ZP/UQYpk+fjujoaOzcuRMrVqxgwkDEgNYbOnQoUlNTmTCEogYOhwN1dXVobm7m90+dOoWIiAhkZWXx70QC6JhEUIgUUCRjzZo1mDhxIvr16wfaXiwCAYGAQODzIiAIwudFTmwnELDC/8XFxfjkk094su/ZsydaW1s5GkBP+16vF5WVlTyRT5s2DcnJydi4cSNWrVqFsWPH8jZFRUWIi4tDZGQkkwQiFBSNIDJx9uxZVFRU8Pu0XyICtFCUgbY9fvw4GhsbmWwQIXj11VfxwAMPIDc3lwmEECqK21QgIBD4vAgIgvB5kRPbCQQAjhbQU35BQQFP9DQp04uIAk36J06cwMGDBzmyMGvWLJ70t27dijfeeANpaWlMGGgSp4mfUgi0HUUCKAVB+6GIAW1LhIMiFURG6Hdaj0gERRUCgQCTEYpS7NmzB08++SSGDx8uIgjiDhUICASuCwFBEK4LPrFxuCNAEzPl/mmypqf5wsJCnrR79eqFKVOm8IR+6NAhnugpxUCkgdIRS5cuRdeuXTldQMSAFtoXpQaIINC+SHA4YsQIDBo0iI9BxOK1117DsGHDMHPmTOTn5/OxQuWTFFGg34kgEIEQ0YNwvzvF9QsErg8BQRCuDz+xdZgjQOkAEgaeO3eOw/6kF9i/fz+XO9JETk/3RABIrDhhwgQmBJs3b8bKlSsxcuRIZGdnIy8vj7ejFANN8pQyIMIRHx/Pv9PfNNnT5F9SUsKRhZycnLYIApEPikYkJSVh7dq1WLhwIWsaQnqGMB8icfkCAYHA50RAEITPCZzYTCBACBBBqKquxj4rxUDvUTqAJn56sieyQBUHpCEg8SClGA4cOMAaBPqcJnWPx8Ofk06B0hVEDij10L17d041lJeXM1EgYkDrh4SLCQkJTExI5xCKRnz00UcYMGAgRo8exccSUQRxnwoEBAKfFwFBED4vcmI7gYCVFvAHAqiqqsTpotPQDQMJ8fE84VOq4FRREQxDR0pyCk/iNGETESC9Qqg6gSZ9Sj1QpIGiB7SQJoHKGYkcVNdUg8hAVGQkRwUo3eD1+jhtESILsV1imTwQYfC4PRxRoM8lXGL1fO3Oz2KcBQICgTBFQBCEMB14cdlXQaBdewVDol8MmH9eshgSf8JuiUGVf1ZkGYrlmMg+Bob1niSDd2WJGzUySoJpgEQtG2gftK4sS5AVclk0IxS8HtsrWzbLMI9J29LuNMP8nA2UrH3aZAWKJAO6BIN9mwzAJkFSBEMQ975AQCDQMQQEQegYTmKtcENAN2dyw5pPDejmxE6/tycPkBF6SDdXlUhtaNEJ63cLOyIHskGTPK9irm01c2IrZYsgMIuQzEZP/Lls7bNdU6i27aixk/VfaIhknTaXoEgK6LQN1TpnBwRBCLf7WFyvQOA6EBAE4TrAE5t2XgRosubJvh0hCJGF9ld9IbZAq7ZRBCYRn+3xaMUg2vZ5YY3Q3G9GBsBkgfYgywok6qnAK7RLGFwU4fhsVINPXZLbohu0us3q/dB5R01cmUBAIHAjERAE4UaiKfbVaRAg3YD1jN+WFjCn7ksXii2YszV/anEKJgjWK8QWDFmHLtHa5mRvMoHQtubvRAF4P9Qqmj4L7dQwP+FPQ+Qg9DGvFDo3yYxyEKegDAN0qIaZ+nBIdtigdJoxEhciEBAIfLEICILwxeIr9n6LIkAEIZTnp3C9OSlfShAMkD7BSkZY61s5BPqNJ3/6m2d86JIBzaITMj3dSwZ0i4iYKQZrG9IhcPoBUBQZsqRABr1o1rcADaUoeNcWI2hHFJgcMEHQEDSCfG5OyQGiCGIRCAgEBAIdQUAQhI6gJNYJOwRoYqXJmJ/ZabZtp1BskysyOTCFBSxUpG2YCmgmWSB9ABkpGUF4A61oam1Gk9cLn8+PYCAITVfhDwbYKyEYCHB1gqpq0DQSDeiw2RVEuCK4KiHSFQW3MwJutwex0bFwO90gkkE0RmLiYEYXFNhYf0CnS6JFIiWqbhIEu+SAjXQJYhEICAQEAh1AQBCEDoAkVgk/BDRW9lGkngiCJfbjJ3xWAJqkgAmCBkPSuZJAk6gVs8QTf4uvCRXVFaisqUSzrxENzQ2oqqlBdU09mpqbua8ClUEyKQgSWSA1IUUUqCJCgy5pLCi0K3Y47A64IzyIjoxCQkIiuqZ0RVJcIrrExiEpOQVxUfGwyTYmCQ7JAdkMHTCpkVkEaaYtFIU6QFJsQiwCAYGAQODqCAiCcHWMxBphiAARBJr+6Sk9NOFSqkDTgtBlFaQn0DhhoCIQ9KOuoQ7nq8pRW1+DyqoK1DbWoKKG/q5FUAty2aIi2QFDMYWHRD4UBQ6HHTbFxmZK9KKSR/rQr/rgV/1mmaOqtUUdKO9A2gTaBxksJcQnISUhDQldEhAXG4eUhBQkdUmC2xEBm65wNMHGUQUZst3G5yEWgYBAQCDQEQQEQegISmKdsEPgMwSBBYfkU6AiAB8/4fs1P2oaq1B0ughFxadxrPAoautr0eJtYZFgZJQHMbGx8NDfMbGIj0lATGQXeDxRbHhkt9ngcDih2BQo5FugEHkwyxYDqh8B1WzCRCShuaUZdfV1aGhqQEN9Peob6lHf2Iia6lr4/UE2RaLUQ3ZWFgb3G4zs9G7omtAVdsMOxbCxIMFud/CxxCIQEAgIBDqCgCAIHUFJrBN2CFxKEEzBIUv+4DNa+Qm/rLoUO/O3o2B/Aaqra+D3++HxRCI1JRWJCUnITM9EWko691gg++UIhxtOO71oojbFgqwcMB2QrIrKkORRZ3IQKnQIagH4Al54Az74g360eJtRU1OL4rNncOp0ESqqytHU3MSpj4y0dPTM6YVRg0chO6U7oiNiIWkSXPYIjlKIRSAgEBAIdAQBQRA6gpJYJ+wQ0IygOYFTioFEfzo5Fgbh11pR3VyJfUfysSNvO44XHYOkyOiWmY0hA4cgNSkNsZHx8LgjEeuOhccVCZts50oGCvPbbY428aJJOkJmSaY5AmkQoBt8TK5aoAIKMkqSqGBRQ0AL8HmQOFFTVTR7m1HfWM+pjPLachQWH8PJ4pNobm5hYtC7W2/Mvn0uMlIyEWOP5nMRi0BAICAQ6AgCgiB0BCWxTtghQKkE0z2Rcv7m0z1VIzT6avDBlvexfst6lJadQ1Z6JiaOnYS+vfpxxMDpdEGBnYkFVRQohgL6z6x4pJJFG++LiYBVyviZ8knSQaoGJCqKIHJAgkgWRer8IqLAboxUJskqCBUBSn0EA6hprMWxomM4dPQwduzYiYDXjxl3zMD03OnomdYTLsndVq5pmjgK6+Wwu7nFBQsEOoiAIAgdBEqsFl4IUCWBIYX6IJALoQJ/0IedR7bhheV/gNfvw6A+g3Hn+BnomdkLbpebPQt45g45KnL0IVRDQOJAEieyw8EFMNtbN4feJl8Dtkc2nZC4F4TVD4ItmK2yStNjweAKCrOsksoagVZ/K6rrq7HvyD5s2rYB1fWVGDFsOB6Z+xjiPUkXLJXazlWQhPC6u8XVCgQ6hoAgCB3DSawVZghQ4yQiCORCSNMnlRE2tzbhr6v+jNUb38XgwYMwe+ocDMsZCY8SbZZDWs2TmBKE+iiwnWLoSZ2iAZcQhMvgSpuo7TejyZ+5ApEAk17wz0QLKNrAgQ7zA03SoUpBBHQ/WgJN2Lx3E5avXMqCyR89/f/QPbHHBUtoQRDC7K4WlysQuDYEBEG4NrzE2mGCABMEDt8H2whCQ1MdfvXKL7Dt0BZMmDAes6bNRq/EvnBJkbBJdi6JDGkNqKMjz9jU9MlyPTQND6/+tE7zvZ+6NFpY82ZU2miYMQjmAiHCoF0gCJxwsOkISD74DR8MWUX+yXz87i+/5SjET77xc/RJHcBkxkxvhKIdVz+nMBl2cZkCAYFAOwQEQRC3g0Dgck/xmpnzD4LEiganGJpaG/Cnd/6A1VveRWJSAiaMmIh7brsf8e5ky1KJqhsVGDolEhR2LeSne+uZvc0R+SqIEzEIErewkhE8jYc6QXKPBosgsD2zuXfWJtDBbCr88CIIPw4U7cPaTR9iW952JCQm4Rff+CVy4nuLFIO44wUCAoEOISAIQodgEiuFGwIGOS0zQQjwpVNEoNXXhNc+ehWvf/AqND2IpNgkzJo4B9MnzECX6Hi2NqbqAxYp0p8UVWjfZImsl632zn8Pz1BWwmrpZE3oJjFos0i0+jxoFKDg/RJBIAfGAM7XnUNh0REmB4ePH0KTvxV9+/TDT576OdJjMtsiGiKCEG53tbhegcC1ISAIwrXhJdYOEwR0bsWgQ5ND5Y6mu+GnBz7GL//yMyh2ICYiBrLXhm7p2cjomoEeOT2QHJ+EpPgUeFxu03dANlMPVOJInob0uijlEEojtKso4GiB5ehMrICrF7iw0fyZIgXU5Ek3NPh1DTXNdaipr0ZDYz3OlpzG0eMHcb68DAFdhcPpQFl5GQb2H4wfPfafSIhMtFILoYFs3wkyTAZXXKZAQCDQIQQEQegQTGKlcEOACAJPyzKXE/BTfNAIIP/sHvx/v/oXxCV0weDeg1FbVofi4iLouspOhmkpacjK7Ib4LvHcLyEhLombLbkcEXDa3LArHnZNZBEjgUp5B9Mnqa2VM9c7WKWVRAY0UkLoAQSplFHzozXgRYuvFY0tjaiorURRaTHOlZWguroKtdXV0NUg4mK7YPDgIQgGVOzYvgP9+w3E8w99H10i4wRBCLebWVyvQOBzIiAIwucETmzWuRG4mCCwczLrEY6WH8R3f/odJCUnYu70+Yj3xOPwkf0oOXeWX4FAkCMETrsTCfEJSElOQWxsLGKiY9ElJhGxnnhERUbD7XbDoditBkpmBQTzBTZK0mFoOjdtCupkzuRDk68ZTa1NqG2sQ1VdNeqb6rn/Q2lFGRslqRpVW0hIjI1Hv159kJOVjR45PZGfn4+PP/4YI4aNxJOLnkGMu4sgCJ371hVXJxC4YQgIgnDDoBQ76kwIaFaKQZfpB2q0RNYEKk5UHcX3f/49OJx2LJ53D3KH5MLn83L75qbWRu7eeOLUCZSVlaGyupL7J3i9rdA1nXshEHEgrQJFEewOO1zOCE4DkAVyqO9CIOCH1+eFpmvcXIk6PfoDfgSo+6OuQZJluJxORLgjEB0Tg5TkVGR0zURmSgZSuiTD6XHC5XRwD4dlK5bi+PFjmDZ5KuZNuQtRzphLOjqKFENnum/FtQgEbiQCgiDcSDTFvjoNAu0JAukHqLyQQv1n64vx77/9ET+9L5q5CHdPW8yCRFpIE0CTutfrRZO3Eedrz3Pov6auhpsr1dZVoaauEg0NDWhuaoKqaeByShYcmo5J9DPpC4IGGTUBdptJImKjYtAlJo5TFymJKUhKSEJiXCJSkrqiS3QC3C4P2zhTOaMk67y3mroq/P6F36GhqRozZ8zAtNEzEWmPZU3EhUUQhE5z04oLEQjcYAQEQbjBgIrddQ4ETJEiWRzTZEuWRKYWoLyhDP/951+h6PRJ3DH1TixZ9DgU3RQichWBJSekSZ7IghZUOXoQpDRBoB7NrQ0I+oPQVGodrUPVA1B1FUE1CFU1nQ/M40rcedFps8Npc8LjcLNbI/V28Dgj4bC5YKMUhc1uuTfSduTDQDWQRC5UnCg9il/8908RExOFe+bdg5H9xyPCFnlJBIGOeDkfhHD2RuDaVGu5QKAsd+wO3eBmsYplgHHRFuGMa4egEyvdRAgIgnATDYY4lZsHAfIX4K94y3SAujgSQahurMSfXv0j8gvyMGnCJHzjkW/BrrvYfIgIgkkRrL4LVLWgS5yeoEmbHAqIDMgG9WigpknmNn7dj4AesISLEmTyT+AGTYBNovgEpTiodZMMiT4zFBgctbCaOFFFg9VYiqIdBp2r5MOeE9vxP//3K2R17Y4H5n4NA3sMgdPm6mD/hfZRhptnXL6cMyGiFnKhCLXHlqx+GleALxQECtEK5gHtiUaIiAmC8OWMoTjKjUBAEIQbgaLYR+dDQA85JJulhUQQqFlTfXMdXlnxEjZv3YxRI0fhuae/A5cRySkIM4JAKQMZ0GWAGzVRMwXSDVg+BfScr9ug6DYmBLpiMDkga2TajKIVdtnBGgUzJsC9mvhv80mfogR0LHPCktgcgUoe6XMFMpEHKYig1IpP8z7AC6/8EYN6D8O9sx5C78x+cCiODo5VuBOE9i4U1qTOTlftAguhn0OBgraPQ29cGkEQ6ZwO3nxitZsEAUEQbpKBEKdxkyFwOYIAFc0tjXjr/RVY+8kH6NWnF7777e+hi5RgPt1z7IB0BDR5y9B1y7eAOi9xa0adiYNNcsAOBzRDQ1AKwqu1oPj8aZRWlSE6KgbZad2RFJkEG3kmUPclq5cDGxvJZr8FoiwUq6DoAhEIncsiTYJAxwqgGa+vfQlvrnwT03Nn4a7b70FGYhbssq2DQIczQTBJ18Wpl9Ds337S/wwzuAq2giB08OYTq90kCAiCcJMMhDiNmwsBM99sTgBmBEHlF4kPP9jwAT5Y9x6SUhPx7W8+hzR3FmxsriyxtTIRBFp02UDASk2QJkCifgoqTeg22GUnpxH8ug/5x/Lw1toVOH76OFJSUnD3nLuQO2QyXAa1ZiZzJbPHA5klUMpDk4LcJYLOio9rKEwQICmQdSIIOvxGM3639Nd4/5P3cc/8BzF/2iIkR6VwqqJjS0fX69jebq21TKJ3+aV92uBKBOFKREAQhFvrPhBnKwiCuAcEApdBgJUE1PeA+xxQZQHRAxWtwSZsz9+Gd9e8A11S8ezT30SflIGwwwY7RRHoiZ8CBUQqZBVNwWYUnS/CvqMFiPFEYcqIyYh0REEhHYKioN7bgKXvvY5V61dCcUksbBw1eATun/kActJ6QZGclHQAaOJnEkAvDQb3g9ZY38DWCezUSPoESl3oaFEb8aPf/Au27NmKbz72HcycOAfRrhgmFGbVRKhZ05WGXxCES5ExqH1WiDheUUpgNcKyem5+NgohNAjiC+fWQUAQhFtnrMSZfokIUPif5gJKHZixBBIgqmgJNuFA4T6sWPUmquur8A9PPIORPcdxOsBuUHMmCRKJBkl8CB9K60qxYfdGbNi2HikJqXj4rofRPTUbdsnUGdS31OPVla/g/c3vwR0bgZbWJkRHRGH6uOkYN2wC0lOyEeWKg6Gb6QaZSi5Zq0BaB43JgElg6CxNgkDn2uCvwff/6zsoOFqA55/9IaaOmo4oexTs1EyKSil1nQlKaDH7MlhGTUweLnz2JcJ+kxzq8hEEwpuqU5g4yhfMrUInTbgSpZS51XeIYLUnBCKCcJMMsDiNDiIgCEIHgRKrhRcCVG1AX/dsi0yaAhICShqaA804WXIUy95dhpNnT+CJR57ElCHTqXcjT75EEAwqcTQCaAzUI+9YHlZ9vAr7jx1EWlIaFs+8G+OGjUdsRBcujfSrXqzd8gFWrH0TtU3V3KZR1zQkRMejf68BGD1sAvrmDEJ8VApbNSuGDJmjFDoMMlKSNRg2HbosQSeCYpCxUgBVzeX40f9+H4VnjuG73/xXjB04EdFKDJMYWoggECkg0ya2fRYEod0NfgWCwC3AzTJUdq2w/CsIulBUxozMyIzrZxdBEMLrW+TWv1pBEG79MRRX8AUgoOrBdgSBSgdNJ4SA7sWZymK8uXoZ8g7uxQP3PYi54xfBBgcLBmkKYKMj+FB45ihef/s1HD55GHa3g99PiUvBvbPuxaShuaZPgqGhydfAOoRTZ08iITGB19ubvxtHDh9B0K8jKT4V40ZNxPiRE9Arozci5AhoAZWKIyArBuAwoCtEECTYJVubB8IPfv08AnIAzz/zffTLHIRYOR4KaSCYFMgIBs3SSookhCa0C+kHEUFof1sRFyBnSlNfQlEcwpDKSJgSsCDVFKiaWSCFwjwWnbiwH0EQvoB/qmKXXyACgiB8geCKXd+6CAQNkyDY2HeAShbpfxUBBFBaW4KV697Blj2bMGfmXNx3+0OwSxGcjqDaAqoh8Gte7CzYij/85f/gifZgxNhRqK6vwY4dO3HXnXfh/tkPwiE7uR00CQ41SeXIA004tIfTZcXIO5iHHdu348SJE3DYXeie1QO35d6GCSMnIi46waxw4MgGvQBZVthDIah7cejUPvz0hR+juqkSD93zKKaOuBPZkTmA3xTn2+3kw2AuIoJw6X16uQiCxMZWTAC4dFXmtA69R5YVZIkdIgQUPGj/u/l+iBwIDcKt+60QfmcuCEL4jbm44g4gQJ0bKaBMT+RkTEQzA7shyAFUt5Rjw871WLfxQ/Tt2RvPLv4neFwxoKQEd140/DhZXIjXV7yEs+dOY+KEXEyePBVnq8/hlRWvwIMoPDjrIYwfMh5O2Sx35JQ12SeQxzPP2jIoilFRfx4nzh5DwaE8HD12GPUNjYiLTUL3rJ7Iye6FQb0HIi05DQ4HmTVRJMAkCNv2b8D/vvEL1LbWwKl40CO1Lx687esY3X8c3M4IDonLNnZpaCMJ9IOIIDAKl1QxUNpI4s6YNNFTakjTDKiqytEeir7YbApsNiINBkcQ6GdzP1T1cClBECShA/8ExSo3AQKCINwEgyBO4eZDIBRBUKwIAkWTiSKoUgB1gRrs2r8dq9atRJfoWPzLkn9FtCcOfurFIGloCTRh844NWP72a+iZk4OZt89C7159ca7uHFZ+shJHC45hWM+RWDxzMbK7ZrcZ7sn0KEpCN+7HYLo46nIQXr0ZZdUlOFl8HHn7C3Dk2DE0NLTA447CwN6DMKT/YGR0zUJclwTuHGnYgtiU9wn+9OZv4YxUYPhlNFf5MTBtBL6+6GH069UfToeDhYicFmnTIJjHNqMKYZxi4DHQmbSFdAbsa6EBXm8QNTVNOH2qBGVlFWhtaYErwoXU1FTk9MhCQkIUIjw2mD5XRBZCJIFQNdt839il/f6uZNAUzhUpNxbtcNubIAjhNuLiejuEgGZQ/ICMjgwWKfJXrGFGCLxaE/KO7sGyNUtZ7PfjZ3+GLlHx8FFfBUlDaeVZrFr7Dgr278Xi+XdjwoiJiI3sgjpvLfYe2Y21H65DY3Uz7p6zGHfkzoDL5oLCRkf0fEpHBTRKPVDGgR0YVahSEAHVh9KKUuQdzMeBgwdxpuQsWlqbERUViaTERCQmJaFX3z5IykzG/uN5WP3h2xjYry/6ZPTD0UMncPzAaYwfOQmzbpuNnt16wWVzwyG5LH/G0JFNIR6lKsJ1MXQdqhqAYqOyU4oSkAbFDm+zgY2bDuLQwUIUHj2Bqso66KrKTbKiYxIwaGB/DByUjUHD0pHaNQrU/9MkfSQIJbJgv+HE6wLhCEU9+K4NxYXMvylFZoknw3VMxXV/PgQEQfh8uImtOjkCJAeg4DC1e6bIgekyQDlnFX7Dh8PFB/Dae6+gvKIcP3v+10jpksYpgfK6CqxZ/x627N6I/v374ZG7H0aSJxF2dkkAqr0VWLNhDZa98yYG9h2Kr9/9KHql94ZHdltejGzWzCbLdERKP3AKQrJkkhKFuc0nUyqz3FqwFZt2bERxURE/zXrlIBAtQYoAjKAPs6bciQenPwRZtuOFN/6KffmHMLTfMNw9azH6dhsAFzxt4krS39G1UiUFpSvCdaHqEJrUg5ofqkYkQUZtrR9//P2n+OTTT+F0GRg6dCB65GQjJTEeQZ+KAwdKsHvXQQRUP8ZNHITn/nkR4uKopFSCw05RGho3ugPMHhsXfJjodw5PmQt/1vEog0kQLpADq9VXu51d0D6Yd3DH9x2u4y+u+wICgiCIu0EgcBkELk+i1XR2AAAgAElEQVQQSKhGBMGLE+cLsfyDN3C08Ch++p1fIyu1G39PF507hd+/9nscKz6Mbr0yMWzQUNg1BTbyMZAM+JVWlFaUYe/ePLjtUVg0YzGmjLrddDlkm2QzaqEaKoKkmicyQPbK1AsCQSjUv4E8GQwNNskGm2xHaVUpTpw8hmOFR1BwYj+OVZyAX2pFhMuGhJhY9O3WD4kxKaiqqEPezn18rkvufRyjhoyBU3IzQeAHTSYImkUQOmrJ3AlvH/I7UFVINht8XqC21of33tuDF//6Lnr2TkHu5OG4884JyOjqbmvgVFrSiNdf34hdu/fDblfw4IN34I47h0BRJNh5Xg6yNsH842pLR9ax9hEiE5zKuJIDJOVKzEZfYhEIXAsCgiBcC1pi3bBBwHQnJA2AGUHgXD2bK1KNgg8lNcV495N3sHX7FvzgyR9jUJ+hoDULDufjN3/5H9S0VkFyGQgG/W0mSrqmQqJeSbIEVdXhdkRj3OBJWDD9LvRM7w2ZGjzRIlM/xgA3h/KrPlTWleP0uVOorq2Cw+VAetcM9lRwR7jZfcGFCNi5eiGAOl8dNh3ejFUbV6Gs7DTSk5LRXNMCb0sQLiMCce4EjB0xHrdPvhOZqd3ggItFdyEbZyIfdKEKuTeG6WLoKjQ1AE234XhhNZYv24LtOw6jW/dUPPvtBcjKioOuBdFYryEm2gGHQ0Grz49gUEX+3iKsWrUZNpuE7373fmRlUp8OiviYQtQO8YNresq3ohJtIYi/QxI6bLMdpgMvLvszCAiCIG4KgcDlIghEEIgasK2xRRDYRI+Eij5UNJdjzcbVWL32PfzTw/+M0UPGQVZsKK8sx5a8zaj31UG3By2CQGJAckI09QRUCknh5khnNHqm98WgHkOREJkEiQgClTnKpt9CY2s99h3Zh7yDu3Gi+ARq6qrhcDqRk52DAX0GoG+vvshOzUGERESBlPQy/HIAm49sweurXkNjUzUWzp4Lu+FEU30r/HV+dI1PR5+cvshIy4LHFQ2ZUh8kxOSnW+rzYCY4iHiE62IYKlcoGLqC5ct24s3lG9HqC+CJf1iM22f0Rfn5aqz/eBeaGwJIz0hCTEwkzpwtwYgxfRAVGYOV72xGft4RfOtbizFyZC+4HNS+WzM1Jh1hCJxu6KhnQlsdSiikcPk+Erw7IVYM13v68163IAifFzmxXadGgKsILkcQdAOq7ENDoB4fbvkAr735Gp588Gnkjp4CtyOSo7x1rQ0Iwg9DMXPZFHmg9AFJHSl1QP/RHGBTHIhyxCBSiYJdc3CMn5Xzio6a5gru37DmozU4cfo4PDEeuN0RUDUNrS2tcDvcGNB/IBbesQiZyd1g0ymErCNgC+LjgvVYvmopusRG4smvPYaUmFRoQQA+CZEOD5x2B2sMqM+DTGWcFkGgaDV5KoQ7QdD1IEePvK3Aj364HLt3HUZOrwz8+CePIRhsxccf7cXby9fD7YpAWtcUBANBVNacx0OP3oExowdhw6f5eHPZx3jwoemYPn0EYmOdkGWdx/+CBfNV/vm06RD+Xrrh0oZS7cgCGza0r2qgeysUbejU/3TFxd1ABARBuIFgil11HgTaEwTS93M7Z3rC13Sosh8+tQUb9q7H/736W8yfuQizpsxGnCcBDtnNJYqm1FDl8D2ZIVEbZpqIydBIpaoEBHgiJutju26HpMrQVB2QdcChY+u+zVi+cjlq6mowZOhgTJ96B3IyctAcbMbWnVuxYeNGnCs5h3kzF2DetPmIj4xhw56AouPtT9/Fmo9WYfjgQXhg7n1IikrlSIHNUhuYNRnMBi48qVq/hjTw3Go6bBcNmibh4L4q/OB7r0I1/Ji9YBweWzIRb7+zE28t2wKbEY3F99yB2C5OrF61E2UVlXjmH+/E0KHp2LnjCH77v6tw+20jsXDROGRkeSCTBoHKHGXlM30iL6YA7X+zfr5IwBgSMpoRn1CLcTPiQI24zG24L4RVPRHyYSChqimUFItAoGMICILQMZzEWmGGwMUEgWQB5kRPX7yaFIBP9WL7/i343Wu/waQJuZhz2zx07ZLJVQE08XImmEL2ZNlM9YoavWOHoSgcWdAkPwsCqbeCXbfBZtj5gY+IRUD2Y8WHy/G399/GmFFjsWjO3YjvEm+a8igyGpsasSNvB9Z9sg5uZySeuO8J9MvpwwRBlQ28vPJVfLj+Q8y5/U4smDYPsRHxkHU7FG4w1N60JzSo9C51rQyJ6WkqC9+JhHDWVAOfrjuBH//wTfTqn4HFD47HuLEZ+MlPViB/ZzEmjBuHJU9MRkXVebzy122orPLiue/NRc/esdix4xh+86s1mDhxEO6+Zxy694iCofshy2a0pm0JdYa83L+ttlREiCRcGi1gGtDOiMkkfeTXYLp+UjrD4H4d1ImUckgOm6tjKY4w+7cuLvfKCAiCIO4OgcBlELiYIFAEQKIuy/zNSwSBOjXuP5GH37/2O3TPzsaCGXehb/ogOAwXdFXiNEJLoBkVteVc+WB1jyYJIOsQdCnAk7XdsCHOHYf4qATYFTvrGM7Xl+LP7/4RBwr34+t3PYLxwybBZjhApk2UAqDow9nKs1izfg3y9hbg0buWYPLoXNgd9HQq4dcv/S82bt+Abz7+D8gdOhFuOQaK7uAOhByh+MwzLL1j6h/MEjuzI2G4LpRe8PsMvPh/u/HGGx9h4tRB+NqjE6A4VXzvn/4Cb5OOb//T/Rg3MRM7dh7HG69ths9r4Ce/fABpaR5s3HgUv/nvdcjNHYhFd49CVrdI+H0BBAKaKQhtt1xu2rfMnD8D/6V8gsket/82PTRCfSCIxPoDlMIyGZ9ityEySoHTbmlNwnVgxXVfMwKCIFwzZGKDcEDgSgSByh812Y+g5ENhyVH88bX/Q1RkNO6efQ+G9RwNxbCzDa9f9+PomSP4eOs6NDbXmykHEjlK9KQeBGyalU1wYHCPIcgdNQVxMYksGDxTVYw//u13OF1WhCcX/wPGDhgPIyBDMWygyH/QFsD5xvP4YPMH+PDDdViy8DHcMfF22J026uqAn//hF9iVvxPf/dZzGNN3FJyIhM1wskiNjJfaauWtiIFJBay0Axs2UXfHcBjly18jjX1zUxA//fd12LwlD1OnD8DXHs5FVW0jfvD8y4hwROKH/3ovBgxOxtq1+/G3t3bCZnPhJ/91L2Jinfjoo4N48fcfYcbMkZi/YBSio2w4uP8UTpwshSRdkrppZ4HQFs+5NHrAH5grXmKBZLad5naSZoqBowikk9EAu81s7Z2ckoBRo7ohITECl20yGb5DLa78KggIgiBuEYHA34kgGFSeRgoE+gImzSGFn+GHZgvidEUR/vTqH/jp8L5592P84EmQDBs0XUeL1oINBZ/iL8teQLOvCRERTiiKnb/hKYIg2wxo/iCCTSrGDBiHh+Y/gpyMnvwFX1JdghdW/h7HzxzD44ueQu7QyZADNmImkOwy/DYvztadxeoNq7B501Y8sehJTBs7FTangha1BT/7/S9w5PhhfO9b38GwnMFwGh7Y4DJV7O3q5SkFYiYczP9C0QNyjgxnwTthUlfnx799/13s238EM+YOxQMPTMLJ0zX40b+8jIS4JPzgh3ejd994vP23PKxZnYek5AT867/P47FdvXoHVv9tF+6/fxqm3zEUAZ8fK/+2ERs37gfVuV6de9FoXBppuHysgW5dM35AqQvSGFC1jIRAIMh8gZwgMzPT8PDDt2PIsAQ4HFc/uvhCEAi0kVWjfSNzgYtAQCBgPq+RyMt6XmPlOad76clMBWzUfTGI8toyvPDGCzhdfAYPLvoaZo6bBZ2c92QdDVotPtn7Hl576yVkpmVi3PCJSEnMgKqbZZNUPkneBjt2bUdqdBq+NncJBuYM4eqChkADXv7gJXy0ZS3mTJuNeVPmIMoZZZIURUJDsBEFJ/Zh9br34GvSsGThUxjaZxAkm4Gy+hL86o//zZ4Jz33zOfQhl0bDA7tBvRdsbRo1NmBqayMUynNfmDw6ZwThypNs+9ue5KW19UH86PtrceBAIebfNQz33DMaZ86V4zvP/BFJCV3xo/94EN17xmLp8jx8uHYfBgzIwdPP5OLc+TIsXfoBSksq8Z3nvo7Bg7uhtbUVeXuO4/ixSp7EzQn9youZ5PnsubIA8SKXRerZQR0mDUgKmWw5oRtOtLao2LZlP6qrW0C3a1xCJP7xuQXIzU2EyyUIgviK6zgCIoLQcazEmuGEAOcDuCtBmz0tTapkXESBADIyqq+vxqvvvIqdBXtw37z7cPdt9wKaAlXRUK9W45O9q7F8xSsY3ncE7p3xMHpmDILG+zSbPu0p3IlXV70Ejz0Sj859HAOzh7DjHfVzeH/XGrz5/nK4HS7MmHY7+vfsw+WJxFSKSs9g/fZN2HdoP0YMmIj753wNqckpkCUdx84ewu/+8luuofjHp7+NbindEKm74dBI32Bnk6bwXK5kIPRZNIKGisYWFf/1H7uwbesB3DmrH+67fySqaqrxb997BbIRi4cfnYX+g2LxzqrD2L7jCPr06YYFC4ciP/8gtmzege45yfjWtx5EUlI0CwXJGMvQSKR4FfGnYd1xliNziCfQbcO3ThtvMPUHGt2mpt8mWr0qamq82L//LN5bvQN1tSp8PgkOJ/DNb8/BtKmpcDrN6+2QH0N43ijiqtshIAiCuB0EApdBgFIJ3I3vEoIQ0AOQqAoBQTS3NGL1+pVY9ek7mDF5BpbMfwI2IwIqJDSqdfh07/t4Y8Ur7LK4eMZD6Js52ExTkFWSEsSeozvwyjsvITIiCg/PfxQDuhNBkNhUubjmNLbu2YJNmzaioa4eOdnZSElNhs/nRdHpItQ3NqBrejrun/8I+lPkQSFRGpB3dBf+8PLvEZ+YiKcffQapCWlwaS44dDv7LoQvQej4bU5ljT4V+NsbJ/DnP6zEqLG98dDDE5CU5MbP/t9KHD1YBac9CnEJDsTERaOmrh7lFWVIS4uFz1ePtK5RuP+BOzFsaA/O+dMTvsLtHS29wNVOxSKRZpOlttISq6zREpkyz5Og6uTKKUMNathXcAYff1SAffuOISEpAcOHD0fRyVoUnS7B08/OxqRJSXAQxxQE4WojID63EBAEQdwKAoG/QxDoeS4UEqbntKAehCRTikFFq78F63d/hJdX/hm5oybhG/d8CzbDDcCBZrUJn+z9AK+ueBkD+gzBXTPvR7/0IbCrFDzWoduC2H10J175218Q6Y7E1xc8iv7dB/GZ0BNsk78J56vPY/PWzcjPL0BDYz2CapAnnOioKHTLzMKQwUMwblguYiMToBkqZMXA5r0b8OLrLyA7uzuefOgpJManwKE54CAfBNnRUa/fsL4nNCOIgAbk7ajEv/3gL0hOicU9D+Ri8tR++GBNAXZsO47aai+SU7tg0uQhqKquxZbNOyHLKtLT4zBiVG9MnjwILpd575AuhSIHHbZaZnJK9S4kMrQiDqQdYT2MVUpDYldDQVBTEPADp4sq8be3NqIgrxDuSBfuuvt2pGekYd0HB3HgQDGefXYBxk9KhMNhhiBEBCGsb/EOX7wgCB2GSqwYTghwBMH8KuV2z+ZCTZSCrB+gF7Vf3n1sB/775Z9heP9h+N6j34ND90CGE17Ni4/3rMXLK/6KPn0GYMHMe9EvYzBcGpkiUyYigD1MEF5GZAQRhEcwoPsgjiCTTiGoBaDqKsoqy3H6TDG3dq5vqIfTbkdm13SOKKSlpCDaHQ+HEsH2zCr8+GDjGry1cgW7LD68+BHExcTDptthlyyC0AGJXDiN8+WuVdM1Dt1XV/rx/e+8iNKycoyfOBiPPz0Lmm7gzJkqtDT50CU+Fj16JKGxsRUnCs9yv4WEhCikpsUiPt4BcmSU2J7Kbbpk2qhTpnkf/d2FyQGRBBunnEznZfIyCIBEs+Y9aYMBBxoaNBSdqsQnH+3A/n2FiIvrgtFjBuK26cPQ1BjA22/uRkFeCZ56aj4mTU3idIMgCOF+h3f8+gVB6DhWYs0wQoBy+FxmzoZ1FwgCEQOauNmSWNJwrOQIvvc/z6NXtxz8+zf+HZGIgqw74Nd8+GTvWvx1xQvo0bcv5sy8C70z+sNp2GBjsxwNe4/uwRvvvoYoVzQenkcphkFtpWxUqqZpOoLUWZBK2WwKZFnm6QY69QlQuQmQEZCg2O3QbTp8eiuWr16KrTu2YOzIsbj7zsXweKIh6wqXT1IEwSxhNA2fxFPk5W9oXSMXQhoKHS+9sAnvrd4Mny+AeXdNxqy5YxAT64bDYUNAJUOlViZ8kR6KHNGYBUmpAoXabvP9Q22+naz/oMoVs4l4aLlwX118JnT8dvoXuteMIJfHkkcDyFQLLmhBGZu3FuLdlRtwvLAQuROHY/asXPTslQaXW8Kpk3V4e/lO5O0uxZNPLUTubUlCgxBG32E34lIFQbgRKIp9dDoEuCMBf8FbCQbLpYZbLVsdD+miT5WewvP/889IS07Bv33jh4h3JJCdIdvzbtyzFn9+8w/omp2B8eOmIC05i41y7IadKxIKi49i3eZ1SIpJxsNzH8XAboPZK4EmAZq8KSxtyBKC5MhIE4slXFMMHQr3d5CgBXVeR7NpaArU46/LX0Th8ULcNuk2zJw4C5HuaGj00MnmR9Q0ynTyowmICEfo7043gFYYvX2RVsiYuP210uf1tXWws5lQJBNCEhTyuMsGjh6swAfv78HuXcfQ4m3FpNzR6Jadgdj4aAQCfjQ2nkFiggdTp4zmigLqh0GRBCoqYAdNJmRE7mzsgnnxsS8TTSDJgW5A12k/of5KVPmi8v5VqpJRbWio9ePUyUqsem8zCo+fwuBBvbB48W3o2aMrSMtKzaGKixrw1vIdyN97Dk88uRCTpqTA6RLksDPe61/UNQmC8EUhK/Z7SyPArZ65hiFEEMywMJeVUYdHzglLOHv+HH78wn+Avvu/+cgz6JHaA4pug6EHsK3gE/zp9d/AZ/jhioyCYbPBkGT+nHbuC3jR0tKMoX2HY8n8x9EnvR+nnokYyFy2Ztofa0wQQlp16rRoUEdotjSg/g1BSYOmBFHRVIHfvvhrtDa1cBOnCUMmccfGgEaaCSIUF+yiiYBomgabzcZEoTMtoegIXSNNtPw7kaHLpFd8/iBWrVqJiAg3xo4eCbfHAyfF4YmAkVeFKqOqshUH8s9g7Ye7UFnRAFU1CZzbrSAuIYix4/phwcLp5rH4KBIcdssQiZo00f3Ct4v9ClUM7VMOptERkQu+AyV6mWNPbt1+n4TK8iZ8uHYXNm3cyxU1I0YOwNzZE5GRHs+kglpNyzYJxUU1WLZ0Cw4eLMGSx+ZhUm4W6yJE9Kgz3e1f7LUIgvDF4iv2fosiQF/GNDkzD+A0g1ljZv5JBMH8vLSyDL98+VdobKzD1xc/gFEDRkMiQyPoKDy5D2+9/zqqGqooqICgRKpzwGaQDkGGIelQbAqG9x2OuZMWID0uExI1UJIktlzmigMWsVO9u3lk8tcPtVhi0yVdR4DMl2U/SuvP4Ze/+xlccOCBOQ9ieO+R3KvBr2nco0Ghjo/k76Dr3M6YXopC9rudt/QxdG2M3mVcC1u8fvzyl7+E1+fDyOHD0X9Af2RlZCHC5UZEBE3o5nbNjX4cPnQOJ09Uoq62gbUIyUmxSMtwoVt2AtLSklFf38CUMiY6Gi6Xkz0xZIUacFFKSAc1S7q4zPFyKQbzCd/QdO7jwU6JFrkxdAnFxVXYsuUANqzP5+NNvW04pk4die7dEmG3mXSWoiG0TdHpaixfthkHDhVhyZIFyJ2UDZfLdFfszGN+i37l3JSnLQjCTTks4qS+agTUNhMhatQUIgimk2IoekAEoaKmAn9a8XscO3kYUyZOwvTcGYiPTqa+fWhuqkFRyTE0tjZAoyd27rZnWiYrsszCQk3SkBaXhh7JPeGxRXEKgsmHbLYGZo4QMuHnL3azCVSbYTJFInQfqr3VOFh0AH9548/ITs7C1+Z8Df3TB8Bp83CKggiCbBgIen04f/48qqurGWKKHnS2ySKksSDyZLfb+RqpTbZOoXu+6guEKKhqeP3111FfXw+3243U1FRMzp2Gnjm94fcHEB3jQWyXCO5joOsK6mq8aG318SQbFR0Bt5t6HUhoavBh7dr1CPh1DBkyEP0H9ILNZvY+YJJgdQS9cjdF09OSkw66Dt0y1OIokiFzmqj0XD0++mgPtu/YjwiPB4MH52DSpAHo1i0ZdoXailOBrQybzezpcep0DZYt24z9h4qx5LEFmDKRIgiCIHzV3y230vEFQbiVRkuc65eGwMUEwSoNY18Ec5Lh8DUk1LXUYM3Gt/Hh+jXcCGn82MmYNm4mEmIS4XE5IMvUhYG2UCCx9oBUADae9bnlk+FlXYBDd3JDZnryC5LigKIIktl0mfQG9OTPT/+hlINlk9zq8+F0WTHyCvdia8EWnC45iYW3zcf83HlIj8riJk+qTYKqEEHQUVtZjd27dqGhoQFJSSRac3ZqgkApFIqSULSETKouSjOwDlDG0qXL0dzUCKfLBZfLhVkz5yA5KQuvvboaEycOx6TcIUiIj4Si2EgfaqURNMjkfk0VD5qMs6dr8Muf/wlFRSUYOGggHvr6AgwYmAGZGiZRekdu76hxyW3M0SFrobbbTGbMagU630BAQsnZOqxetR2bt+xDdJdI3HPf7Rg/sS8inBQV0mBnUSS9zOiTbHPiVFE9li3bhn2HzmHJknmYOqmrSDF8ad8gneNAgiB0jnEUV3GDEQj1PDSlBhdi0/SVHZpkaLL2q604ee4w1m/7BFt3b4XN5kCfXgPRs1tPZKdnwu1xcrg5wuWB2xENhxQBxRKskZcCOTJSWJioAHVrpMlENYhSWF0VaQ7jkLMGXQvCH/Shxe9Fq9+LltYWnK+qxO68PBSeLkSjrwHZ2Vn4+vwHMSB7ACLlaEBXoMukm6QnTAPnS0qRn5/PT8ojRoxgDUI4LwFVxX/+50/g8/mQk5ODwYMHo3efXjh3rgGPfO37WLjgdjzw4AykZ8Tz5Ev6AFPwCUgKpQEozSOhpqoZn368Fzt3HkRlZT169e6OufMmIis7EbHxbhYvkgqCUkvcdNsyQwq13+Z7ioecdwiqpNB1GXV1PhQeL8eunceQn38UcfGxmDR5KCZN6ovYWDcTTXLQlBGAQmNMIlQyXJBtOHWqHsuW7sD+g2VY8tgcTMlNFQQhnG/2z3HtgiB8DtDEJp0fgUu75l244guhYHqPDIpagy2orq/Env17sO9wAYpLingid7rsSEqMR0JcHFKSU5GalIloTzwinG5+cif9Ab1I3d6uCwLnvGniYZ1AIMgGSYEghbabUFFTjrKKUtTUVaG6phq1tY2wKW4kdklCTrfumDx6Anpl9kCEww1FsvNkQWSHJG/Ec86XlqGgoAApKSkYNmwYE4TO2I6lTXtgPZ2bfScu0VpIgLe1Fbt370Z0dDR69OyJ6KhINkk6crQMTz/+UyxcOBn33jcVXbt2sfopkz8BiTopFUTiQ7MkUVU1eL0GTh6vwIZPD2D7tsNIS0/AtNuHYvK0AXC5KemkcrRIpu0phWBobHxlagxoUicxJbf8hKEpqK8PYOPGI/hw3R6UV9ag/4DumDNnDPr1TYfHZTeJgU2CpBDloJgXkUBq+W2mqYpO1jFBOHCoFI89NgeTmCC01eV0/n/E4gqvGwFBEK4bQrGDcEZANzR4VT8LDklrUFx6mvUIZ8vOoPjsadTX1fC0ROr4qOhYOJxmGNvt9vDfRBRIVNa+koCa8uh+HUFfAC2trfD6vAgG/fAH/GhqaUJzSzM/JLojIhAXl4hePfqhR1YPpCamIi0uCR67m6MUbO8ryax+NysygDIiCPn5FxGEcB4/ImFer5e1CvQiUWBAk3D02Hk888RPsWjhFNx772STIDDNspCkiVjW2I+CZavszK3A26ozSVj17jYUFBxF95yumD13PAYMzERsFycUKl8NMUCayul3k29YTRjMyEFTo4q9u4uwevUunCkp5/3MnD0GI0bmwOOmeBMRE3LPtHGjJkmi3IdmGSgprFMhm2UiCAcpxdBGEC44g4bzuItr7xgCgiB0DCexlkDgsghQdYFPDZgVDorOzZzqG2tR11iH8xVlqCivQGtrMxoaG1DVWI1GfwMCtD4LDkkgaJY1tn+4pYdIu67ATt0XLf8Ch4OIRQSiomIQHRWL6KhoxMZ2QUJiIpISkhAbFQOn4oCdSxkVTlcw6ZBDBIGfUQVBuGQUiSBcJNKkaICk4AgRhMeJIEzGvfdOuSJB0HWfNXQOJgk0lj6visOHSrBu7U6cOHEOHo8HEycOxsSJ/ZCcHAOqgDRUS9dCpSg04GxPQekrGWXlzdiz5yQ2bdyP+poW9B+Qg1Gje5kkI9bFJls0tLquQpJJhElWzoIgiK+oG4+AIAg3HlOxxzBCgMLLpITXyCRHNkyXRVDoVzYrBEAKehVNzY3cHrq2tQqtvha0+ls5703RATVomuCEFjJA8jgciPVEI8YTC7crCq6ISLgjPIiOjkOUO4YnBY6ec4mDzpUWdDTyOiAvBTJFYmMeMlFiTwdBEC53W/r9fhYx0sKEyjAQMCiCUG5FEIggUAQh7jIRBCpf9FkkzgWK/FCVC8kUAn4NZWW1+OjDvVi9chvc7gjMmjEOU28bwmWRpteBWXLKBIHYmyGjoT6AtR/n4933tvB9MeuOcbhz+kikpERxoyUyTDJHk9JQOhRyaBQEIYy+cb7cSxUE4cvFWxyt0yFgQNdoUtCZJHAZJGW7Sb3OuWXTjZFCyaYfosp/cj9INYhgIGgq1i0dJE1YtBWLG+0OOBQnFa6ZOW/eF1VDULkkTSimbTJHIZiKhHwOzCoLym3TxMOeDlYGvqy0VKQY2t2DoQhCyFGScPOpOo4VVlwgCPdNRte0KxGEoFWeqEBn/wtTgEjjSwSg9Fwd3l+9lxs8QeZBQ2oAACAASURBVJMxbkJ/3D5jELpmxsHhIBJJcgQdLc0BlJbUY+/uYmzcdhDVTQ24beoQzJ89ChmpsWzERdUKRCboDlOJhZB9NpdS0j1gRhC4fwM1eRIphk73TfNVXJAgCF8F6uKYnQgBnfPQVHNP6QbTvtiaM5gUWE5LXLIWksldEIrRJBKapAKBAAoLC/kJsXuPbLg8Lv7yJ28E07BJYl0BBw0sFSWr1vl1wRI61H0ylNemucQ8JQNEEKiKISRS7OxGSR250UIizdDfVAtw6Mh5PM0aBBIpXoEgUNMujdJLRMhsUINme3DKGBksNgSCQeD40Rr87c18bN1yBBGRdozP7Y4Zc4Yhs1sCPB47Wpv9OHq4HJ+sO4Bd20/AqxrI6ZuBB+4bg7Ejs2Ankyt2xSKbTQOGTYZOKkRZgUJElCttLIJALp2SIAgdGXexztUREATh6hiJNQQCfwcBIggBS0NgTvxmQx2eNUyDZEs8zxM3K+AvqOkpekAEgdY/V3oO77z7LpqbmzFv/nz07tMbiiLDRiI0i1zIlnNSyNnR7PhnRhgukIYQQbHebqvSFAThcgMZchZsTxAOHjGrGP4eQaDGXZpGER+JXRK5yRO7XlopAFVBRXkjNnxyEFs2HUdVDd0nBpzuIMZM6IUx4/shKysJZ89U4eMP83Hk4DkE/WZDZ8UJTJ82ADNuH4rkxEjYbJQi0ri0ksMJ7KURSmPReAuCIL6mbjwCgiDceEzFHsMIAU4bGAErzE9P+hRivgCASRBCj/z8aHkxQaAGPKqGpsZGbNy4CS+99BI7HT755D/gnnvuYXc/Ms6hJ0UKJ8ts60jPuJb1s0Fdgeym73ObGbRZCs+ExLJRNs/JQKmIIFz17qSUzEUE4QoiRV2iyJHZtdHQabImvYfZdyEQAE4er8aOrYexZfMB2J1OjBozEBHuCBTsO4Gy8xXI7JaCrG5pKC+vxvGjp9E9OwMjR/RBbW0Ddu85wiWu48YOxMTxA5CRGQtXhAFZ0dh8iSMVkgKJ9Ac8zoIgXHVgxQrXjIAgCNcMmdhAINCeAJCegMyOuN6A9QFMEngVsmW2Xjw/UwTBTAeEFpr8KYJw5MhRvPjii3j//fdRU12D++67H8//8/PIysoCpR7sDhscDhKkWV2aQnSAiQHZ55qV/pYvs5maaOvaYJEHQxCEjty7FxOEq5U5UhSBtCfkYEjNoajlM3D6VA2WvbEe+woKERMTgztmjsFtdwxi06zdu4vx9ltbuMKBog6eSDt69e6KefPGYdTIHDTUNWPXzhNYs3obamtbMGr0AOROGYQ+/ZLgiZQ5gGDSTDqm3QwTCYLQkaEV61wjAoIgXCNgYnWBQHsESC9AskOagkkkSBECMsMzF2rFTLbJVgSBShD19gTBNNgh/cLHH3+MP//5RZSUlHBaoU+f3rhr0SJMnDQRkZFRrG1gQyWzLtJq4mR2ILogSbjQ0Jh7AFgiBKYHTFoEQejI3XuBIPzMKnNs74PA/sxmxQKRP5YGkMERdccksWEQp06U49OP92H37kNITYvH9DvHYsTo3khMcPLhmxqDKMg/g127juLsmTJ0zUjA1KnD0b9fV0R6zFRFc2MA27cfxdp1u1BZXY/s7unInTIYw4ZnIy42AjYSJlJlCqWfuBsnRTJI92CmHkyjpJAPQimWPDbbMkoSPggduQfEOiYCgiCIO0EgcB0IcBteszuDVUXAvCD0r8ucRDiSYEDmbopmSZ0ZRTBd+Ghi2bZ1K3bt3o3W1lbExXVBRIQTSUkJGDd+PBISEi1JAz0ptvVytKIUlMIwD2iKIEP19VZEg6Ma5hFpMistEyLFqw03EYRDpEF47OdYuGgSlzmmdY2DRM2erOAPjZvZY4OiBoSthJrqFhw5dA6b1u/DoUOn0Lt3JqbdPgxjxveB06VAlsjIiIpbFHh9GirK61FRUYvYWA+6dUuB3W45alqMr6U1gG3bj2DdR7tRVFyOlNREzJ5NUYaeiIqMgE2hltSkf6DjB7lZE2kTyIvBkCUUnarD0jfIKOk8HmsjCMJJ8WrjLz6/gIAgCOJuEAhcJwKmJM2sHQhNxqFdEjEwn/FDraMviAlZs8gtmzXU1tZyA6Xjx49zSDo7uxtvFx8Xx02EQmmJ9u2L244RUie2/d22tpXMECmGaxliJgiHyUnxl1i4cDzuuW8y0tK6sLkRVQ+QvoMcNEmkKMlU3iihsT6AndsKsXXzAZw6VYLMzBTMmTsO/fpnIC7BY7ZHoFbdVlWKaaZI+hOdGzmRviRU5cL2zeSRYABV1U3YV3Aa27YfxqFDRcjOScdtt4/A4CHdERfngULnwJ07NEhknEQVLxRpom6Op+rxxtLtOHCwgq2WJ+cmC6vla7kRxLoigiDuAYHAV4qA5VFAkwJpDXbu3MnCRGqkFPI4uMhm8TpOlo4hRIpXB9AkCOV49vFfY+GisVh87ySkpcUg6DetjamqlKsV6E9dRm1NCzZ8mo9PP9qDpkYvevXqhtlzxqF3n3TWF5DjNS0kNG1vqX2lM6GUE4claNrXgMZGP0pKqrF+fQH27D0CT5QLk6eNwPgJg5AQ54ZNMZgcUFMvLolVZDbqOlVUhzeWEUEox2NL5jFBiHBdiEBdHQmxRrgjICII4X4HiOv/yhEIldeRs2KIIIwcObJDk8m1nLwgCB1DiwnCoQo8+/hvTIJw33ikdY2GppKLIQlBKRVgh6YbqK3xYuuWQ1jx5hr4fSqGD++PO2eMxZCh2ZAUgwWF5vhKrC25yNb5CqdD0QOKKpHpFqcLDIWJwrlzdXhzxUfYuGk3YmJjMHnqGEyfPgLpabHskcBumrIpYiSjrlOna7B06TYcPFTG7Z4n56ZxBOFGEc6OoSnWupUREAThVh49ce6dAgFBEG6uYWyLIDz2OyxYOB6L7x+Lrl2joOlBaBTGJ3IQsKGoqBobNxQgP78QmurDlGnDMXRYL3TLToIrwvQmIGUKRRnISCnkeni1q6UIgqFT+Sw5IpBLogJVo4ZQEk6cKMXOHYeweXMBvF4Nk3KHY9zYAejVMwURrHMAbNThUZZx6lQNli/dioOHSKQ4D5OYIFxcZnu1c+mUnwd90KpOA63VluOYmYKT3AmQkntA4soQsTAmRmfs9SrGViBwCyEgCMLNNVhEEA4fOY9nlvwG8xdNwuJ7x3IEQdUD3DshGABOFVZjw6cHsWnTbkRFezBvfi4m5PZDbGwEFBtVr3ghsfW2AkMj4SARBCpTvaTl9GUunbwViCBQJYLpcWDqFagZlK4rqKvzY/3H+Vj/aR6amvzo3TcLc+eORt++qYhw2Vm4SMSESi2Xv7ENBw6W4LHH52Hi5K5hSxCM+lJo5w5CP3+QGmVAbygH/A2mCCik1HHFQOqSxr/K6UOhZI+G5CGL7fBdBEEI37EXV36TIMCiNMMA9WEQKYavflDImpqqGJ569L+w6O4pWLR4PFLTYtghU/OrOFNcjXfe3IhDh07DGWHH+AlDMXf+eHSJi2ATK1mhLot+ntzJCtsg+2ODmmdRW++LCcJnns+4uCXIrZwNMtXiXtCm4oG1CZINmmZDRRl5JRzDhx/uRVV1LcaMzWEfhR490mC3U38G8mKow1vLtiMvrwhPPLUQk6Z0hdMVPmWORm0J9IZS6JUnoJcdhlF5Cnpt8UWk4LN3G7teQUroDjmpN+SkHpCTe0GKS4ccl/XV35xf8hkIgvAlAy4OJxBoj0CIHNB7JFLcsWMHixSFBuGru09UDTh2rAJPPfFzzJk/BovvmcJ+BgGfju2bC7F1Ux725R9ERmYq5i7MRe9+WUhMioHLSXoBIgdUmRAqNyVFI6kUzRLVq2sQiCwG2giCQZbK9JRLpaxUsWBpEtSgDfV1XuzadRKbN+/HmTMnMWBAd0yePAb9+2chMtqJM6er8faKHdhfcAaPPzE/rAiCfv4Y1LwV0KuLYDSch+Gtt4Sf13hfRcRAjkmFFJ0E+5RvQI7vdo07uLVXFwTh1h4/cfa3OAKCINx8A0gNlo4ercLTT/8CM2YPw333TUNKSgL25Zfiry98gFMnTmHIoO6YM288Ro7vAbvTxv0XbFZJKzXAUvjJ3+q4aTlahnpytL/izxIGihYEoRtBQCeHzFBbbx2yTATBNGoiQyRKXzQ2UoOvMixf9iGOHT2Dnj1zMHXacEya3Bfl5U1MEA7sNwlC7hQzxdDWzOvmg/76z0hToR79BNrhD6GVFACB1uvfJ+1BkjnlIGcPg330wzdmn7fAXgRBuAUGSZxi50VAEISbb2wpgnDkcA2eWPJrzJ43HrdNH4La2jqsfHcbGmob0bdPOhYuGIfuPZNhp6oAyeyfpGkat/WWJZtZbth2aaHWmxd6YzB3aN+04yLWQOJEcl8yBY7m1uShQFEEw/TasAyzqJLC59Nx+FAZPnhvN44eKYHTZcO06cOQkZmFTeuP4MCBU3jq6fmYPDkNTlfnNUoymiqh5r0N9dh6GA2lgEbGUTdykSBFxcM2bDHs4x+5kTu+afclCMJNOzTixMIBAUEQbr5RJjHgkUO1ePLRFzFm7CikZUbh1OlCFBcXYeaMEcjNHYi+fdJAlgiqRk/21IabzJPIydIsI2QPi4sIgiWGs5pnhT66PEkgMmClytvthR9k2xlr0+9UVUHmTWpQxuGD57Fhw2Hs2XMMhiRh8KDBOF/ahOKzJfjWtxdi0qQkOJ2dlyCo+W8juP1lGI0VX9xNReMalQzH9Oeh9Jr4xR3nJtmzIAg3yUCI0whPBARBuPnGnQjCoUM1eOax15CUmAPIAfiDdRg0tCsW3T0EWVlxcDrYLcnSBxAhMJ/yL3hYXnxdPLFfQg5CW1wOAav11kUf8XtWV04rqGDZeNMHClqaNRQV1WLnjpP45OO9sNujoes2BNRmfPu5BZgyOaXT+iCoR9ZB3fU69MqTX0Dk4JIRkhXIiT2g9J8G+5jOHUkQBOHm+34SZxRGCAiCcPMNdlADDh6uxDee/CNkLR0wHHB7nBgwKAOJqTrsjiAk6p7IWoB25x+a1UOhg9BnlFngnztqUmSJEtuSC6FjUFjhEuLBWgc6D6qWcCAYkNDY4MfBQ8dRX9/ApZIREQq+/dxCTJmSapU53nyYX88ZaWf2ILjlReilB754ctA2FBKkuAw45/4HpLhMaIUbYDRWQi/bb/VaVyBFJkJOHwIlvT+k2IzrucSvbFtBEL4y6MWBBQJmHjoUZhZVDDfHHaHqwNHCSjz71K/hb06ETY4BdWlyRKjQ5TpA8lFwv21i5lm4w0sH1mU20dYSNBQsuCTZ0P6ARBJsgG61fqaAAvsmBKAZAaSmJuCb37oLY8eZKYbOtBjNNQhs+C20Y58CQRqXL3FR7JCTekKKiIZeVwL4vTBaqkwiSNEiewSkqET2UiASYet/J5Ruo77EE7z+QwmCcP0Yij0IBD43AoIgfG7ovrANVWqeVd+K99/Lh6/JBVmKICdjSIoXoBdFD7iHhvnkbjkaXfR035Yi4PnYbM0cEhu2iwe0Tf5XuphLgxHttzV5iWYd14oiUBtq3YDDYYPKIj0N8fGxGDuuF9LS3FBCzUS/MPS+3B1rRTsQ3PA76BXHv9wDX9PRDMDmhJI5FLb/n733ALPrqs6G31Nuv3e6RjOjMtKod8mSJcuWiySDbXDDEJLPIQESAoTQEiCBJ8lP+P6fkPIk5AtpXwglgZgSwIALuGFblixZ3eq9jEbS9D63nfY/79rnjK5kyRqN2ox1j5776M69p+69717vXutd71r2PhiTb7mko6/nzkWAcD1bv3jtG74FigBh5A0By8nCciz09QKuZcJ1lPCQGWIWgf8S60yXv8piUO/P8yyDC/bgy/PtdO5xQ1zlC5FxsLa4z4nQxCPFmgy2zWqTrM+gIZkyEY+GhqDDMPL640J35A10wVr3Ddi7ngayfSP/xgkSpt+B8MpPQiutGfn3W5RaHhV9VLzJt3ALFAHCyOtc28mIa148BzaFilSJZ9MkN0CYiazNKJ8rvwA/9z8efJyCD4ScGBw3hOcd5Cu8CeAY5DeoO5CcCSov+umTZ8iMrqrp4HkIh8IitPRW2ZzDa2Gt+Xe4zftF/XA0bFqyCuayRxFa9luj4XaLtRhGRS8Vb/It2wKXAhC4r+Ta60OrCnhuo/H4U6dOYfv27Rg7diwWLVo0eK6LK/y9dbogaHNKF5smBYd81UNNg2WRgMgaCg50IwTPUfFkXXOh6R5sx4Kum/BcFkZSnoUANHA1L6diP7ncXxddhOB67De+Z1uLToKuSdVG1+FKXxVREnPvG/+gn4PjeRzPy/MbzLEUbQTVLyLD7Bd24t+2xfvU/IJPlH82RfZZrq1TgElxXwJvg/hACrIsOM64Fd4zv5dCUv4zqHLkQ/R2XIXhQ96B9cq/w207chXOfpVOScGlKbci/PbPQisbd5UucuVOWwwxXLm2LJ6p2AKX3AJDBQgBOOAETaW+YKWoJvyhrQp57MmTJ7FlyxbU1tZi4cKFCIfDQz7+kh9uBB1Ag8dX0H5sM74/1wgrQ0tvgQGXMXwJISgFQwIE1/VgWwRqGqKRuHLh03DToGrKUCvBJF3UFQkYTPaXZDIoFQOCAdpVnitY+fKtX1NQhQ0ElygxhEFQQYDBxEZX6S3oHAYMeXj+Z+IdUBwEeU5TXUd5OAhU+LcCKcEY4n5BmwTGn6DJtu2zxkUAongcvwvAAfe9XhszB6w1/xdu2+HrdQvDui6JjaG7Pgpj6h3DOv5aHlQECNeytYvXKrbAOS1wKQAhmMALTxFM1BdU5SvYmYaLHoTNmzcLQFiwYAFisdiwPRKjqTP57PQOcNu2bRsOHTokz51OpzF37lxUV1fjK1/5Cu666y4xwNFIBHetvAuvrn8FHR1tiEZiGEj34PYVd2LKlGnizm86eQrf//73UDWmChUVZZg8eTKmTZ0qK/S8ZSEcUmWDlbE15HqGbqK1rRWvvbYBmXRGjHVJaQmWLLkZlZWVyGazMAwd0WhEanPkLYY6dAFyfOXzltzzSy+9iNLSUlRXj0EikURVVZV/DQOhUEgATjqdGfQysL4HwyJsh7/4i7/AihUrsHLlSkQiEXznO9+R+3z44Yfl2IGBASSTSQEBLB4WjUbR1NSEhoYG3HTTTfI8wcb9r8fmDXTC3vID2Nt/BmYyjKZNi5dBb1gOY/x8SYmUdMi6edASZSPuMYoAYcR1SfGGbqQWGCpAkHWgrBTPuHgLV8BDaTNO7Jzot27dinHjxmH27NlIJBKymryeruKh3Pvl7hMABBrpb3zjG2hra8Pdd9896EWgEfzSl76Ev/mbv5EVuGGaqKkZi7/8y/8P9fUTcettK9DU1IjxdRMxa/YsuI6HQ4cP42c/fxx33HEHamvHCtjidvTIEXR0dkobG7qOXbt2oaamTtqbIGD3nj145pe/xPQZMzCurk4M8vjxE8Tw79u3F+UV5Zg2bar0VUtLK+LxGMrLygWAHDt2DI2NJ7Bhw3rMnTcXDQ3TRNq5s6NTQhbkGUyaVI9kKont21+X58vlsrjnnrdLETC2w3vf+16550cffRRlZWUCGPjdRz/6UfEutba2Ytq0afJ6+eWX5TsCKgLK1atXDwIEjsdrDhAYvjm1G/bmH8A9thFepgeSYjKaNnp6wjFoZtSXxtCh18yAueBh6BMXQ4smR8zTFAHCiOmK4o3ciC0wXIDAtip0lw+l7WgcTpw4IRyEmpoaWTnTMNJN/FYHCIHrn8/57W9/G4cPH8bixYvFiE+aNAkdHR340z/9U3mRY8DV+rRpDfjyl7+CaCyCW5YtQ13deNTV1iGVSoo3Yv+BfXjiiZ/jlluWS3vSkJ88dRL79u5FKpXCwEBa9lu79hW88/4HsHrVagUQdu/Gz5/4OSoqKjBn9hyMrRkr3oXt27ahpbUNZaWl4h3Yum2b6BmMG1eHXC4vBpvGm4Bi/YYNWLZsGWrGjkNfXz82vrYRM2fOFM9Fzdhq8YJ0dLbD0A1s3rIVX/rS/4OammoBCB/84Acxffp0PPDAAygvL8f3v/99AYr0IPD9hAkTBEAtWbIEr776qvzd0tIinJVVq1bJOdiOHLvXMsTgdTfB2vIjOAfXwutrufa6Bxf6kTGOEyuBUb8UCEXhdZ+Cc2w9ND08lJ+lCgGZYWjRUhgLH0J4+QeBUGSIx17d3YoA4eq2b/HsxRZ40xa4FIAQxIuDOHkul8POnTtl8uZnFzPyNFb9/f0ywdM4zpgxYxAgvNW7aZAboOvo6+uTFfGePXvEm7J8+XJZnX/yk5/Egw8+KPH60tIS/M7vvF9CMnv27sa+vftxvPEk3ve+9+GmRQul9sK+g7vxpS9+GePGT8DY6rGYNn0aOjs7kYgnJGTwy2d/gePHjoP99KlPfQrjx40X4iBDB00nm7B//37s2r0bhq6JB+HgwYNi7IWCoOvo6WFI43ZMnToFW7dtl/DDxAnjBdg98eSTEiYikOnq7ELTyRO4/533y3mbmk6itaUFq1ffjaqqSvzTv/wLvvD5P0H9xHq4jouPfexj0vc0/Awx8H56e3sFIDz77LNobm4WT8XSpUuljWbNmiXPRc5KIUAYLll2OGPNObIR9qbH4DRtB3Ks0HjxdNHQ2z4Ho34RoJvI//izcDuOD0ph8x4ij/4LmFXALffjz0HTYwg/+OeAcZ6wiWvD2fMCrPXfOpMxYZgwJi5E6G1/DBJCtHBcqSg6FrxsH9yW/bBe+Rd43a1DfGQPWrQEWvVUhBb/GoxZbxvicVdvtyJAuHptWzxzsQUu2gKXAhAKmec8MYHBmjVrZBXHFeDFAAKNJF3CjFfX19dLnJnHDpXkeNGHGeE7sP0Ikrq6uqStaBz5/rHHHpP4+tNPP42/+7u/U0x/Q0dJKonjjceRSpVI2GHdq+vQ0tyK97zn3UgkYjh+4iiefOJp3HvPOzC2pkbORZc8++KuO+/E4z99HEePHkU4HMGnP/0p8QpwsZnN5pDJZBAJR8Qwv7r+VTHE7B/yEepqWZY5Kp6ehQsXYcqUBqxbt04AA1f+XNl///s/EP4B9+vu7hbPxXseebfc74GDB9Da0oqHHnpYuBVf+9rX8LnPfU4AhWM7+PCHP4z77rtPvCi8D3oUXnjhBcybNw8/+clPBBisXbtW+AbHjx/H1KlTxcNCgECORpDhEHgQLjbuLndYOMc2SxEml+WbnfyQT2cufgSh2z4kMf78r74Ge9tPgFz/4PGxjz8BrUTpEWS+eje0snpEf+tfZTXvNG2D27RVwKIx7e3QK8bBS3fD3v44rJf+VQGURDmiv/0t6GV1cLubYW/6HtyORhjTViC05NfgWRk4e59D7udfhKZfApmTYEPSIX8LoUXvkvu5XlsRIFyvli9et9gCgznrajV0ManlQiIiJ+XGxkZxVzO2TUMwlI3HkXMQ8A6u9uQ+lHu6FvsU8jeeeeYZHDhwACUlJYMxdAKEL37xi/jQhz4k/RAyQ7j1tuV4/vnnkc3lkEwk0dlJI7kIy5bdglDIEANLF/x9971D0kbpmdi9azf27N0jIIHeGvI+Tp06jY997PdRWVkhrn+ChjVrXpb3BCnMgqgaMwZdXZ1SP4GGnK7/HTt2iGdj4sSJ2LhpowC7vt4+4Sq8/vrruGXZLQIouLonWLz//neKx+J0c7NkQjCDgs9NY/9Xf/VXqKtjqCKHT3/60/i93/s9+by9vR1/9md/JiCJ13n88cfx0EMP4cUXFQmSoIWhDYKTOXPm4Pbbb39DNsjVHEP23udgr/8vlangKJLpUDd97EyEH/oS9KoG2Nt+LJoJJDdy85ws4p98FlppLfIvfQ32a9+DXj1rECBY6/8T9qvfVhyBSAnMZb+B0JLfgNfTguw33yeZI6G3fRbm3HvB0Ef2Ox+BR/DhWNDKxyN0++/AnH2f3Hf++a/CPfraUG/b308DIjGE7vgIQjc/eonHXrndiwDhyrVl8UzFFrjkFrhUDwIvEEzIBAh79+4V8hhj4MXtwi1QyEGg+5yhGa6K6UXhSplggdwEcgRo1Om6pzudMX+6/mns2cYMR5DYR68Lww90x3NVz/PwGjSk9AbwcxpWemxINuSqnLwE7kOvAffh8QQjdPXTjU9jvX//AclgIDCgZ4BGmvfG9FSCEHJIeBxX8TyG90kvAM9JDgK9GOQo8P64+ud7eh/+/M//XIAHPSgESOQvnD59WsDGbbfdhk2bNsn5n3vuOXlO3jf3JfGSbcJr8HPyNYLtWpBbrZf/VbwHwxNCchF9/7egj5sPr68V2cc+Bk/CDIBWOwvR9/6D1EnI/OM98Po7odfOPwMQXvm6aCzIppsI3fFhhG79oICA3ON/Bq/tAGK//7hIKLvtR5H99/cOtous/m/7HQkTeF1NyK/5Nzi7nxnWz9OYcw9Ct/8e9Ir6YR1/uQcVAcLltmDx+GILXEYLFAHCZTTeJRwaAAT+TwBA4xdkgdAIEnTRmAYb+4Wr+yD7gX8HKaFiM3R9MG2SxjTQFuC5afR5frL/uR/PEXhtgv7mZ8F+PJ9KQ1Qpkdx4bW7cn5/xxc/4fyCWVUguDa4RAEhyKwhuaNgJKt7//vcPegToRWBoghvbgO95L9zYBgQdPHeQMcO/ed3gGYKQ1NUmKDqNW2Ct+Te4jdsvoacLd/UQuusTMG96BFokiex//K9BzYTwe/8PzMlLRYUx94NPCGfgzQHCRxC69QPwsr3IfvcP4A2cRvxTz6s2PAcgSOoi+QihGF0V8HIDgJ0b1jMwJTJ01x/AXPjwsI6/3IOKAOFyW7B4/OhqgU3fA9b9x8hhQBeQregSVkp+GkIhxizPp1KnhHW5KfEfG6YZumF4BMMfbH6ppPNw2wIxQF9Q8YKX8HWL3vD9YJVnpWt01lZ47nNFB8/IIYtZv+Bx6osz/X7uDZx7X/xbASAlshSAgAuFAs4+3hduLniW851f3cNVPn+fqwAAIABJREFUVFG89XdgGWGptQAa2GFu5oIHELrjo9BS1cj828PwOk7Ac/OIffxp6OUTYL32X7DWfF3mgwsBBE9zEf2Nf4Qx+TYJUaT/YTX0VBVin3zu/ABhmPd6ocNCKz6E0PIPXJfMhiJAuMKdWTzdCG+BV78FvPiPgEURmeJWbIFiC4zIFrj9I8jDgL3hv1Tp5GFuWvk4hB/6Sxi1M5F/7h9g7/gZ9JpZiLzrLyU8kPvRH8E98bpoKRQCBOfoRrjHXgPCKRiz3yaAwDmxHdbGx+AeXidlnGOf+MU1AQhGw3LhIuh1c4bZCsM/rAgQht92xSNHYwsUAgTmG58vpekaP1dQCJgMc7LR6bJmvFgK8BRsQbng4HPGnRm3ZuyYpLjiVmyBt0oLeBWTkW96Hc6upy77kcylj0p4gOey1n0bxsxVCK38OJw9z0mpaCEXMmxUwEFgxoKX7pHPqdToHHxBNBjkt+faQKIU8U+9cE0Agl47B6E7Pwqj4dqXiS4ChMsefsUTjKoWKAQIf7wBiFxfwxrEpOn+pRjOhtc2IBGPY/HiJZIz/waA4BfK4eeMLe/duw8LFswXkFDcii3wVmkBt6cZ1itfh7NbrdIvZ9MbbkXkvs9L+Cf33x9G+B1fFH2E3FP/G86e5wdTJ88KMbz6LVhrv+lf1lVqjYOKjUxxfBOAEIrBqJsDvXY6vGw/nKYd8NqPDfsRtHiFABqGS671VgQI17rFi9e7vi1QCBC+sBmIXF9Z0yJJ8foOh+LVR2YL2F3NQlD0dl++B8FzMoj93v9Ar5mJzD/dg8j/+r/QKycj87V74fW1D3IpLkhSPE8TaamxiH3iyfN6EMh3MMkbWPAgXKo/rvl3OHueHXZDO6Ekwqs+gcjiR4Z9juEeWAQIw2254nGjswWKAGF09lvxrm+oFuhvb4a95t8Q3nf5AIEpkuF3/TXM6XfAObkbet0saKEoMv/0ALze5sF2vSSAEC1B6O7PwJz/DlFozP7Ho4OeCK1iIsL3/AkMZkk07UDu8S9ImuVwt34tiejqT6BkaREgDLcNi8cVW2BoLXAZAOHcioln2OvDJ1EVPQhD67biXjdWC+QHetH2zD9B3/4jlEZVefPL2Yz570B45SegJZS0sudYyP7ru+D1tgwLIEhWCTMZPvakZB25LQeRe+Zv4LXuQWjJ+xBa9XF4mW7YW/8H1su+nsIwH6DFGIvYqo+j5uZ7h3mG4R9W9CAMv+3OOlIlB52bQxX8TUkztbunBelKyqjwL/UV/z5jaPiO1d2L2xVugSECBM+japs72Cee37vqf9XTHlUJPfbTuXTCC9/zGwjZnkpF4/nyuTzWr18vOfFLlt7scxDOjAmq4zF1TaSANU04CBTcUUJJioPwZqp2jn/vcka57zObPJEMTb8ynsZJefjA5wr32gVOF/yuzk0BZI6ef8g1/BGxsJKdy8JNpxFOpaCFwpfFwL82bThyr3Lg8a/CXf9NTCxTmg2Xs+mTliFy3xeglarfCctEWy/9s+gfBJteMw+R9/0TNDMMa+03YK39jze/pBGCMW05Ig//9ZnBJqsGD162B/aup2Gv+y94ma5h3/pA3kH3mAWoeNsfoHL6kmGfZ7gHFgHCcFvunOM4xZ8XIAwmRvsc9MG5qxAgKKNTOCHT6Fw+br5CD/dWOs2QAUJO5GoDG+nC8MGc6ifpbRpqFmI7Lzh880YLvA9iq/0xIiTFACDcHACEM+fhfoEOPsVqmppOYc+eXYMkRQU+NJUVpmkgFvU0qP+pmwANrnyuAA3vPcCrPuTxQZFSjxsdAIFP5qoHHfwNnQMQribOoc6AbWOgvRV7f/lz7PnRY6iz8pgzax5S978LiVvvhC5CTHoRLFziPNK840Wc/sU/o6r3MCoS5mXDVc/uG1Rk1MwkICC4YHMdeI5fq0GPQDOGCkw0UNBIn7xcQhdu2xG4TVveeP5LfH5OC/vb0giv+BBmPvj7MMNDvZ9LvNCb7F4ECFeoLd/oQQhcBgVeBN+DoNaLBStDWdAVTnBqVcpXcbvCLTBEgOB6tloJ+F1wFoDzAkCnVuGaeBrO+IEuXGeO1vrs55F9BSBoBR6EKJYSIIilDwR+NDguDSGtuibV/ijhu3Pn61KGlyWD5V49DzqV3JgBEQyzwaEYJFQq8ECYIP/eMMw0QDIoRvr4k2IDBQBBASR5DXoQ3tjmV2xEeR4G2lqw42c/xonN63F61w6Y+RymlaQwg3LMqRJE5ixEZM58JBYtgVk7/opd+kY4UX6gD7t//FX0bvgBplaEURZjWfK3/pOLd9Lz0NSdR3tqCqY89CnULrjrujx4ESBcpWYP5qfC8SzTs+f4y7Y3uCDO+kBWHL75uUq3eGOedogAwQlsT2GQIVhxSz8qyEAvgqv7hpez15mohLJVBUaa+w6Ch0IXgn+NfC6nQgyJOG5essQPF5wBCCzVyxCC5Uvvnjp5EvsO7MPcuXOkWBP1EwzDhAtPlBULJ1PN82A6DrTC8SfudxpQA9BMuJ6CO9zOybAcmWNFzaT+76kQiBf86uR3dHWsipXN4MDzv8Cz/++fwrVUIaGoYQwChKDRjMoqlD74a0jd/+6R2Y4j+K6aNv4Ce3/2z7BaDqOhPIS6kjBM4+r050hoBtcD+nIODrVn0TJgYe57/ggzH/j963ZrRYBwlZo+mLvecHrx6forwTf4EYKpjJMeJ7bREAe+Sg14tU47RIBgw0Gw3qYrnstzccsH9yWfKc/2oOEXTdqCGy8ACFJZrxAgDO52xvMQAIRYPIHFNy8RKx18y/i245CD4GDP3r3Ytm2blPQdSA8gGYth5ozpuGXpMlTX1Ih3QbwPBQhBAIJrQaPIi7gP6B1hCIWub4ZPQoBnDt6/fg1j98Pu6sIfWfC7OpcHpF29UImVSWP3k4/jha98cfARzgsQSsuQesfDKH3P+4b9qDfygcfX/QQHfvFNuB0nUJcAapImwgZ5OKyJMXT+z0hsw8Bb4NAkAGjtt3Cky0ZOC2PCrfdj5js/gnjV9fM8FQHCVRg1hfOWcj4XWA1f2DzAwGoOV0HiwqCDcv2Ohln6KjTg1TzlkACCBxc5ePAJe9JFaiXKwI/qKX3QO0Djq7Y3X9n4mMKPlwe7FwIERVKMUihp6RIJEwThKOEf2BxNkFLFTz31FHbu2gU7n0d5WSnuuvMurFy5UioNsqiO8iCcPX7UXzyj64MDPh89IQxmERwY8pzipB8NQ+9Mg/peBPpOfPDj94muhS/aL8MdbkWAMNyWu/Tjsr1dOPzCf+PYyz9AtqsFsZCG2lQYNakQoibnSgUYRoNvIbAPHKs520P7gIXTvRa6MrbwDMbMvhUzH/goqqbfdOkNdYWPKAKEK9ygvrkfZKafAw/gktzm12kPTIpa7J1Bwvyeg924EQJuV6H93/SUQwQIHtLwyENQjD94HlfZNNj64EsBBsD0HPn0YpsEJWS3Qn7AmfAEK+qRpBiLx7CEIYZCP79HITfu66Gntw+vrl2Hl19+SUr2zpk7B/fedy9mzJiBSDjsg4M3cghczYAjRXiU98CDrZ6G2RgwFFBwFDKQa4/02TYIA4m6JIHBGYDgiOqdBkMP+6DuYr1z6d8XAcKlt9nlHMHUx6MvfQ/H1/4Yma52iFfNyotXLBnRURY1EBoF4Qd6C/pzjgACEoeNUBS6YUIzNNSveBdmPfRJhBMll9NUV+zYIkC4Yk155kQyjXuuz073Jy9/rcY4L+NMhZXcBBz4LmGaHB4vAYYC0HAVbvPGPOVQAYKXVqEghgVonIWYqMPTdLhiVpUBDgDCGdriOeSCwVaWWMTgMWcBSY/cAh15y8KGDRsQj0YFIEhZXX8lLKsOl/BSg+N5OHzoMJ595lls37Edd7/9bXjb2+9GaWmZGHsFNs+27jze4b0ztOCPMcezBYiaGv0Hyo+gCYLg4CMvYYQPkYLfkQRj5NkIElwIQNB0mGSjX6UHORcgsNlCmo6GkiRmlpbB1FU6qlEMMVzRgZTpaUf7vo1It51A55Ht6Gk6ADefl8qmnqPIxSN3UwRj3QyJRYiUVGDMzFuQrJmEsvpZqGxYoG6d5aEZDjQj6nWdtiJAuEINH3DR1OlceC7LrbK2O1doAZFK5SZ4rgZXVj1km3MiVvFimbgl2uDH167SxHaFHnl0nmZIAIG/zZx0i9IoUMxD/s2Yp0uin8C4YPUfGlIKm2+CC9pNAUmVuqjBth0JMcSiUSxderOECgYDEP59OK7KUmA53y1bt+DFX72I++69F3PnzYGuG7LylywG3/NRCFuBLFzHhqaF4GkGLOIfgytspmpS04Ga835GhnH1XPNXbOCc/aO7Yqcd6okEIDz9Uzz35S9KhknWcdFvOUiYiqg4uSSB8kgEkYpKVN7/bpS9+9Ghnrq43yW2gJXuQ/eJg8h0nIRr5y/x6Gu4u6YjnChHqq4B8cqxMELnMf5dJ4CDa4COY8D0O4EpK67hDZ59qSJAuEJNfwaz0rw7gKTJceJX7wXZyuSrQIDM/JzQjZCfI61c14o0RmNEguLVY2BfoccefacZIkCgsZZIgBhUG4ZO45mDa2egebnB/pWVa5gFn4II/5kmOXsBfv7l+BnxIx1W3sGmjZuRSESx8Kb5stIo3AhHBCBI5oGOzs5ONB49gvpJk4SHoHLtA20Dn6Q4eFkPcPrhMT1Di8DTY4CRBIwEPE2lj8mzuLZSedCLAOFig9vO53Bk/Vo8/fd/g/bODgykM8hkc3BsG9FIGNWpJGrLy9AwdRoWPPJeVN6x+mKnLH5fbAGgcQvw4teAoxuAVZ8C7ihmMYzqYUGzz7AB8+HpgNYICLw84OYVOLBpWHLwrDxcKwemq4nSAZW4whHoIYpyhNRLp+tJBzhByyouMBIj3d87SrpwiAAhpzoUmp2DruWh5buQ6W7GQOdxhJCG7uWge3nocGDQwPoyWSr10W8Ln3h6YQqjJ54kQkoe4uTzOH3qFMKRMMaOq32jV4LcFMMAy0Ir6QTlaeImok4MQTA0cNZ25mZsjkEtCtuLQY9WoXTcQiBSBc+IwjM4crkRIFAWKnTVXPNXbKRcZw8Cn4Pen3RvL5r27cHJgwfQevggOpubUTVhAibMmoPxM2ejcvwExJNJ6bviVmyBi7ZAESBctImu+w7KsaymzEFBGclp82mHwcQsAQW6nV0YmgvdtQAnDS8/IHXG7XQP8v3dsLIDsLJp5NMDYgg814MZDiOSSCIcT4iryYilEEqUw4gkoUVT0MJxyU8PyHHK8ij3ceD+DhpKXMoyYZ4dfwv+ClzVo4GcflU7f4gAIS8AwYPu5qAhC6f3BNqObEPLvrVI6P0wkYMBG6ZrIyTM/wIJZsmLDJQKBwMRirVQkAnJvSTU5PPs6f5n6IBhjFAkrE7gCxqpNmHfG3BdV44Th1NAefDLQPuaS+dtQiZB2FoMGScGo2QiGm55D4yK6fCMODyd/AoFWPjcoUsSkL6qPXbhkwex5gJBKbXztQPTEoKixHJG/bbzXZ3w+nqRqqiEUVElKorwJZffTAb7OrVg8bIjsQWKAGEk9srZ90RwkIclU40BHTpZ3jTQEn5WkzP3ERcx+QOuDdPJwE13I9/ZBKunGW5fJ/Ld7bD6OuBZdD1asMSDYIOpcYauwwiHoIdNeGYIRrwMkbJxMFNjEC6tRriiGmaiRFZ4rh6Bp4Whc+oejDEXxsdppIJcSZVUG4ADyZzwJ04S0m7obYgAwRaAQGEheoEysLsOonXn8+jY9lOUal3QZWx4IHwLCbFPh0PjrXvyUuRFDQYjTDS8wrCn6VIER6WfoOowCOwjUdElp5mbUnBkZiXDVQLqPF0yKcgW4HdyPo3eKiXGIAmYui7g4XwmUkW1CGkiSLtxeGUNmPL2j8GoWwZHTw4qQjo+FyY0Ggiy4n1RrSo8EbYH37sqNEegdcW2oGYGvTTCTQEyPV3oa24GFf/aD+xD66H9yJw8gRrPweTaOoTG1SM8YxaMMTXQE0mY5RUwUiUyZ0iPMYQ0KgQnrlgrFk80lBYoAoShtNL13Yc58HnPktW64TEFjC8yyUkS48rPgufk1QTupAUYZNtPoafxIDqP7gT62mE6OYQ9C2FJJ1NmWtLpOTlQElcMgQtHc8Xc2HoYlpaEizj0eBni1XUoa5iOSO1E6MlqIFQKaFHoHmPGJKTJGXw1PH8NK8L7sjZVpkYwjXIfE+CQZX1Db0MECPQIsUyspuXguhk43XvRuf0p5Lb9AKXogA5bhI/Y/xozVtjGkkbIPqYpNhDywtBdQ4y5rdmwhbzKv31wUMAPIEBQryCopNIMNTcPQ8aKCc2jSiIBAgGG7ZMnVYDiokx9UWgmQAgh4yVhlU5B3b1/CIy/A7aeRJjXYNqYZDroktlwBc3rVRpyPsASUBOAZY5z6jnQAF/+Zekd6Go8hmxfL9xcFsjlUBmLwnJs7F77Mjb/5AewMhnxInA7n1CSIAp6E5atgDdnAWDbKImEEYnFoUWiMMsqYFZWFcHC5XfXW+MMRYAwCvqRngESC4W9ZUh6mzLtXLVZcO00dDcDNzcAu70R1qlD6Dy2H/nedgELsDMIGQZMMtF91rsCCD4J0VUTsKSdsSSgv3JzbaIPHa5NiGIgPLYWiUnTEZ80G+HKehiRMmh6HJ6neAsBqXFw1aj5RaPEaCmPAj+R6cvTYJ5boGQUdMUVvcUhAwQqKZJTkh8ECF3bn0J22w9QJgDBV1rUHHi6JTCNhlVV62SzU5kwDiAGrsodw5UjHJugUL3UjipcRJChXvRYsQgUQYYDw8lDd20YnvJiKZ8FAQI9CErIaeimXIfthZFBQgDCuHMBAjMqfKAzOgGC3/aBqNUVQDiUU/7JJ34Xp3duJ+EANZEwlo8di7zj4GBvD/Z29541PM8LEACkbRv7u7txuK8fFZEI5pSXoTquAELq7vtQ9uvvhx4n2bW43fAtUAQIo2AIcK7Jc5Wow9U1OFS100jeYiihH162G3b3afSfOoq+/VuhtzdCz/fLyhKGDseMwosk4IQTcGjI6f5l5TdO7zTSvhtUAAJdo5oDw7UQzmegD/Qhmh1A2M4hbZjojSTgVk9E6dSbUDZ+FsKltdBC5YCZhEspWV93X9zNARu9oICQYAPflNDIXMsY7Yjr6SEDBK7QaS6ZrpqF27VHPAgECBXoHAQI7Df6aCQ5UFza0sOwtSisUDW82FjYRki8RFL8ie6DQSKjzz84wzRUnAMnD2Q6odu9iHh5hF0LhkPvAsGEXzvSDzH4KOOifRokztggQFAehPGDACGFsHgvHDgwxRMyegDCm5e4vtzxR17Bt959L/pbToumQW0sKgDBcl0c7OnBnu6eYQOEseQnAEisuhflv/0RGKnU5d5u8fi3QgsUAcIo6EXOqDYn/gAgcDK3oLtZmPlu2F2n0HvgdfQ1HYbTcgzxfC/CmjiRYTMroawW0drJMCrq4MZK4On0JHDVp1y9KtZAdy7ndoYfbOjWANBxEtnGQzDbGhElCDEN9JsR9IWT0ConoXT8TJSMm47omKlAshq2EVHhhiAwylx939NxdmEAFYoQSd1R4Dy+aiNkWAAhA7drL+hByG39AcoHAQKNqged4lcMNoj6IP0EQJahovIZiE9aCMRT8Jgm6SsO+GWehAw46EgQkECegQcn04P+E68j334YMTeDmJuH6djgKcg/YYhB9a0qR63+fvPlsiJEAgx4ZbUErJKpGH/fp4Hxd8HWCRCcAoBgjhKAcNVGyeCJiwDh6rdx8QrntEARIIyCIcG0cbLF/dUeV4qam4aW74XT3oj0sb3o27cNbk8bwrk+RDTyDGxxM2cjKWDsNJTPvhnRCbPgxivk82Ael4ixr8ynSGGEITYMqxfWiT3o3rkB7om9iGU6QatgmyaymoGsmYKerEF8bANKpt+MyIRZcKLMf1fyui4tgE/OCkyGoicGL7Y70yivgO91FHTheW/xEgCCSvnzPQidPkDY8n0fINDD4MEQIiI9BAZsGnxNjZmMXgatfhnKFq6CE4nDsQbEM6CJ5yjIYPT5IlK+mWEs6mKQa5BFz9FN6DmyFeFMJ2JOGhHHgunraKjn8vUQBwHCm3cIRwB9HQQI9CA49CC844+A8Xf6AMEWsMOwFr1SJsfraO3jK3jfRYBwBRuzeKqhtUARIAytna7nXrIKlDi+0jUIuTkYdg+s9pNo3fIyssf2oSTTiaiTgW7nRUeb+1m6joFoBezx81E1/05EJi1APlYBKyCfMXVOIskqLU7RHPm3jajTB6dxOzq3rUH+xD6Ecz0wvRwMzxICG/fKkoVulsCcvABVi1chXFMPzUzBMKMqRc3PYqeqnvIknAsQih4EvPiPgJUBvrAZiCTPO8wcpqtKiIFZDBbszt3o3vYUMpu/dxZAELe/a8ImQVEnf4ChBA0ZowqYeidKF61Ge3c3uk4cgN7fghDHil/NYTDVhIJZZgiObsKIxlA5cQI8pw9t+7dB72xCLNeNqJtBiFwWX2XrTFKl/+4i1lwcYvBgaWFkvSTssqmY+M7PFAAEehDIQSgChMIBUQQI13MWvkGvXQQII7/jOZlmPE6X5AZkEcr1wG4/jp4je9C6eQ3i2W6M0fMwrQxMnWxqpqjZsHUDfdFK5McvQsWClQhPWog8AQNd0cI1EEcyTGHJa7CE+a6Lezfs9MI9vg1d215Crukg9PwAQl5OXmFhszOPPYx+RNEVrUTpgttQMX0BwlWTYYRLhEwpvghXg0GRJWGiq7oOg/rkQra8gdeGQ/QgiJa/FGHKkYwCp2MPurY9hfSWxxQHwXOEaBjw5/O6Dov6BZ4L09GRNqrgTb4DZTetwumTTWjdvQGh3uNIaEpcSWUscNwA1CcgT8UivyAURs2seUjWTULXqSbkG/ch1HcaUasPYcl14RhiaMLnLwyWkb54iMGWbJkQMkjBKQKEIU1CVjqNb7/3PvSeOnnVOAjJVfei7P0fgZEschCG1Clv9Z2KAGHk9zB56Rk3jxCdsk4G6GhE5/Y16D++H2ZXE+JOBjEvA11SHVVhJa42aewVQFiMsgWrEJ60CHa0XDQTCDZUapwH07VIPZBVI9MbuZo07V44x7ehZ+tLyDfth5FXgjyml0eIRDUhOerIaxH0hkqQK69FctJMVPI6pbWAaCWYcJiWaUYEGqjItgIIYkJu9LzrIQMEeo5oyPPwtBxsAQhPIr1ZAQR6ixQh1IGjO8gaOggSSPaL2AYyeiXs+ttQuXgV2pqOoX/vepQOHJexZMh52ZOKYEcYmufLCJECi3DNJJTMu11SGtu3rwVaDyHl9SHkZgWEBuEFSYlkqKpAfOlCvyzxIGgebE0BBLt0KurpQZjAEENJkYNwgYajnPKaf/gr9Le1yu+nBB5mlVfA0XU0dXfjSEe7Ej7jb9NmEqmHiYkEJpekREodJlOSOTY0nLZdNFsWEpqGiakUyklS1DRE5y1CcuXbJaOhuBVboCi1PArGAN3+WQIEkhIzPcge2Ya2Lb8Cuk4hlu1ExMuJ8WZJYCmWS+a3lxeymgCECYtRNn81IvUL4cTK4TFMIMxzZhG4MOlq5qSih2AbYQk3mM4A7OPb0b3lRbiNOxHPdcKARb1fPwWOSncaHC0MK5zEgBmHW1qNiqX3IzFxLswoyXAsxBOGZ5wBCMJHGAQIN7D3gONuyACBq3QfICAHu3MPOrc9iczm/0Y5unxDrQI6TDfMGCZyuoGw6yJCD4JeCWfSClQtvhMdTYeQ3v0KSvuPIeRkpSgSX6pEtCYx/5xGnglDFSbsVA1KFq5GYsw4dGx/BdbxHUi6PQh5af+6HGWA4QZ0x4v3aQAQCkMM9e/8rNJBMErPAQijJYvh6kwknniPPHiWpeqnSDlPF65lId/Xi1AoBC2RRC6TRqa7C1Y+JwRQO5eFl88jbppIhcNAyIQWZaqrBz0UlmMYSrIH+oRzYlAHgQBCKmdKJTBVvM1QGifF7QZtgdHmQSA6DrZALvR8n53bnSJD6kvAnnv8ULs+UIY793jex/nOf+5+PD4opyz37K/g1X7BcylKn/pLTbpc8dvkHVh9cFqOo3Pz88gc2YaY3Y+oMyDpb7pmqcwEsCKeCZPiSQAGopWwxi9C+by7EJm0EG60XFLmFNuAqWoeDJd6+lRhNAUkcDOdNPIndqJzy0swjm1DSaYFhpYXrQTGt5VDW+XCu0YYeU9HzozBa7gFZbOXIzl+KvRwEi51EvSwpGj6MkoiwCMT1ZVUlxtqJ46k/S4ZIOQYuRcOAgECPQjMYpCCXCoPRYZR1gghp5sCEMK2gQEChCkrULX0DnQ0HcTAzpdQ2ncYppuG6TriRSBo8zwCBMMXyTLFA5UOlSI0dQWqZixErvkweva8hnBvE2LeADSNgFFlPwjI8Me07x9605bm6BShJJIUJcTwWWj0IBijNc3xyg8szhFNm9ajr/kUnExGsjnKolHESUlNp+HalqiemiWl0H0dA7OsHGZ5pZ/G6sJzHGgmM4t0KUE80NmBbFenyDHbA/2wenrgug70aAxmNIpEJIKopCprAhjC9VMQaZgGLaTmheJ2g7XAaAAIkm7Fge5L8xYa+nPBAfeR2vUFW3A8PwoM9LnvL9btNO62zcJHZIf7de79a/G7ACAUXpvveYxM3r70rCluPgUozgAEJR+kQIGqouhrD/qyQg5cqxcYaMPAga3oWvs0YukWRKhXwNiAFOlRzG+bMrjMJGAeuaYhEy6HUzcH5XNvQ6x+Prz4GJWK5liqCqBpykqfqw4JGpCf4DDkkEG2+QA6t62FcWQbyjLN4nymEh/TIR1dEcg80f6n1jPTKg10hKsRm7EEY25eDbOiHrZRDmgqWyEQ5aErmiDBMC6+2rxYv4zq74cIEFRGCDNXWPbZQr5jLzq3PuEDhA4fIDBcpASp8jozGUIIO0DYNtFvVMKauhwVt9yO9lNH0LOQg1ECAAAgAElEQVRrDVK9hxGx+2F6DCSwwqcjypystwGCRPJDPDIeIshVzUHJ/DsRryhBy85X4R7aipTVB80HjBwzBKRkncjYukiqo3oaBRDSXkIAQv39n4U28U44BAiEnx7Tek0JeYwOHYQrPxJZifHpL3wKB198Tlb00XAEM2trMDWegOdYSOfy6KJ2QeUYhFMlMGNxGOXliNWOhxkyEWIBtiDk47rIZ9LoPtmEvrYWWLkccn296G5tRkd/PywzJFUfJ8fjmGAaymPheSh55yMo+/XfFnnm4nYDtsBoAAgEB4Ghlbr0vheBnwcGm//zOxrfwAgH3RkAhOC4QgNfCBgu1P0EALwWX8HGa3HjOVnUJgAmhZ/zfT6fl+P4ni/eGzfxJhhUpFOuYUrpqsp7NPDCP/cnfsaf83CzbcicPoSeHevh7F6HCmRlElUTMr0AtkzQsgLkJE8WuKYhF07BHTMFqWkLEamdDi9WqUIL9BqQoBZLwIsmkbdsYdMbdha6nQPcDKzOE+jbvw1G434kMx0w/TwHehGEKU9VR78uREhKSgPdWhJW1URU3vpORCctghethaZFxWiIEJOAEB8gmDe463KIAEGBT0dKPNNTRIDQseUJpDc9hjKtQ2WVSEYK+59SykoGmeEFww5hIFQFe/pylC29HS2njqFt16uI9TUhIZwSehDy0J0cdJshBwJsFmEK0h7DSMfHw5yyBJVzF6C/rQn9W19GpLMJppuVkAY9GAQaMmpFxOviwI/jOwAIdtkUTHrgs9DrfR0EAQgcv4ZwWEZFLYarYDsEIHz+Uzjwq2fU0kHT0JBMYGFVlWQJteey2N6XRrSkFOFoVOYWPRRCLJFEJJFASSqFqlQJ4gxJZNJwB/rh5XPwuGhxHLi5HDq6OrC3tRWn0hmEDR0zSkvlFWypIkC4Cj07ik45GgBCYKADAx+s0gOjHXgWpFaBb4gLV/LB8YFh5neBIR8KQAiASKEngscH5+X/PCdf/JEKSch15RqBdyH4m/sE3gZT3HbKeyAu3kGAwKmeE75ir3M1n+s8jLY9W9C7dxNSbUdQZdjKyEvuuZLHVYZCZSLwOH5uGRFYyWqYVeOBFMWM4srdzzilbiJWMw6RiiopC8uCTmEnC83OA/w/2wWt8xTC3W2I5PslxZGghICE1+DqTvLlKZtM/oMH9Otx9IRLEZ93O8rm3IZwxTTo4VIhSRFe0YDpbhEgyBRxGQChfcsTGNj4XZ+DUBBiEICgvDss3KQ5IfSHKuHNuA2Vy1ahu7sTnUd2w8x0IsxxIKJHWYTyndA7T8DI9kEXAKgElzQvhIxeAqtiAsbefCcSFdVo3/Qicoe2SjYDk1014aX4GSrnVPA8ayoMNJWo4C0MhjAyXgJ2WQMmPfA56JN8HQT5PSigIxLflyDgPIqm3ove6sUAQnMmjVdb2t5wHvIIWM45EQ5jelkZJicSqj6DzXTZs7fefB57u7txYiBdBAgX7ZEbcIfRBhC4Wu/p6ZFVOY1tIpFAJBIZ9CqQtHOuB4Heh3Q6Lb3LfQsBwrnhiPMNAXoB+Aq8BHxPI89r8ZVhfNA05X0ulxNvB/eN+fKlvGcCBO5D0BBc0whxpV8IEFQeOd27geaBxJftPnQf3ojmHRtgnzyEMZlWlHgkFip3v6zYhEWuCGNKpVBKPUqqY9ZIwA6nYJsxMBeCO3HizRpxlEyZhuTYGrQcOgCn/RSiPC/DD66NsJtFNJ8WmWXdo/gSsxdIhOR1CRC4UlXlhZkqybvPMqvBTMIeNwelc25FSf1NCCVrAEr8qiOVTC/plMUQA4aig3A+D0L75p+j/yyAENRmdIXVLkWOXFYTNNFvlsOZcgtqb70XMEzku1pFKEknsdRRChhebyMy+1+D13oUut0PWzwBBH8h5BHHQKQEZfPvwJjZS9Cz/3X07HwF0b7TiHj9PllR5aioShuFYljn+0XRm0SAQA4CQwxTMOnBP4Zef7sSShoECASV5igBCGe4UeqJL+5FuZi5GS5ACM57oVoMhdctAoSL9cIN/v1oAAjBipygoKOjAz/84Q9RUlIixrayshK33XabGOPAg0ADXFjvvL+/H9u2bcPAwADuuOMOhMNK7W8o3gMOj1OnTuHo0aNIpVKYNGkSjhw5gtbWVsybN0+M/tatWzFu3DjU1tbi9ddfl/PyPcELN94zQcPMmTMFRHAToCBhCh8gDE6rCiCI54BZA54NL9eJ0+t/ho792xEZaEeV1Y2YnRGXo5JfVvFi0RkQRrpagQkQYFqTFoajM0mS0WY+N009Y9MpJKZOR0ndWHTu2wO0nkDYY+iCxzOP3hHtfSFKSuqkpWLNvCdZYdKpzHI+9AgocEK3cMaMoytRh+iUhahddDfC5ZPgmTF1r/7UKcQ2oxhiuByA0Pfad1Ghdam+9lNIhYkg4RwFGLmuH9BTyFTOQPnsWxCJl0CzciA73jMTsFwDOolvMVdIqZl9rwHdjfBIepVQFQFlCBkjArd2DsYufpuAi86d66Cf3IlYnhwIxT+hZLdUlBT/wIU3kVqWlEofIJQXAoTk6AUI/m9O1bS8/LFdBAg3uHEeCY8/GgAC2ylw7588eRJ///d/L6CAq3Ua5A984ANijGm46+rqUFVVJSt+GnQaZh7zwgsvoLe3F5/5zGcQjUZB0ECjT+PNYyZOnIiuri4cP35cDPy0adMQj8dx4MAB7NixA6dPn8acOXPkugQEmzZtwsMPP4zOzk789Kc/xZIlSzB9+nSsW7cOyWQSEyZMQFNTk3QxvQf0esyePRtjxoyRawnAMRWPwfcbnFl3DVbUywlAsPtP4sTT30Dm9FHEnTTK7X6EyBWQUruKC6BMhFLP00ia9CsnqpK5KhTgkKVOg66TbhhCj5ZEYto0lI0bi549O6E3H0dYxHh4U6ZoI5DhTgDiMHQjGgg5GC4FdohJeP/kIaiKfwqUeLDMKNqMMrjVU1C/8j2IjJ0Jz0wpUqMcqUIqBtOobuTtEkMMiqRoCweBHoS+DUGIQfW+qqTIEsz8y4GuKZ2CtBdBD8miqXHQjajEnz2qMxr0DkRhJ8dg3Jw5KE2FRPfCOrIRJj0D5CLYLLcMOGYIXZFalMy5C5VTZqG/aT8yO19AuKdRaWrIWCAooaDT+TwIAWRQRcFVvYgzHoTJDykPgqMnQQUGjg8JlcBEaFSEGMjZCMqaK6/a5W5FgHC5LVg8/rJbYDQAhCBmT0PLlfuPfvQjPPjgg2Lkv/Od7+Dee+8VAEFDTu/A5MmThThI0MC/aajb29vR19eHT3/60/LZ3r17sXbtWgES3I+AgOfYv3+/gIZZs2YJ0CCIOHHihIQRli5dihUrVohH4cUXX8Sdd94pAGXnzp2yP4EBQxn0EvD6hw8flnOXlpbKMbwvAoVbbrkFc+fORSyuvB5nps7AM+lBc8kxyEBzLeSa96HpF/8Bra8NUTeHlJuGYftGmnFacfdrUsFPSIokmjHn2Qyr1EVaDPEyBKmJBvJaCANaDMmGBpTVjEHPvl3QWhsRktQ1nodccrqYXVXLXneh5fug5/oQomKjpGyqIk9q5ai8F6Se2XoIPaEypJM1GL/yPYjV3wREyuFqEX+dK3cLXXQYLn8ivewfwfU6wZABArNkCPwY5rKQb9+Lti1PoG/9d1ChdftufZUe60p9C6nhKB4f6Q+GkxCHpSXE4AoBhWmwmoe8kURfZAzKZi7GpDkLMHBwO/q3PYtorhkhkkptVzgJrhFCl14Be+ws1NxEL5yG9k1PAyf3IOwypEZsyCsp+e432ySLgen8OrMY4hJiaHjXn0CfuAKOcQYgCElxNAEEWcmoAEuhB3O4w4se01/++Wew75dPKvB1DknxQhyE4HqXHWLQdaQeeA/Kfu190GPUUChuN1wLjBaAwB8LAUJzczO++tWvyoqdf9MI33///WKYucrfvXu3rN7pJeB3DQ0N0qc8nt//4R/+oYQXNm7cKN4CGurXXntNgAJX+PQy8BwECwxf0PDTC8EQxYwZMwQg0HPxq1/9CmPHjsW+ffsGvRUEIfQiZLNZASQMezDUwNAGvRMENd/73vfEg3DPPfcgmUxJJsO5JlLiuDQGbhqenUHf3tfQ/tJ3JS2NgYKom/UBAmdlTqK6cA0Ye06bEeQiSaSqxyNcUgHPYAqjmrQVf0wx3DnxWnoEsZqxiJUmkW46DnS1qJQ3xrCNKFzdFFEW5TGwkOs4hXxrE8K5fkRc1mRQ5aIZjlDiR1wXWnI/6VAZ+qMVKF92L1LzVkKLVcPVotA8ggIaFAKEYi2GoYUYzgMQNj+BXgEIPYMAgT1Abgn7WkFG8kWUF0E8Cx619UhgVFwQVjvIGXF06xUwx89H/ZK7oKd70LXlGWjNe6V6I4mpzElluKEPCXRHx6By0SpUNkxD285XkD24VXgqpozXnAIIQ6jFwDHp6GGkvZgAhCnv+jz0+hWwDYYYlBiXZMqMGg7ClTcdnIP2PPk49j/3NE5u3wI7PYCGRHwwi+FKAIQ+y8Lerm40DgycISlWVMKsGoNww3TE77wbsUVLoJtFHYQr38Oj4IyjBSAEGQNczX/5y18WY80QQnV1NaZOnYqDBw+iu7tbPAA06jTuv/zlL8UzwO+5cucqngCBG0ME9EbcdNNNWLNmjXxXX18vxp1hBXIEeO5ly5bJ/uvXrxewwRBDADDoPSCw4PXa2toELBCs8D4Y1iBA4DnpueB5GZL45je/KWEGgoVINAZNp6aCGigUqlHhBgce087cNNx8P5o3PgtryxOIeVnFA6CiIlMn5ShlFGydEqomes0o7JIxGDtjHmLl1bBsLmkc6DToUoGPR5lwtRA83YROImU4BK+/B3q6V8n20rUciokmPzMlqIsQipoYYA79od0I93ch5rEegy+gLGmLBAdcbTqwXQ+5cCl6zVKE56zAmOUPwEiNgwfWnCdnQQns6L4+wij4mVydW7wcD8ImBRDKBSAEslo+V0SEi5Qj35PKnqz06EF3FXmRGQq2z1PIGxEMaCm4ZQ0YM/dWlFSNQfe+Lejf8xpiVhciGrku5KGYyHlhdBtJRGfcgur5SzHQekKqfYZ6WhChYBelm4e4enZIsBWAEIdTXggQEggT3DC0JlkMo4WkeHWGCAs0dTUexfEN69CyeweSLacwo7IKKCnB6Z5evLTmxQteeCgehHw4gtOpMpxiKmR/H+pLSzF9xixE5sxHdNZ8mGNroUfo+StuN2QLjAaAQHAQpAvS8P7nf/4nVq1aJSEAGmF6ArjC59/bt28Xo0yjTd4BjTn3Zajg0KFDePTRR4Vb0NjYiGPHjsm+BARc8fNzAgt+Ry9BwE1gKIMhiQULFkhYgWEDgoG//du/FW/AI488Itcl6Pjd3/1dARs8B89HEBPoJxAgfP3rXxfg8dBDDyEaTyjXrD/yuLKTlTiNNDkGXhpOthdHfvUTxA+tQdTLikyycAFIRhQBHRoFQyo35jUTvXoUbtlY1M1ZBD1agq62Dmh2DiZldamVIHr55AJQM8KAa1BSV5cqkEaeEzzTI03kQ1FY1GwgQDBCKB1fh3zXaXTu3YZwbxsSbl7CDKq2gp9mSYaD7sF2XOTNJHrMFPKTFmLC6t9AuGySAgiszcCqhEx31DnxFEMMF6vmKAqZZ4UY9qF10899DwJBXSCy5cHTWdBLgyFggIJWyrMTdugJ4qqdQJLjJSwG2DIMSTd0QuWITZiN6rmLke7uQcvGlxHqPYm414WQnoHJceMaEpay6maifNEKRFLlaNu6Fs7xXYg7vTDstJ/TosIdPux947zK+2IqsME0x5gCCI/4HgS9CBDOZ4gordx5/AispkaU0t2fSODE/r148st/flkAQR9bC/Oue2A3TBPpZiopVkyYCHNMDbRI5IqESm5Iw/pWeejRAhACFUOuxrds2SJxfBpfGnJyDHbt2iVxf76ClTuNOFfzq1evFjDAFf/48eMFSJSVlUm4gh4A7k+jzzBAIMREQELuAMEBvQ+MKdJrwUwEGn4Ciscee0zOx7ADPRgkSa5cuVK+I4+B12BYg5wHnoveCnIXSFBctGgRIn7mhfgNSCoUbhdj+Q48Ow3D7YeT6cXup76LqpObEWO9BfoLdIIDW8iIVCRkRgG19+lByOgxaGXVGDNlNmzPwMkjR2BYA4i4OUQckgyZ/qic0GRay2rS51wTQEhVPxjIhCLIUMiIZLFICWrmLQLyfWjfuw2xvjYkyENgDn1wNpHrpdFnVMKTIk59oRS6xs7A1Ps+gEjVFLiI+SEGAgSSFIsA4ZJCDExBBTkIBAhPoOfV/0KFRoAQCHhRqIjATYPhhMRFn6d4GAW4KansOuJpYkZCNlIBs2oi9EgY2fYWOP1pmCWVGHPznTDKanFy80ZkG3cgabcgrg3AcAgjTOQ9E53U1Zi6GLWL7kT/kb3off1FRPqbxcNFgFtIQSgQRj8zZQpAcOEZyoPgEiC8+09UiEEAgiprLtJL1HO4IpS/azRj+3omV4Kk+GZ37DoOWvbsxCv/569xaufrcKz8G3a/mAeB9RhiC5cgde9DiM6ed40aqHiZUdUCIwkgOI7jMe52Pm2CQKyIjUuQQEJgoSgRjTsNOQ0xjTuzC0gepBeAhpkufoYBCCBo4MvLy+U9uQs8hgCBx5OMyPeBKiOvRXDCz3gcdRT4XZBySePPeyFQIdjge+7PF3kQBArcnyCEx/N8/JvvVXEdph0acEkwtFXSoLDMPara9cHtacWeJ76F6radSNKAk08RogQuQwZMQ2SIQUcuFBb9/bQeg1E6BtVTp8PJOzixa7cCB14OUTuLmJMnTU2JJTEXna5eGnZDHNE+ycpA1gwhbVI70cBAogrjb14B5NI4vXsrEj3tKMlnVFVHX/KGe1ILQZ6HZswzMWDE0Vk1FQ33vR+R6unw9KRkRziMi2seQucJMQT1KlTI5Yx5GYpexaj64fFmzxNiCOp9BM8rKb5SjptrcvIJsrDa9qB1I0MMrMXQTZg3WL/D1fNS7ChsE/xFkKEwFoCQeJ1s5D0N/XoCuTEzUXHTaiQrKtG5ewv69m+VUt6lc5egZPYytDU2omPXesT6jiPl9sBwcggxI8Yz0K0nkK9swIS73gPPttC69Tm4p/ah1ElL6IuhDRXeUCEwklhV9opSSiI50hGSpJJa9qqmY+q7/hD6pDtEapn+LdH4YFqspvuJtKOgd6XCqao4QkLhVd08D7n+PrTu241j61/B0fWvoPPI4bOAwoUAAis1hidPQfSmZYjOno/whHroxfLOV7W7Ru3JRxJAyOVyXqBlcKEGvViBJk6wNPLkItDNz8wDxvwLBYqG2lmFNR+CY86t/TDUcwUGL6jDwPnDtfPI5W0cPXESfXkLUyZMRAn11EUsiav5LtitR3H4yW+isucASi26iVlfARgwFQch7OrIeTryiRJk/cwEraQSddOnQc/bOLl7N0yHqgcWInYG8eyACB/5FZN8tntO5m5Lj4q7mbUZ8qEYsqEIBqiXEK9E/ZLl8PIZNO15HYnebpRaquyzCO44aURcBRg4qTN9kXyKtBZBZ+VUjH/b+xAbNwtaKCV1IvJiJICIetKzNoK2ACQGCpXnq69xKe0+Yvdd/y1oL35NJK69z28GIgkBlvSI7dmzRwAmPU0pluuVOp2UXE7D6diDtk1PonvdYyjXulS2ghRaMqXcc9jNI0aQqsWQ0ZMSVjBY8dPNiweg36yANvVWjF/5LsRKKtBzeA9aXnsGVvMhRKprUbnkdmjxFFp2b4Vz7HWkMs0IeRm/MJMOy40hE65C2ZJ7kJg0Bd2Ne9GzdxMS3acRpz6HlJ9mqErpMMCjyRez7wMEfp6D45oYQBJe5VRMe89nYExcAS1UdtaYUJoCo2crlHO/FndNhcRsbzdO79qBtn27cWTtSzi1c7t4/s4FCFo0hlDDVMTmLkJ0znyEJ0+FJmHO0dTC16JVi9cYbIGRBBAymYxXWK/gUrspEFTiap6hBRoYhhMC+eWhCiNd6nWHt78Hz7XR1d2LXz7/EnYcOIw7b1mGaRMnYnxtHSJxE7DbkT+5D0ef+haq0keQslR8ORMC0qZKEzS0CPKxBIzxDWLgWVxHSyRQXlcLzfHQ03QKYChAc2HmBqC1noLT3QJdOASWMMaZBMeVXVZPiOqiFi+DUTUOTjyFnKchG05iDCcTJ4+O042I5NKIWhZ0Kwurpwtedxui+V6EHYZAeF8MXmhII4y2ssmoXf0+lEyarwACwYd4MDSEhXF/9sa+K5SpDlQvA2ns4bX1CD3qHA+CF06IZ4rpuiSzksvyjne8AytX3YUxY8YimaDyYT/cjt1o2/Q0utY+hgqN1RyZzshAQkg4B9SqiDgWHC2KrMaKmiSRsr6GjbwRRz4xDokFqzHmptuhsyR3ug/NW19G2871pIigcu4SVM9eiJ7TJ9C9fQ3CbQcQ0aiPwboNzE+MYsArgTtxLmqW3yF8krYdG4GjuxDPdPs1O+jVoD4CvQcKIEhKrCKsSKGnvGsirSmp5em/+QUYtcthhM7UARihvTZib8tKD+DUju04tuEVNG3bhJ4D+zA1HsPMmlpEps9CdNHNCE+ZgXD9ZBhFj8GI7ccRdWMjCSDQg0AXPF/D3QoRfEAOPFdZcbjnvtLHcUrv6unDCy+vxbot2zCpphbTJkzAssWL0TBzMkriOaSP78bxp/4TY3JHkbSVqmHO9GAJ6jdhh+LA2HEoW7AMtm3CztlA2ICZiJG9CCfN9boOg59ZGWQP70PP8X0IuRlE7BxlcmB6Kn45oMcxYJYiNGYCUtMWwIsmYOUy8MwwwrGEaDJYjtJmCBkadJaPbTqB7PGjiKU7ESVA8Jj+6MLQdAwgguZUPWpW/ybKGxZBj6SkUmAhQDh3fcgwDTeCOfZfAPYYQnqrrXTGHHwSNXt/KIWSdt7/LbihuDwjs2uoFvqLX/xCvF8PP/IQbl1+G1bcdhtM3YLTsQttm55C19rvoYLlniXLQAEE1rowXCpesppnGHmNmSN0GNmqfLORgFE3C1U3rQJSlbCzWZRVVqDz+CE0bvwVrP5OlE6chvE3rRD9i+bNz8M5sgVRLSeeCmoeECBkvRR6EtWoWbEaZRPr0XVoP3q2voJo72lEpKgXxwFTLZWgFu9tUCGBngUvB1ePII0E8qWTkLzrtxGtX4mauoa3XD9f6Xnjzc5Hj0Kmuwtth/aj+9ABJHJZVHPB0TAVoYkNReLhteyMt8K1RhpA4KqJr8BIDLeNg/LMhZLKIy2OzTrs6ayF9Zu3Ycuu3QjZNioTKaxccRtWrF6B2moDfUd2ovGp76DGbhL9AzIOHIOEQAPQwugOJeCOm4yahcvReaoTAycaEdZz8EzKGlPzIAJLCyFZUYGq0iSsU0fQdXgHws6A1F0wXa44SVP0MKAn0BsphzluOlLTFqGnuwd9p45JISZW1KNSnG14sAygbHydGJaBxiZYhw8h1t8uIQyNK1UrB4N8CC2GU8mJqF75G6icthhGuETU+yQzX9MQklXl2e7NgGsSZK1Ql4J6FiSAvtUAwszO9ZjX8aJ4cn407fOwjah4uwiKKOL1s5/9TDgsC29agAcfeBCf/PgnkUwYsNp3oG3jU+h8xQcIUNVERRZZYuCqUJcoaDKMI6rbGjJGFAPRCpTOXoaq2Utw6tABpLs7MHHWHBjROE7s3IS+4/sRiSQxZuZiVEyqR9fh7eh9/SUYmR6EyWPxctBckhVj6DaTSM1eiur5y4Q/07T+OWinqJ+gdBEY1lKkV3oRSD3k//QeECBYorXR7yZQ9chXgNpZCJVOQGlZ5Vuun4c7h13WcdSZsC2p2GgyndqvIntZ5ywefOO1wEgCCPl83iOZMCisdDm9EYQbCis9jjQDQyPYl87gqWdfwMvrX0NdWRnmTp2GlXfcjolTJyIW6kX34R1ofu6HqMo0IuxlxDUL3ULI0eF4EbRHSuBMmIzaeUvRsv8YBvbsRErrg25QyjYiQjj9bgRlteNRWzcWXkcj+o7sQMjpV6WWPCDk8H8PA2YcnZFyGONmCEBob2pE76EdiDsZRKmm5wA5XUO/aaBq9izUTKwXgGAfPiiZDRFmXmgW3AAg6HEBCGPu/HVUTVsCI1IqxYLoeCZAID/9XIAQAINAPZOAgeRRAoWR1n+XMz55bNmex1Gx47+lzPKRX//hWR6E7373u/if//kfydT5yEc/jOW33Iply5bC0POw23eh5bUn0f3K985wEEiMc8n39yS90TKUOgL7lwCBCov9LNhVOQHVS+5CvKoGh156Bv2draiZPgu1cxaip6sdzds3wOrsRum4qaibvwhw+tG6+XnkTx1F3M0LSGV82/J0yZjxqqehasEKlNZPw8ltr6J/z3pE8t2IeFlEKOglqbiKH0EKrv8XXNCjQQ9CCtO+uBlmsvJym7N4fLEFii1wpVtgJAEEZjFc6VX++YiGV7oNh3s+qdHQN4B1mzbjyIkmLJo5E5NqazGuthaeyVhvO7In9qPxl99HafdRxJCBobGSZBqGwxoMMXTFymGPm4Da+UvQsfcw3AO7UYJece9alLI1U+jXU0iOHY+qmrGwOk9g4NjriFh9lFdi8AGmlFDw0G8m0BUpg1k3FaVT56P35FFkDm9H0uoXiSOKHGU0Ez16GGUzZqNywkSkT55C/ugBRPtbEXEHhFHP7ArumzbiaC6Zgrq7fxMl9fOhmUnR93co4UvpnfNkMRSSQC+U0TLc9h5xx12Ag0Bdjscff1wyce6443bcetutKC0pg8lMEzcDu2MXmtc/ge5130cFKLXMEIMO3TUlM4apqxYVlUUhmymDBixKKserkJo6D1WzFyDd2Y4T655HLtMPs7wKE5csR0lNHU5s24y2fXsRi5dgzIw5qGqYhJ5DO9C5cyNiAz1gPVCQYMh/Wgy58FhEJ85B5aLlsPJpnH7teTjtxxF1M0g4aUbQAbEAACAASURBVIRJWJS7Yr6LEmGW4l8s8KRF0e/FMeNLW4oAYcQNzgvfEFMs5bfJFNoiwXEU9dwwbnUkAQTJcbyBNtu2kM3baO/pg6MBNeXliHgsg0zZZIYROuG0HcPeH38b5T3HkPKYapaD7Q0AXhiWFkdXtBxu3XhMmLsAnfsPwzq4B0mdeesWLE1Hn5lEJlKFRPUEVNTUItt1En3HXkc81y0rPFM3RATHcTX0mgwxlCFc24DKyTPQd/IwMke2I5nvQ5zEMlbf0yPo0WMomToXFeMnYqD5NNJH9iGaaUHEpVeCYky+loKRQHPpFEy+74OI1s0EjDh0qQKpPAhGUUnxrHLPJCmSg0FgQI0Oeg8o5GWYutLIoBKmlx0ECF2vfF9qMaiaC2cAAkWzLCp00iS7FFQOIRupRL5yEmoW3IxYWTlOv74BfQdeB8NcuVAEY+YuRP2i5Wg5egwnNm+AlssgVTMBE2/5/9l7D+g6zutc9JtyOnolQADsXSxiJ0VS3eqOLevKcrdj37dWynKuE7/4vjh3JVm5L15xVnRtJ+86Tpwb27FjVcu2SlQpipTYe+8ECaKDaAc4dcpb357zg4cQKUESC0DOsSEQ58z888+eObO//9vf3nsNnGQf2je9CaOzWUIMuj4IJtrCDSHtFsEuHo+iectQOnM2GjevRe+xPYhmB1HsDErvEIam2CyMKYuqRgIzHAgQ4nYEM//aBwh87P3sn3+IQM0cPHr/qqva6bS7vQlbN27A4dMd8vQNFJRj/uwpcAa6sPPgSXmPt96aNatQFHKx4Z3N6OxLY/HKW7Fs8XwURoI30FP7BjtVHyBcqwvuwspmpMMi6VrX0BBizrdly0PUCXAN3ge7+yy2/fz/Q12qFcV2CqabQkbLwAkVwwqUoC9cDqOmDrVTp6L7VCMSp44iqiWhpQcFdKSjpUiGqxCtbEBJdQ0SfR2In9mH2GCH6AYoZmNKom2EkIxVIREpR7iqDqW1dP6nkDh7GAXpXpipAUAPwQoXS5vogomzUVJbh8GODsQbDyGUaEYg3YtgLt2RojTWQWgKN2DmJ38PkRoChIhkN1BI5+WK+70Y8gslUaTINEfvgcw4vSu1PnS2UxSAwP+kJMRABqF7PQEC0xwtr0Kl6FLYLMvwqmOyvoXrIK0FMRCtRWTqQtTeNA+p/h6cffsVBHrbpC9DUtMQmzAVE5bdjlTKxuntG5FsP4tAtAgTV96JWGkZ2ne8A+vUIQQyfWByoq6xq6eJjBNFKlyK4OQ5GH/rx9B6ZD/a9mxFcOAcSqx+RJ2k17Jcuorq0rdD1UJw9Qj67QgKl38B9bd+ClrVNNh6GORByGjxfyzgTVB5vSfiWYl2fOWrf4hsoATf/MvvYNGkCjSfOiY2a+/sxLRZ89F/rhlZN4gpk+qRTQ3i0KHDkpY8Y9ZMJOJ9krklDj4Ywbjx4xA/14amli7U109AaVEUA/29SKYz6O3tR7SkAhPGV8v2Z4/tw4svPI+4WYYFs6bCCMVQXaBh01uv4ewAsGL5CunjUhkFtu0+hLQZQ7GRwsnmOO568CEsWzhbOn76r+vQAj5AuFYX1YWdTcO2Xa9inGkgzFU147sZC27YgIE4nN4WvP1/Hsdkuw0VdhaGlcZg0IDeMBPhmplwiiZAKypFuKwEmf5u2H1dsAe70XV4HzTDReWsuXAK62DEqmEWlCKT6Yfd2wS95SiyBzfBjZ+DZQRhVtYjNG0JtJJ6GNEiBKIFsAbOwRnogHbuNPqO74cWjKFg4kygqBZmaR0ChaWwUglYfc2wWw8iefogAn3NUhPBdUz0OiGcCtRiwWPfQLRmJjQ97LWohlf5jwWi/FLLP5A6CPh/toMMgmprTvsogEARgccg5ADCuQNo2/g8zq37pQAErykTbUknTOrea8PNyoksSsTCSKnqmahb8TEUFBWiff829O/ZgIJsEpYGZAwdKKlE8ZzlKJ00Ex3HD6Jl92Y4aQtV0xdj/M3Lke5uQ+e2N4GuRkS0tABVKh4ytoFBswBWSQ3G33o/EC5Ay97tSDQeRkmqC1E7LlURpeCzCCl1T6rIMJMWQdwOwymfitmf/RPok5bDMgoRJEBwvKJD3MdgQ7Br9TW9Ssd99cl/wMv7Ezizcz1+57/+AT738Xvxo7/6JvqKGlBTCBxv7kVVRTXi51qw5N4v4cTaXyARLkBEd5AunY5Vc2qlUuz+g0dQWj0RN89uwL59e1BeUYlkfBDjJ81GcLAJh9sGUFAQBgIxPPbZz6E8YuDs0X149ukncKQtgdrqclTU1GLxrAbs3vIO9p3uxoyZMxErrcVNk6uxc9N6HDzZgkg4hIr6mbj//nsxfVLNu9KVr5LZ/MNcaQv4AOFKW/hS47uw00lYrDynB+GYJgyXeeYaspYFLRKE48RhDHRg2y//AZXdh1HjOiIo7AmHYc5fiZIZKxAonQHHjMIi48AGSlYSic4mnN74JtiAbcryldBLJsA1y5ANxGAji0C2G9aJnRh85zfInmtGJhhBYMJslC66D+HKqTIfyXGzWR8hBav5EJq3rQXCUVTNX4Zw5TQ4wXLYgbBkVZhWD1Ind6Jnz0YY7QcRZa6+raPHCqK9dDrmPPwHiFRNhaaHhEHgo19aEosju4FfF9EgsFBUflxXandQachHsDTbIoNwEG0bf4uuPIDAz6V0tk4JKHsxmJJ9QgfbFyqBNm0FJq2+F4muNnRsexNG036pqkmAYBk6ksFCGPWzUbf8dmRT/Wjc8AqSnd2Ilk7EhFvuQbS8GM3vPI/M8V2IOmkE3KxUZ2R1hATTY41ClN58K2rmL0fPmZNo270Rhb1nEUp150IgOYAghZM8VYJrRBC3wnArbmyA0NO4D3/+19+BFW1A/OxehOvm4weP/0/8v198AONueQgP3r4Q/+2//x3+8M/+B7Y++T3Urv5DDO79D+w81QkrayNYvRB/+ceP4NWnf4K397fiC1/9Cg7u24XTHWk89uBqvPj8S+jtSeDmGeXoDddiUlkUO3cfxJf/+E8xoSggAOH5F1/EYKgSS+ZMRbSgEFUxF6/95wtoimtYufIWRApKUF1RhL6uNvT2xnH21HEcPd2CVfd9EreuWILC4PCKJjfw9/p6OvWxABCUop2/GZ/PL0erqNj8a3KxgkjDtxtesVHJH9TY3gqXnRa1oZK/+YJHJaDLnxv3ochyZEJLZgVkGZ4VGtWmql+aNQFZFkQKmXAoRswOoGnLS+h66xdoMA1EHKA/EEJw0RqUzl0No2wmHD0KW2NlxSwMJyH08Kk3XxOAMHXNaujlE2FrRchqYbi6g4DbLwAh/tYzyHY2IxUqRGDiTahYfC8i1VPgEiCIw+FKP4tM0340bnkFiEQw/uYViNXMgkXA4QZgaDYCTi9SJ7ejb8dbMFv2IpAdQEKPoT0bQtGij6Hulk/AKKiS7o3i6zySGRobN9zIr0uIFNV9xN82+20oO0k4KAG76zBaNz6PTgIE9HkOWJh7T/7HeD9Yd8BlaqMBq6wWpTffjqLxk9G+fxdSh7ehuK9FWodbOpBmzQojhmRxA2qW34rScRU4u20DBo4fA5wgyuffgpp5N6P7yA707FmPADNWyGYxY4WCSD0gnR4zVVMx4baPIxSNoHnvNiSObUdBvBURJwOHYSyZl5eGKaWIKVJ0yCBMwuzPfQvGpBWwjCiC0rDMzrWlZjEwBh3G1suT4Y5s1utefg4/+JdnsHz5Qpiahb27duITv//n2PyP/zfmPvh5PPrwHfjUY3+KH/z0n/Hrv/06IvO/il2v/W9Ujh+PsJXE4e4y/N5nl+En//ZzhMsn4O47bsH23YfQ2T2Ah+5eivUbtsLOAktmsq33XIwPG3j1jfX4/Df+FBOLPYDw2xeeR79ZikWzPCBfFdOwZdNaaCUN+PSnH4Op62g7uRdr39kOI1KCQjOLtW9txNJ7PolP3H83in2AMLZu0JHOdiwABNXqWT04mQrJtDeWoqWQSzl3psSphyn34WpMxXTZ+yC/zj+LMbW3tw91WmRPBXZyZCOl/CI9BCQ8Dsfl+Gp1l18GWKVUcn6BQEBAzPu/pDNT7v9cT3kumVyy6sqsucxYyGKgaS/2/eI7qNUdFFKzboZgzl+B8ptvBSpmiJqcMVsyCLozgGRHC06vXQvdBCbfxm3qwT1ZE0HTqSePI9u4C/3rnkGq7SySoWKEJ9yEqiV3IVIzBY4Rkvx5qaBvZ5A4sw+N216T1tB185ciOn4mbLMCtm16FRrRg9SJrRjY8RYCZ/cDVhIdehFa3ULMvv/zKJ+1DAgWSJycDMlQMx9jZA/Q97flGN3iIr0YhpfqFQDq8S1C1dtSSfGIrOY71z2ZAwhe8yuCS68fBgWsIaQ0E4OhGMINU1G3eDUG+wbQvmsLAm0nUZ7uganZSOusoGkgYRajPzoOtctWo3JCA1p2bET88D4gmURk0k2oWbIGujWI1h3rYZ89IjUvdB6Qfp5lnl0dveEKVN3yAMZNn41zbWdwYvOrKOw8hYIseQavJoOuZaBRv8COoi6zGIKwyyfips//WQ4gRKS6p+ZQt0BhYwC6qBLGwEu+zp5NZIExwllv3fAKdpzow/23L0cgYGLn2y/jXHAyws1bUX/zLVi2ZDa+/49P4cu/9xVs/c3PEKhfg/0bf4NoYQyhgIn+TBRz54zHti07ECkoREVZKSKFpThx9DAKYmGYoRimTJuJcKYLZnk9ik0d+w4cxqp7H0RF1EB3WxO2bN6IM539iEXCIiae0jAOyf4OBIqqvBb3ZIr6O7Dl7Y041tgCPWTCNaNYvuIWzJo6Cezr5r+uQwuMJYCgVutUeG/dulWqzLGro3LIBAR00NyOjZnYSZEAgZ8vWLBA3lcMAds/r1+/XkAC36uvr5emTtOnT5fui+ziyG3470mTJkmTJgUwFGBRJZzVmKpEMIVlI0v/8cR6Q08UPmBUHpg8aGw4joVszyls++lfo2CgF5WhEPRAGMbshShfeCtQSYAQg+565XQNdxDJjmacfv0NEbdNvp0AoU4AArsfaDpbO8WRadyF3nVPItV6FqlQCUITbsK4pXchXDMFtsGiNgHplECAkGzch9M71sKMRFA7dxGidTNgB8rhMO+elfsIEE5uRd/2dQg2HZRQyYl0EL2Raix6+KsonjAHrsnOjToMx2sIJec8Ehx1HX7nhk7pIgDhYqdL6YHcFvkA4e0XBCCUamQQ0hLTl5oW0q+BK/oQBs0QUkUVKJs9H+PmLMDZ3bvQf2QfCuOdKMnGBSCkNAcpI4BEqBzJ0gmoX74GsZJCCVGlG48gkEkBZXUonbdcgMO5o/vQv28zzMFz0IVhYholj62hXy9EZPYK1C1cDjdoYPdbrwBnjiCaSUk6Le+nMJjpwg4fBmw3ggFWfyybiJu+QICwEpZBgJCFxkJKLNGsBccGQJB7Ovfl/YBoZqC/B0lLR0WptziJ93VjMKMh6KYQjBYiFgujvb0HFVUVGOztghYsRDLe47FLkmpoIhQJIpVgdglZTAOhcASJwbg8s4KhMAoKiuBQ62IGhalMJFMoLC6GqWsilh6Ix5HKVTGFZiAS9sKHmhFAYUFB7rZ0MNjfj/74oFx5jltcVIRQkPVM/Nd1aYGxABCUY1fVEbdv3y4AgWDgrrvukg6KBA1MCTt9+rRUnzt06JA0vJk3b56wDdyGnR3vvvtu6aRIFoIlbSns4bhz584VFTD/5vEIFvg39yNIGBwcRHV1tTSB4n6zZs2S91nhj2WAyTLcc889GDdunLANHwogeN2ecy+vwo3LkrnJTmz5j79H/9H9qC8qQhFXDlPnoHzBShjVM2Dr5BVMKadLBiHR3ogzb6yFGTIx6dY10Mtr4SIqqZGawVS5OFKNu9G34Smk25uQCpYgWD8L1UvuRHj8NDhGBI48mL1yyhQfNm5+HWYohPr5ixCunQQnVA5HD8gcmW0x2LgTnds3INB0VDr6He51oY+ficWPfg3R8nrpweADhGGPkI8KEN58CqV6DiDkWiGxHBEcAwkriHRBOTI1E9GwZAUCkSiOvfoi9J42FFkDkobIklU2C1+xNXdBNaIzl6B+/mLECTDfeRWBvg7EXBtJ9tComYzJq+9AJBTC2XWvIHlyP4JMt9WZQQGYDnMpgkiX1qH8pqWomDMPHZ0d6D11AmYm66W+DvTBbjmAULZT4KdNuJBjEOZ+4dt5DAIBgpUDCGOIQbguPYR/Uje0BcYSQKDjpqN+6aWXhBkgEKiqqsK0adMEENx55514/fXXhT3gdk1NTUMAoa6uTiry3XHHHZgxY4Y4cHZ93LJli+Se19TUCDggC8H3GWogOOBvAgCyAgQBBCKqrTMrPrIk7qJFi+S9Bx54ADNnzpRtR/YaxiDk7eTpHUTHDSfbj+PrnsWh9a+h0Epjan0NwpOmoHL+UugVk+AaHjsA1r63B5BsO4Xmt9bBDAXRsOoW6BW1krMOx2TlHJKFSJ/Zg/g7v0KKAMEsRLhhFiqX3I5Q7VShDlnGWYRx7IfQeAiNG1+HGQ6ibv4ihMY1AJESKZssvDbi6G/cg7Yd78BoaYKVzOJMKoi6xbdh6ur7YRZVw9VNoaJ1puLJQkvzevfcyK+PBBBeRKcABNZBkP6Y3urRtT2AYIdhl49HcMbNqJkzD73Np9H89usotAYQZltmiymzDjTdRL8ewiBrJKy8G4WVNWjetQk9+zejgEDCJcsQlJbfDbffj9qZC9D09jp07XgL4WwHNN1rFBWwdAT0AOJGAcy66ahZtgbRyVOlF4hmOdCCQWQ6zqL99SfhdBxB0HElNBZ3ySBMwFwyCJPJIERzDAIBgiEtocdMiOFGvpf9c78+LTAWAAJX+IrGJyh4/PHHxcGzZj1X8ex419zcjNtuu00a3JAxiEQi4swbGhokxLB69WrpksewxJIlS2R/gggCBI4di8Wwf/9+aa9LZ3/48GEBC8eOHcPkyZOxYsUKYQ8IOpQegWEHtuZ9+OGH5fecOXOGmAUlaHzv9q/vDxAkqmmnMdB6BIffWYvmvVsxuTyK0qpyxGproRdVwtXDIkpjGpxmJ+HEu9B/9CiMgInS6dORjRV5hRVsXUSKLNdsnzsN6/hWWdVZZgxm+XiE62fCLaqAzXCACMM0aKyadq4FvacOQzMDKB5fD7OkHLYRBnTSmy40J4FsTyv6W84g1TOIs63dsoqctvJuFNXNhMsmTZKqxhQ30iT8rw8QMFKAIGEDqhBs2FYczrljOLvhRXS8+STKtT65nl7VAApqhfxFSiuEVTUBE+54EK4ZQOPbr0E/cwgxJ+EBCteRAlm8b1hMS5++AHW33I3+9g40b3odwZ7TiLlJmHaGeSoYDBQiOG0xJqy6D1ZvD1q3rYXbth+GxTRGho40BFwg6QaRipUj1DAVgfrJsAMhwIxgwpwFiMDBsaf/GZnG3YhYaWGVBtwA7LIJmPf5b8OYcksuxJDJMQgECGSyrv80x+vTu/hnNeYtMBYAgsoNpyMnpf/LX/5SVvx05I2Njbj11ltl1U8QwBK1dOxc+VODMHHiRNEPcBuGJvj+smXLBCCQAdi8ebOwEQw77Nu3T4AAj7N7924JQxB4MDRBUMGmQWQnFLtAZoGA4VOf+pToFchkEEwQtBBEkElQwsaLCxdVPOHdQUsPYHjyNNe1YCV70HZkLw68+SKMc6cwcVwxzKABLUS9AB+ghld3387AyKbgxgehsZpecRHSBgVhrL2rS6xa0yyYqT4EBzpg2pb0bLCDhbAjJciYIaGdWdiG/RmYS29mErCT/VL9UA8XAEH2gGQYhY9uF7qThZbNIJvJ4mxPGk29aSz/xGcxYf5y6EXVsPWgpDQSFnhpjhQqMn3vAwZrx/y37cOFGGzS84zzaxZcexBW51E0bXgB7W88gTK933P47JVB2+pMJwwhaZQgOmUeJt5+Hzqbm9D05gsojbcg4qbA2oqstkihoGUHkIyUomzJGlTMW4zmvXvQufVNFGa6pO8CG0kR3CWZkljYgPpVD6K0pgYdB7cifmADzHinV4FB7j0bllTbjCAdKUAyEkNCD8AKF2HNJz+H8tJyHHjyx0ie2IlCa1Dun0G2qC6biHmf/3OYU2+BbUTAfp/nNQhkEMY2QBjN5d6vt6+Ufz6X2QJjBSDQadOhr127Vhz4ypUr5e+XX35ZtAh8j2GEDRs2oKSkBKWlpRIyoFaAYYg1a9aIboGfESDQgRNUbNq0SYAGmYWdO3dKVgT/JmjguAwzcDv+m/tQvEh2gnoEghPWzX/kkUdE+8DQBfcjQOBcuB1fSsw4Ml1C/gUmw+BV1cum40j1tOHY5jew/+VfYvHkSsS40HfZ4VF69kFnSQWuzenUbU9NzSI4Wd0rokOnzEUjV6KGayFMMEHhpmvC1gPS9ZGOQxaWHJNtm11btA2s0Mda+my6w6Mxv56bMSuBq0fNNRHPutjeGkdo/DSseeSLKKufBidUCIfhBRa88eon5nQWXgrpDf0aIYNgMzNBAALDBwlkO46gaf3zaH39CZTr/SxXlCs8ZMA2TGT0MDLRKoy/eTXKZszF6b070L3jTVRluxF0vdoHGd2Ey2ZebghaRQPqb7kNRkkZTm/dhOShHSi0ve6NvE94zZgV0W1WoHj2StQtWYpkXyta3/lPoK0RIY2sFCNcFlwnAEsLIG0YSBmaAIRUuASrP/97KC8fhz1P/gyJU3tQlOmVXp6DrilpjvO++D9gTlkJ21QAgVkMVFQQIIzhSooUmJLZIxi+wW/3G/q7PlZPfqwABKUNoNaAK3qKAbk654qetevpmFX9eq7w6ZSPHz8u2xEgkHFgG2mu6pWQkI5XZTGUlZXJWGQJ+D6ZB25L9oGAgWmRBA9dXV2iZeAceEyGOSiO5Hs8DgWMdHz8nJqFD57Z8G6AwHz2bDYFOCnE209h/c++D7PtCKZUF6AsnEVAyyJE/UHWls59pP4lg1LzitOwux9f3i8VraZTpybAq25HACHF+iSpQureCTAgQODq1JKVKUFGLjwwFPM2oDsR9KVNHOsaQE/5JCz8+KMYP3sh9HAxsmDRJQ2mwWPRkXjH8p+WwEhDDLbUPyBAoADxQoDgMQhZ79rpJjJGCIlQEQqmzsfkpavR296Flu1vI9B2DMVuHHCyXjOnQAQJhOEWVqHm5hUonTAJbSeOoHPfDpg9rRJeCEptDa+KIxmohFGMeLQSdbffjdKJDWhc/xqSB3YglBmAplvQeI1tlnzmveTA1S0BCAPhUiz60n9DSUUddj/1Cwye3IeS7DkBp2QQnPKJAhACAhCiUp+BDIIHEMwxBxC8cI/HDkppaWHLxqqH8Od9Q1tgLAGE/FbAdN4EAXxw0lGrMIRaref/TYfN1b9KT+TfStOgCibxN8dRtRSU0JB/yxc9VzRJ6SHUmKrugiqLy+0VpZgfYnhv4WKuJsKQG3/3UsOyqRbPAJk+tO3biHX/+jjGRy3MqS9BUEvDHexHyAWCGrsl0tHzIe2NI8I1SZv0HloEDW7OSfMBJunsQhuQYchl3dMZsZa/FN6BFHJigqQECbgJMYiuwc5ydVeMw20pNCZdzP3EFzF11Z1STIWhC4v9FlwXIZPrQJLgPAxZiJFmiV/HX88RMwi8pxyv7sC7AEI8BxBcySpJmjGkS8dh/K0PoGrqTJx4+WUMHtqJolQ7Qm5CwgtkgTJGBL16FKEJszH9zgfgphPi8NMtJxFO9yPgENrxLuGxeWeYsIwwzrlBlC1dg4blq9B55DDaNq2F3tcCk2EBg6yTAdMm58BrTYAQRH+kHPO/9McorhiPvU/9DImTe1GY7QbLYAy6QY9B+NKfXwIgkEEYI/dKLsvRobBYzp8tuHOz9wHCdfxFvo5PbawABAUC8ispKopafcbLRAdNin84fa3ART5YyAcJCgTkF0DKL6ykbgE1rgIBagy1v9Ia5Fdg5Gd8/9KUej5AUGv98yDBcV2k0mnYTGPUMjAHu3Do5Wdwevs6FKMXteUxlAZ1BG0HIceCw9RIAiIqE6SAEmliW1ISz7feJeVpyaqeYQJv1UeAQO7AYx28UAMBhvewswV0eE86y3CR0TRksjpauxy0uWWovPkWzLn74ygor4VFmpsPR9OQvOuAzlx5DyB4lf7GMG18uZ4HIwYIHgD2GITkUIih5bUncxoEMgg5gBAsQXjWzZjy8ccQ7+jCkV89hVhHI4qyXXD0DBwW8dICyGhRDBZWoWLZ7ZiwZDU69m5D87oXpLR3iGWUNVP0JyzBx2tOIOzqLgZZvKhuFqqX3o3C0kqc3fgaBk/sQtAaEABrsBYDAULu5mEfiL5oBW7+0h+hpKIa+5/6V6RP7ETU6pdy3oMIwR0CCLfkQgxemqMLU8DMWAUI8r13GPzzBbmX6yvjj3OVLTCWAAKdsdIb5Dtg5cjzWYP8lb1iDFTRJHnYiQjQK6Oc77hVMSZ1GS5W00Btk19Vcfj26jP1+73LLw8HCOKWh+4EHo8hlqwwARYibhJ9pw7gyMbXcGDd86iI6ZgzoRaFhoawxTa8WdgiRtQklU13CBD4w6UgAQAfvMQKzE9nKEGV6ZXAgrAPXmjCAw2kmTWXayKCDl0e7GldR3/WRkdvGqfaMxi/7H7MuvMhVEycDiMYZccHZB0NuqFJMRaOMQQQSD/cAB363verPEKA4JBuz1Xpo+bEaj+EM+ufR8trvxQNAkMMhF5ZI4xUwThULF2DmtV34cTmzWhZ/zrKEl0otPpg6xYc3vtc7weKYNdOQcOqu1FUXYvTb76M/r3vIJTpZVDIK29MQEeBJK8VfZyWEVAYL6xFwcyVmLB4FToO7UbLjregJahvSCPoUv/iwT82jerTCoVBWPal30dZRQUOPPkvSB3fgQJrUEIiAwIQJmL+l7+NYE6DwAoJUmqZ9yk8gDn6w/dD1axAQO9B8RxQIha/0fU27/tl8DcYlRYYSTZ4AQAAIABJREFUCwBBMQN0lIpBGA4AlHGHpxeqNEOh1nN17Yd/WfPBRn74QbECw1mDfICgtle/84FA/nHe+wExVB0p7x7JeySSWXay8uBxWdpYy8JOdKPzxEFsePanONd4CFPKC1BfWoSKiAnNTsFxMtKClSp0081CJQwIS6CzRI6XNic/nvfJgRKPefDIZU+XwGZBDlsKi2MPSK+G7qSLpp4EWvsyCFRNx+KPfwF1c5fAjBVC1wOyLysAeqGZHO8gqXpc6xJkjIWH/hX+yo4IILhwnbRcLYulqpFFtu0ATq//NVpf/zkqtF4BeRYzDYJlyNbNRsOSlQiUlWP32jcweOYkCu0Eok5CnC4vNIFfpqAcsZkLMWnefGR7u9G04XXo7Y2I2EkBlarCpzBKLPzFZEc3DUdz0WeWQhs3A1Pv/AQSA4M4svVtDJ5rES1CIe+73HGyRgB9ehES4VLc9tiXUVlRigPP/h8MHN+NEqY5aiz6zVLLDVjwlf+O8JTlksXAY8p94jL7hvUVxsK9IioQT32gALfrFUwTbDD6Ec4Vvtn94cekBcYKQBiTxr2ck7a9hw8f0K5OMWIayA4i1d2Cxs0bsOHX/4Gom8HMunJUFARRGNKgWSkEnAwCDDHwoe0Fk70a9+Iq2DSHTAM1CKJqhCOxBeoLWOaWKzgdlhTUYbZbUFIWW3sTONTci7gTQcPcpZj/wKMoqZ8JzYzCDIahSdaE/3pfC4wQIDCsQICQdU0WH0a6dT9Ob3gOLWv/HZVun9D6VAwkiupRvPphNMxfCDeVQmfTaWhWFqaWCzNRyCqCQxdOJIRIdSXcRB8aN76J+MnDKMwmvMwWtokWBiDHJol/YwIjnTqkGFKvWYKGVfei5qZFGOzvRSbeDdOypRYCGSveW45uIKnHkNaimDhnnoQu9jz9r+g/vheluTTHfi0Ep7wei373WwhPXiwiRR7ba+rlCWjNMXE/KYBArZDk9wwJen2B4vt+E/wNRqsFfIAwWq/MhfMS1kL64PH5Q+o3C91KwU32It3TgT1rX8L+Tevh9DRjam0JJtVWImZqCDpJGFZKhIpcaTKIwM560v5HktdzDSBUEwgBDwZsh5oDEzBM6DqbMgXQn7LQ2jeAYx09SARLMW3RKsxefReK6qbBNgugGWGEQlGpBe+/RmCBEQOEhAyWpQAQLlItB9G44bdoXvdzVLIlOENQLHNcNhF1D34Z4+bMh6EbcK2cOJXdvyQPUTFV/J2Fk+lF655tOLnhDaCvC7FsEmHXEmKfwJA6FmF7yNyBTJSXTjloxtBrFKJgynxMv+NeFI8fJ2Etj2FiSW8KXFk/gXGJMFyw2VkATncH9j/zE8QbD6Ag2w/XMBDXwrArJmDZV7+F0KRFyOoR2U1CYzlWS5My3aP95dWqoK7HQ9gECLSHH14Y7VfOn997WMAHCGPj9sg6zCYQFYEX3+RD2GKBokEYdhpWKo6zRw9i77r/RG/TEVgD3agoDKOBAsaQjpBmI6S7CJEJEKCQX4iJ0QUKFBn99UILFIelHR2prI1U0kI8bqOtL4E+V0PJlFmYxbK7sxYgECuSfHrobARlImiGoPtLppHdVCMECK6T9ACCw1wCB6nWQ2hc/1ucffMJVGIAhsPchAAywSIY4xpQUF4FnfUQmPYaCImGgD8qdMSxDJa6ysYx2N6MVGcLwnZafgJkGbj+184DBNbUCLheqIp3X1ILIq7HkIqUorCmAbHiIui6A8sIwDLDcES74DlKzothKaTSCKUHkW48iGCqV8JgKSOIfj0Kp3ISln/12whOWiQ1HCS5UVJsvR6nvLdGO0fvhTJzAEFs6FUnURVER3ZD+Fv5FhhlFvABwii7IBedjgtLVN25TAM6cMeGk7WkI59kKWgOMoP9ONd0DM0Hd+DA1ncw0NWKQi0luoSSsIHiSBBFIVNaszLFzOTzS+ILBAQuLAfI2EDG1ZCygb5kBv2DKcQHshhIuIhWjkfNjJswaektqJo5H0a0hCWXpOMbE9s4VkDYBj+na0R31YgAAvUn1CBAuvcFYCHVchinNjyPphxAMBkScA1YWhAZZq+ICNdTmFisW8Hrq1OY6jECHIuhJdbgNK00AnYKEddC0Ml6aa08lq5LvQTJYJCyzAQIXtZLVgsipYekYiKPKUWeWavBMJE16N5FMTGkmyAbYTpADBYKM32IIQPbyWDQDCNuxOBWTsGyr/05ApMWI6MRILjDAAJlk6M7iO/pkjhNfhezOQ2F12nRa1s6uuc/ovvV3+jGs4APEMbCNXdgy+pN1S/wqhE6dq7Vru49oKVZk5NGsrsVpw7txal9u3DmwE5Y/R2IaDYKAzqKQgbCAQNBQ0cwaMCUtDcNluMIW5C0HKQsF4NZG/GMjYztIhgrQ2l1PabdvAIT5y1CUc0EaJFiqdFPpboIDiUNT4Mpinf/YTiiu2qEACHDmL4sUG2YThqZVg8gnFn3JCrdAQQcOm6pj+nVwMiFi6gFIfNEJ+WlrnpprMpZMbrEQlhBxxKGyct2oRAWInoki8B9pGMnQw85gMAGSuzcmKHAUGLthBE8jrevBMOkuAY7PBoiruSfzHCI2gMI2hQ7WkjmA4T/6y8RmLgEWS0s95Gnm/EKC3ghhtF9Tymdr8tsIS3twTCGGIRB8QHCiL4P/kajzwI+QBh91+TdM6Lzz3hvS8KBqkaoQ5PVYu4jkRZQ9e5VooOdwWDbGbQc3Ye2U8dx8tB+tJ0+KfQyuzR6jX08DQLHod6ApXq52gwVlWDStNmYOmcuxs+YjZLaOuihQrgu2QKuGoNCW/MlPkR+X5gyOhYse03nOEKAkGDnQ8dBUNdgZuNItR7BibdfRNP651CBAQSdjKzsSWnbsqL3NCaiM1GNnoSuV59Q7MrOnmy67IgoUUJOZKUkvVCDrbOcNkMTJMu9FFUJQOU8IbMLpOw2nZ+ErbxVvxeG8PpC8HOGGDQziGzGQoC1QDIpmNTQmBkMwsWAFpY6CMv/618gPHGxNA7z+na4cByvAVWATcGu6YV6/4OLtSVrh9+ptFd3hP1PpCuqr8l5fwv6W4xKC/gAYVRelmGTUgAhJyiUxyWds1dPwMMNXhMkPp6YXuhJDckwZAArCTsxgGTvOQx0tKL/XAfOdXais70N8b4+ZK0MYoWFGFdXj8pxtSgqLUOkvBKRskqEYoVwAyHp0UDhouYaCGghaI4hYggBB7lF6dDidLQ/zUfLJR8hQKACIWvZCOuaZBIMnj2Aw2+9iCNrn0OZlhB9gE4hIqWEmqc5kDtCKmHSqXu/6cQ9FQs1BnTe7Nip7hwPZUqGA9kphipy91aAoQ0ZXxXj9ASzTHhhhU1uy1tSWAYQIKj7MQCLhYLIYGTJMDFNk6yVBs0YRBJpJI0QApWTsfprf4bopMWw2Zk019jLZu8QVxNgNNpvqQsBAvujUKhJgED9hB9yGy1fOX8eH9ACPkD4gAa7JpvzYeOt9ofEULmH8FBvg1ypZAEIalXPVaPQz1whcgd+QrDhQKPokdQ1G+zkGASNpavpFJiFQFpXk16NyDIEIQ9piuTY2pcdHOmAVJMHqtVztQ38nO+R3yEjBAgZF5Jq6q3HLWR7W9B2bD/OHtyOqBS78lb2vFYZPZQrY83rw+qVOaCghKm5HgG8E1SPjiFqaoihOg846dpM5vN78CBXipv9GSiaddhB3Mt2kMJXXn8Pr6+Hx3LprgE7nUXAMEXE6rLluNwuCTjuALsuIFBQgZm3fRzBqilwNJZW9sAK4QbhS3AM1Mw4DxAoziSDwO8sv0OjX2A58hvW3/KGs4APEMbCJeeqLrfCG0p2VPOmPNDr1CjdGkUi5vVP8OLWTGukk6Aw7XxHOe/frgAECh5ZSEnWkrniRgIOhIYmSNBkVcltBGwQdEhDBtW/wRPCSXXEMfAwHzVXfIQAQdo987pTREigmIkjk+hDJtGfA3/e9eWLrbq9Gn5DUYZcG47z23i1MEj/XKJAlyKqciN5xX5yTl+iF6yTQChqS+8ur2ZGrjrmUOMvfsD7xcW51lYUFEQQjhUCjiGMg9dgKg2X5Zz1ICJVE+CGiwVUEAhxX7Ic5D4CY6Dq5rsBAo3IRmWjXz8xar4P/kRGnwV8gDD6rsnwGYmqXOkMRETmrQo9l+41w+XKTZTUUqTGgs60RXH4FCAyhk1fb3htZ0U/xr1y2zsODHnfo46ZhSCpcSBI0KAxtGB7aZE6e0q7Wfm3ii9420nDaQ+E+K+RWWCEAEGcqObCtrOSfeI6maFQwXnxHu1Op+8p6BWtzevvbaOrVp05AeH55l0XCgBzyDKXtScCVBE3Kt1LjokSEaElDbs8MJnrOTB07JwOwrFwaO8uVJQXo7ymRsINUnDLNbzqnjw33p9mEI4WlPcYMvFSJD3gYcjYo/v1LoAgdidA8AWKo/vK+bN7Twv4AOHy3iD5ZZjZJlo1h1KdJ9lTQZWMlkVerhcE+0Swz0R+V8ihctKkW21bVnHi4MkR2I6UnRaHLClWdCC2rMjI9ktzKtLDJlcwntjMJi3sODB106uOmHMdtjAIGgyChlynSxY7okiMOe18QPNzh3MgeWyyjLItzAMdiEH6mMfIsRQ8biqVkgY/6ie/JwVtkN80i50u87tkqt4TbLWt+mfwc27HfTkmz53/5ks1wlJ2HTNZFCMECF5oyGMRhpcFVx07PSdPyzMT4Ty7dCGAuNDNDmGAYV+BC/f3PvTwqdICKIpBsVreZ/lbqnd4/+zcsRXVlRWoqWsQIOrVZaDYVYW9vIwHr4PDefAr55YLXVzeb+mVGc3j1ATO5w6QB6quzCH9UX0LXFkL+ADh8tqXTmpgYADd3d0oLS0dcvp03lInIBAQZ0inRifKv/nT0dEhXSjpEIuLi+U3HSLH4/uJREIAAJ0mx+G/+ZNOZ2DbFgoL2QNBl334ovNUvSeUA1Yahu7uHtm2qqpqyDFzLNle02GwA2POaSuQI10qeVzLwrlz51BQUIBYLCbAobunB62trQIgiktKZC7RaFTOMZ1OIxwOy5wGBwdlH754fvngie9xDjyuAik8tmqWpc5ZdctUY3M/tQ3t+N5dMy/vtf7Io40UIHzkA127AXhP7d69G+Xl5Rg/frxcK3XNrt2s/CP7FvAtMCIL+ABhRGYa8UbJZBKbN2/G888/jwceeADLli0DHV1nZ6c4bTp//vT09AiQ4AOUjvrHP/4x5s+fj6KiItx0003iYA8fPizgYNKkSQI4FIgoKyvDhg0b5GE7ffp0NDc34+abbxYQ0d/fLw9jjsN/cz50rnyPY/b29mLjxo3iSO+//36ZEx0zt+UxIpEIKioq5PP29nbE43F5sHM8/t3V1YXf/va3WLhwIe68804Z8wc/+IHsO3HiRBw6dAizZs3CfffdJ+dG4MD9CRTeeOMNLFmyRMbnWDwWz43n1dfXJ6Chvr5eAAbn2dTUJLbh3AlKaEOee0lJiRyPdiVQ4d8ETqrV93t3zhzxpbzyG94gAGHXrl1yzX2AcOVvKf8IvgUuqwV8gHBZzYnTp09j06ZN4vT4euSRR+S9t99+G+PGjZMV8syZM/Hqq6+Kc6NTo2Pdv3+/AAO+6Ozb2trw5ptvihOls925cycaGxvFIRMUrF27VtiFj33sYzh27Bhmz56NU6dOiUOnw5w7dy6OHj0qf9NR02nPmTNHnCrBBQEAAQwBAoHF9u3bceDAAQECnB/nSWdPx7x06VJMmzZNgM+ZM2dkLg899JAADM7v7//+79HQ0IDVq1fjZz/7mRzjnnvukfPmnGfMmCGOf9u2bVi+fDmOHz8uc+b8OQcel2CAY/HYnCftwZ/q6mqxC/cloCJY4Dbch38TqPDcyFIQGJBF8AHC5b2nP8povPd8gPBRLOjv61vgGlrABwiX1/hcndOZ1dbWiiP+2te+hhMnTmDPnj3iNAke6PSefPJJfPazn5WVNVfGdGoTJkyQlfXKlSvx8ssvyxik5CdPnizOmo6cYQn+cD+umulMX3zxRXHgdI501AcPHhSHTJaCKzeCDa7Kb7/9dhlv/fr1AgAefPBBceZ05Fu3bpUxCVg4F4ZHuKIn0OGqnX9zHIIaApe77rpLgAsZjh/96Eeyop8yZYqcJx04AQvBAV88J86Pvwl+jhw5IuGGd955B7fccoswIDwW57djxw45J+7LcQhQOFcCqjVr1ggI4jnx3MjE3H333aisrBSWhHOhDa47DcLlvUWv6mg+QLiq5vYP5lvg8lrABwgf3p5eTYLzLzomOsuXXnpJnBqd2+///u8PxdUJELjCJp1OB/jNb35TQgCvvPKKODcyDHR8BATPPPMM/uIv/kLABLchrU/HTydLJz116lT5TUDw9NNPCxXPEAXBxWuvvSbHoCOlQ6bzJ2VPp873FINAgEBHzRUenT8dM8cnGKHTZTiBzAKPwWORIiYD8Nxzz4nDp0Pnyv0f/uEfBLxwpU9mgKwFPyPbwDkzfLFq1SoBNitWrJDjkd2g06dNOAbB0GOPPYbvfOc7AmYIVP7kT/5EAAy3+7u/+zsBDByLjAHnt3jxYjln2l2JGcmMKJ3Ch7+yV2nPKxBiUPdkPkga/t7w+1adrdrnUp8Pt0q+YHL4GOpvHyB89HtJCZk50sWu70c5Qv7YH2Ucf9/r1AI+QPhwF5YPPqWiVw9WvvfTn/5UHB4dF1ffdPhKYEhKns6cn3MV/41vfEOcKSl7hg7ogMkm0FH/+te/FoaBzpLb/PKXv8S8efPEEdLBEiDwM8bwOSbBBYHFggULZGw6SX7OUAO3p2Ol0yYbwHAHHS8BA8c7efKkABaCEc6Vjp2sB+dDR8x9OR5X7HTSPB6BBxkEhgUIEAg8GGJgWICMBh0+GQ6GALZs2SLzJEBgeGTdunWy/7PPPivAhnPisT75yU/i+9//vrxHgPOFL3xBmAmCDoZUHn300SGhJ/8m+8BxVEaDEigqoeaHu7JXca/LDBD4sOf15IsskHr4S3XEnDBWZdmorJd8UadX70AbEq6qMTieej/foajMHOW0VHZJPjjxAcKVv5/U9c23+8UAoppJ/n3Bfw8PyV1qnCt/Jv4RRp0FfIDw4S6JesDygcyHIL9UpL/pWEmv19XViUN8/fXXhcInjc5Vt9IQ/PCHPxRnyy8nnT3pfTpK7kNhIx02qXw62VtvvVWEhXzRIfMzggHuw+NQCEjHy9g+wQR1BAQoBCccmw6W8XqCB+oTCEgIGnhsHpMaAYIZrur5OcciUGlpaREwwznRgZNtoOOmXuDee+8VNoDMB8EMgQHnxjnxPMk4cD509hyH4ILhDc6LAIH7kdUg+CAwIYC444478MQTTwio4DmRfeD8uA/nTCaFf3N+PCe+z2MREKjQiEqr/HBX9SrvdZkBAmevslFUlohy+mr1qR7+/Jzb0snTfrSbSjVVIIL7KDZG3eP8rQCDykLJBwgqC8VnEK7yveQfzrfAlbCADxA+nFUVQJB6A7k6BAwp8MFLJ6bEcnSmFPfREXI1r4SKjz/+uDhEOkdS+HTCKrWQq286WjpxAgRS9wQfdM5kBXgMOltuQzDAFx0wnSrDAtyfcyAbwM/p2FUGBR0zV+VkCTgnjkPtA8+D4QUCGO5PhoHjqRRCjsM5cg58j3PmMfgiACAI4ucq7MFtOB5fymnwXMg08NicG/+tUiZ5XmQrOJYKqxB08Dg1NTUyFkEWAQznx7nz35Jqmau3oBzXjSpSVPUjaFPaiqEY3od8qToS+fcrAQJf+cJOAkPeLxSDEhyqMALH5vU9e/as2J3XSDEM6v7ndR6eZuozCB/u+eLv5VtgVFjABwgf7jIogKBWT2r1pehttaLl6Iz583PG4fk5V/bUKnzxi1+Ulbl6sCtnzIesqmGg8v/zV4KK7r3U6lCt8tSZqQe5cghq5TecTs53BsrZKjoy3+mqc1bUZv5n/DcBDD8brgXIp7fVuQ6nwVWdCL6fX0CJYymdgVop59Po+fUSblSRIm1G0Ei25a233sLXv/71oboYBGQEdyr0RBuSweGLoFGFB8j6EIySmSH7Q+BGe5KBIkjjvUwmiuEuslUEfQSPHFfVocj/RvkA4cM9X/y9fAuMCgv4AOHDXwYVXsiv5Kcq/eU7ZT5I+bd62PKhSVEgV+B8wKr4sNqXD2xF/6rVn6J4lZNVTlCtnlVBI+WY8yljRcHnO2PlUDm+qoUglRnZtTFXNEkBCfW+AgQqbqkAhirqlD+morjV/PNXm/mOnk6Fc1c0tzpvni9tw8/UKz9eqsbPp8fzQcKHv6pXcc8rEGIgQKAG5Te/+Q3+9m//Vpw2wQGFqhTDkuGhdoPMC+tS8EU7854je8R7dN++fcIiqCwRjsExyTyRmWBqLcehtoQMD//m74ulmPoA4SreT/6hfAtcbgv4AOHDWzQ/HqscYb5gSDnb/DiucmLqM7Vqz1/dK9GdoofVNgokqIqD+bFfRR0rpz58bvnisuEreTV3/lZswPDtFVuRzx7kx7PznfPwc8kHNaqipGIo8lkAxZpIyehcBUkFBNT5qPm9F4tyo4YYaFPqNLjKZyYNMz9oJ4JRhrkIHujkGTpgqItsAe1LPQfFngosKm0LbU7QQIDBH77PNNRFixZJ2ivDEAyhUQfD7BaCCz/E8OGfJ/6evgVGnQV8gHD5L4lyosqx5/++1NHyHTK3Gf73SGb5Qff5oNu/1xwuds7vt/2lQgH5Y+WPcTnnOxJ7XvFtLjODQPtQJ0CAwDoa3/3ud4WdIihg2IE6EepKyFxR10JwwO1Zu4LCWIYgGEZgyIB/E2xQB0K9B0WkBAAcl/UuqB9hiIJjUjRKIS3f80WKV/yu8Q/gW+DqWcAHCFfP1v6RfAtcYIErABAUg8BaFX/1V38lh6MTZ1ooHThFiGQQmGlDQMEQDkEAWQE6fFXOm5/zM+plCBwYkiA7wGwaJQ6leJRjM7xw2223iWZheKEqP8Tg3/O+BcawBXyAMIYvnj/1sW2BKwAQyAiwuNW///u/izZANfdiKICOnXoT/jAThEwB/81QAwEBgQABAfUHTFklw8MMF4YWKFxUVT8JDBjGYdYJGQcyC0x55ZjUMvh1EMb2benP3rfAkAV8gODfDL4FrpEFrgBAoBOnKJb1OJTegyt7agmY/pifFkqhIVf4ZB1UXxAFIAgSyDBwX4YNCAS4LYEDt+U+3IYAhMwC3+OPzyBco3vJP6xvgSthAR8gXAmr+mP6FhiBBa4AQMjP7sgXlKrZKKGr0sXwfSX4zBeoKvGoarmtBLPc/mIaESVEzc9k4bZ+iGEE94G/iW+B0WoBHyCM1ivjz+u6t8BlBgjKISuKf3jVw/w01/yUUeX080FDvu3z31djDAcYavvhwlMfIFz3d7F/gtezBXyAcD1fXf/cRrUFrgBAGG3n6wOE0XZF/Pn4FvgAFvABwgcwlr+pb4HLaQEfIFxOa/pj+RbwLXC5LeADhMttUX883wIjtIAPEEZoKH8z3wK+Ba6JBXyAcE3M7h/UtwDgA4Tr8i5w885KU39o1/ZU8+fEmWgY/o6a3/CJukNbep94/73wtC4442t7oiM8uhLaDp21do0v0AjnfdU38wHCVTe5f0DfAp4FfIBw/dwJ9JHs6qoBluY5UMPVoFuu51MNgI2y6Yd0bjTilwzsbc3dLvDMdPN5Y7kX/JX7zPW6zcp23J7/cqFrFwMJ756XAxeO5oJAR3N1aDlowWkon6q5tjcLTfd+RvlLZdwI0KHNNO2C2h2jfPofeXrDwZFcukvZwAcIH9ne/gC+BT6cBXyA8OHsNhr3cl3ABhwdSGl0qxoCrg4z7YjPdEwNluaIYzbd3PpdPGwOTQytzcVt5Z0hYQV/hgME7qtf4Ph1AQi5benIObQLOEMAQQ2TAwgKD+QOJ7+GraRtOAIQdBfQHQIE75iOTN0DG5rjgLBA040xARBU5918gDC8W+2lsnRG4633QeaU34cnP+NINf1711g+QPgg5vW39S1wGS3gA4TLaMxrPFQOINg5gEA3HXR1BKQZqQPHBCzDge7aMBwXrq7D1ehsz7/ofr2X964HHxzPy/O9PAZBHNgQK+B94K3knQuIBmE1ZLzzO7t08ropAOP9XtyTcEfYEA9BwNVcCHAQMKLDgAccDE0fEytx1gpRnXNVuq9qcqec5qVSft/PXmPhc9UMz8OD3j2n2r37AGEsXEF/jjeGBXyAcP1c53wGQafrdBF0NQSyGlzXgW24cAwLupOC4dpwjdwKPy9EcDGA4LnkHNOQby0BDRCWQL00vucqBsEDFcJVyHsqTMGQgwFHC+ZW+8PDCsP+ZlhBfhQ7YcPVbDiaAxs6HJjQtDDgBmBqBAmj/5IqgKCcIyuFqgJiavbq7zHTGfYDmF2dt+o8rIqbqa7DFwzlMwgfwLL+pr4FLqcFfIBwOa15bccaAgga0rqVAwiAmfV0CQQI0FPQrQFY/W2AnYDOmMQlxYJDbn+IS7jgBBWr4MEE779C8ee2UtSE6whA8YCGiiUoyCFChKGXfHqBdpExigDgmjkWIwto/LFh6xocIwotUAIjUg0YhTA0U1iE0f7iClpVHGWn0jNnzqC5uVlKlKtW9ZfqKDvaz+395kdwwKqoLIvONu0TJ06UMuw+g/B+lvM/9y1wtS3gA4SrbfErd7w8gJDRbZCED7iAYVkSSnAMxv0H4aY60bF/PZzeMwi5SS+GL16ZK/18UOC5dI/gd0QawOCBhBWEKcjF/4f2d+AYAbgMPXBjlyCA7IULx/FCDB4s8ICCIev/CzMZzucrqHnogBuEC47LHT2A4MBCBhqsUAUipdNQUr8YZnQ8NCMCXUIXo/tFcMAS4uwnsnnzZjz77LNoa2uTviJ0nmpFnR+vH91nNPLZ8Zx4/mRI2ML94YcfltbvxcXF0lPlXS+fQRi5cf0tfQtcVgv4AOGymvOaDiZqQIh4L6NzxW7DdB0YtiO+FvRkAAAgAElEQVR6A0enU+6H3XcGJ9c/AadtH6J2v5D0EhrIAwh0/cwaoKPXJPDvPdCpG/CwgQtNpyaA4kCq8DmGc17ToGmwHcaXuZrXYQsO4JYiJZRjGsi8CyDk0IMndxDJggZbI5RQAMEWgOBqDjKuiUx4PArGL8K42fchXDYDMAqgGaMfINCWAwMD2L17N55++mkcOHAA8+bNw6xZs6QzqXKU16MOgQwJWRN2Zz18+LCAhEcffRTLly8XYOQDhGv6FPEP7lsgzwI+QLh+boc8gGBJTqAFw7XAzAJHY8zfhYkeOOeO4dTafwWatyPmdIuz9rIP+PJYhHzxoS6ZApQEEnwY4uwFQFAQmGMRDFgXAA0+6Mk2aDAEUHj7eOBAiRU1WHkZD95lyGGC8wCBMIeCRLIXAjZ4Xp6ewdLCSIYnIFK3ElULHkG4ci40owBgmGOUvwiw2O30xz/+sTAH99xzD+bPny/tyxWDcLFUwFF+WiOaHs+LAk12dn3rrbfwyiuvYNWqVfiDP/gDYVB8gDAiM/ob+Ra4ChbwAcJVMPJVOkSO9hfuILfq192sOHFbC4BBh6B7Djh3GE1r/wla6zbEnHN5AMGDBeelhZ5DJzPAtb+rGbBc3XPUuinqBQUQmBmhmAgpucAwgwIdQ7/z4QEd/wV5lZcwEo9rwRFNBR0/5+RlSWS1MAbDkxBsWIPyhZ9BqGoBoEeHwhhXyeof6jC0zaZNm/A3f/M3WLFiBb75zW/K6plixeHNxj7UAUbxTkqYyN+NjY34l3/5F9FdfPvb30ZpaakPEEbxtfOndqNZwAcI188Vz2UQSAqglE+0QYBAj5/VAuJWQ3YHtHMH0LL2h3DadiDm9IlQ0dMCeMWIPIUA6wyoJEemQxrQAmFknAAcxvgNAgTqA5QOwRawINsxk4B8QzYNnQyGnYbpWjCdLEymWAoboSGrm+Qu3tv+wl5YIkpktgI5EAIWzjADE4ORiQhMXIOyxZ9FoOpmaFpEAhij/cUY/Ouvv44f/vCHeOSRR4Rip5OMRCI3BEBQaY69vb148cUXsW/fPnzuc5/DwoULfYAw2m9ef343kAV8gHD9XGwBCHSkucqDYE0CKwcQQnBcDSGrHfq5fWhb+7/htO1GxO0TZy6QgM5+qGARmQJmGGgY1GKwIiUoHDcBthmFo5lwDBOOHswBBO7v0f6OFvDqEZC5yAxASw0g29cBDHQi7CQQcNMIOJbY3NKMXNjhvS8BmQlqEVxQrGgKUwHXQhYaBmL10CetRumSz8CsWgBNK4CO0a9BoDiRjvHJJ5/EF7/4Rdx9990CEKjmvxEYBAUQEokE1q1bJ2Bp9erVApT8EMP180jyz2SsW8AHCGP9Cp6fP1fwrG8g4QC+TYDgpTFmQYAAhKwu6Of2ou2Nf4RLgODkAMIQE6BkCBocFlKChh6jHE7VVNQtuQ2OzhgxSzGSRWD6oZflIHUOXJt5jiyb6AET24Kd7EPfmSOIn9yFIrsPYQIEN+MJGod1Y7h4+QIKIZkRQRgTlHrRFEZy/CyAeKwO+qRVKFn6aZjVZBCKcgBhdBdDoGN8/vnn8dxzz+HLX/4y7rzzTgEIjMHfCACBDApfBErr16/HSy+9hGXLluFLX/qSDxCunyeSfyZj3gI+QBjzlzAPIXi9GFyvSBL9qqp16CkEgKDdA637IFpe+R7stu2IEiCIfoCljPM0CMxC4ApfA/rMagQnLUbNHZ9C5+HDcAa6YegObJOOW/dKKTNt0cnAlLKHLmyCh5JxKCgtRarzNNq3vICSxFlE3RQMrv01VwCLSnuUwMaFGY9Dp+VtQ7aB4QX2kfBKPzPEEI9OEIBQvuzTCFTPF4CgCYMwugECHeMLL7yAZ555Bl/5yldEpKgqKl5HN+RFTyU/dZNAiQCBbIoPEK73K++f39izgA8Qxt41u+SMvdoEXM2TN2CIgP8jNPAyEDQEnD5o5w7h7Mvfg926BVG3V/QBwwECt7UZStCAuF6N6JRlqLrrURx/4VlkW48hqCVgB1gAiSt7HVlNh+lmBBwQNGSNCNzqqRg3cy5iEROdm15AsGU/Chhm0LOScukBhPMvSby4xLl50EWXUstSBRJACmHEoxNhCkB4FKHq+YBWOGYAAp3iU089JQDhvvvuu47uw/c/FQUSBgcHsWHDBgFLTHNkuMUPMby//fwtfAtcHQv4AOHq2PmqHOWDAQSrdStiTo9XsIiZCrkwgxIoegBBQ79WjdjkZaj+2H/Bied+BvvsAUS1fsBMe9oApj6KMNFCWrQCFB+GkIhWoXjKbFROno506xnEt7+FgnQPIloClpaR2gkX9Hy4BIPgmc7jQqQYpIQngDRC6CdAmLwKFT5AuCp32OU6iA8QLpcl/XF8C1xJC/gA4Upa9yqP/QEBQsvWHIMwDCBoXrslBRD6jGpEpy5DjQIITfsRQy90IymFmMhRMG5uulmkdeZEmHBtE3GWQa5sQPmcZYgUjUPb2lcROncaUbcbjpaEYbAOwnlUIAxCfpnmvH+rugweg+ABhBSCEmIwJ69GxbJPIzSODEIBe1heZbt/8MMpkaLPIPgMwge/e/w9fAtcLQv4AOFqWfoqHMcDCCyL7EXp3zvEYLVsQ9TphSQsvotB0HMaBA3dRgUiU5di/L2fxtFf/Qx20z7E3H4EjDSCDqs1shwSRHyY1iW5UnpOJ7UgktEKRKcvQ8WsVWjfshnZU7sRS7fANFMwyCJwpjkgcOkQw/mukWQ5BCC4LpI5gBCYkg8QVIjhKpj7IxzCBwjUyrjwQwwf4Sbyd/UtcMUtcIMAhJ07d6Kqqgo1NTWy2lWtdVW1OlUfniVulZo8v9Pc8OswvPNevvL8g6jQpXxxrisij6Fq8I/kunOe3J9z5jH5t67z3AgRzgMEtmCWjAFZ5fcDXQfQ9J/fg9XKSorMYmC1RQfGkEiRNRAIEFj/QEOPWYXw1MWov+/TOPb0v8E5sx9F2gAMLYmQo0GzNWiOhrDuwHIzcNhEiZ0gNA0JsxB29RyU3Xw/sskEeva/Da1tHwr0JEwt42kmctWZLlk3Ka8KIwGCajBFBqE/MgFBhhhWPJbHIIydNEefQfAZhJF81/1tfAtcGwvcAACBjnPbtm0YP378EECgY2W5V1auo1NWYICOlp+pinbpdFpK3yonnK/A5nYcW+h1pv3lettftOHMRa6u2p+/+cN5BIPBEaW5cR6cG9PFeGz+8D3DIN0/DCA4XrMmAQhaP9yOA2h66X/BbtmBqNvniRSFQSDFTwaCDl6HbdAuOnqNCoSnLEb9Q5/B8af+Fe7pfSjUB+A6gwgzY8Ax4ToGoroLzcrCNVxkdaax2UhrESQLJiJ8090omjQJnYc2YXD/myhyBhCWGg2qNbSXxXCpVMfzIQb2k7AklVM0CJEGkEGoHAIIsZxI8dp8nUZ6VJ9B8BmEkd4r/na+Ba6dBW4QgLB9+3ZhEGpra4ccMB1sfmlbOnYpD5wDCaodLy8OQQJf+YwD/6Zj50sBiEu2rB12hRUgUQVjFNBgHvxFG9ZcZH92A+QceWzFPBhsoMTWznlZDNpwgNB5AE0vPA6rZWceQPAKJXkllXMaBJ2phRr69AoUTF6McQ9+DkdffAaZ5iMI6QnYehpBFwhQc8B5DPajiIDJtZE1M1LFkcWNBvVyZCcsQs2KVUicO4uOra8hPNCOmJ3wKi7mpTheFCAMMQi5dk+ul0Of1sggeAChauVnEBo3L6dBGP29GHyA4AOEa/fQ94/sW2CkFrgBAAKd6I4dO6QRDkMMyqHSwapQAUEB31er//yQQ74pFYBQDjk/1JC/mh+J+fMZBAU8CFgU2Hi/MciAKObB25btnHXoTCHMlUoWFcIlAEK2eQeiTr8wCIzySxaDlEv2Yv5WDiAkjUoUTFyCyge+jPYjB5Dpa4duZOGGXBiWDZNMSt85xBuPoKCvA0E3DdtISZllzTWQcmNIlE9FxdJbEYiG0LV/K1KNB1Cc7UFAGjZdugaCd1pe8IFzki6QBAhaDiBEzwOEsIgUySD4AOH97p1r/bmfxXCtr4B/fN8CI7HADQIQyCAQHITDYWkQQ/aAZW0bGhrkPVL7iimgo29paUFRURFYyKW8vHzocxUO6OzsxJkzZ2Tlzs/HjRsn2yi6fySmVwAhlUohHo8LMOBYIwUIXV1d4L4lJSXCcEilAEOHIZ0PvV4KlwIIZ154HNmz+QAhl+aYa/EsACGX5mhrZQiPm4Piuz/vpTVaSTiGAycSgGbZMKijGOhF197NyBzbiqgTh2ukRSugOTosJ4RErAbB6UtQOnka0l1t6Nr1FgoGziDEoklDnSSHsh6HzOcxCgJfhgEE12MQog0IkkG45TGExy3wAcJIbrxRsI0PEEbBRfCn4FvgfS1wAwAE0vcECFOmTMH+/fuxZcsWTJ06FUeOHMHSpUvlRzl3Mgl9fX34wQ9+IMVr9uzZg3vvvVfYByVsJLhgBTy2q2Uve47JLnQseMMQAQEGx6OjVyt8FYqQNsg5zQEZAM5tYGBA5hSLxXDHHXfI/jyWOH1Nk7/z2QnuT/aDrXL7+/ulwAznR4GioZNB8ASKFBqKINPOAqJBYJfFONzOAzjz/P+CdXY7Ik5/rpIiAYLXJdFr28ReDKxvwHcCsEPFiI+fj3C4EG42A8vUkAyGJJ2xqKgUE2bdhFTLaZxd/ySCiXYEtdR5x++aSBpFSJZORfX8lSisqkXXjrXIHnsHEWfQAxK5JlGcpAcFHAE451tE805me2kyCLa0fE7rAUlzDE5ZJSGGcA0rKcak6qJ6KWaGdsj/d/7nlxKVKrboYgzSxca62HftYmNwu8sRYrjU2MPnMZLzEBg2lGOa46Ny4TYhcXL/vtQxRzqXfLv7WQzv+3T2N/AtcI0tcAMABD6Idu3aJc78nXfeEcd+++23S5MYOvKJEyeiubkZDz30ENauXSsXhJXdPvGJT8h+BAhsJvM7v/M7qK+vF/bhiSeeQEFBAW677TYBEawlzzrydPbcdubMmbItXxyfx6UGgiBl69atwhjQuZPFmDZtmrARxcXFmD59Ol599VV5WHPssrIyaQt84MABLFiwQMrRkgFhVsaJEydkvPvvvz93LFfAgZ5jDyTdkO5SHKpXZEB340DXIZz+LQHCNklX1B2v2ZInTfTqEiiQ4LH7tgQCugPlgB6Da7twdQ1ZzYSFEIKFFZi25n4EYzGcev0pZNuPoBiD0K2k6CGgGcjoEQwEylA8czlqF9+O/pNH0LH5BYQTLYhqKdgWxZ5BtnlC0MnAcDPIGgaSBpkdDQbLLkrracIEUVgga4TQH66DOXElxt3yGCK1C+BqEYCFmnhOOVCg9B75zIwn6PQyVvKzSPJBXb7TU+MR1BG48bcCccqB5o+TD0guxgh9VICgQKZy6jy2CnupPgdKOMu/1fmqeeXbR4FYtT3PR7FbSvxKO/Hf+SG5fOCQn00zkieazyCMxEr+Nr4FrrUFbgCAwIfb7t27MWHCBHG2/Jk8eTKOHj061CSH7Wa//vWv45/+6Z/Eae/duxef+cxnpJkOHTudPOvlsx0vH+7swsfx7rrrLvT09OAXv/iFOBuChhkzZuDQoUOyymfIgOwCsygYhuAPAQLZgurqahmDjp7bVlRUyA/DFwxtdHd3C9Dgg//s2bPikLgfj0ewc+rUKXnvgQceQF1dHQzDS3HkQpDggAWUZf2vMVuA2gIXujMInDuMxt88DrtpuwAEigo9gOAR+aq64flbk6t5IGHEYCEoTloKLLsaUm4AmVAJYjOWoWb+MvScPIDug1sR6W30Qg2wpOlTVg8i7cagV01F9YoHYEYK0Pb2S3BYftnqhm5b0ozJgIGww4ZOKaQNAwMmHb6OgENQkAs4SOaDC8sIoy9ci8iUVQjNvg/9eg1SWQOhcETszNCRSmn1UkAvbAOtUkP5m/n4dKSqmyKZIOVUFfuTn22inGO+FkUxAxyH90E+MBievvpRAQLPZzi4Ueeq5nuxvxWDlZ99kw9s1Oc8l+EC2PzV/8XSfNU5jiTN1wcI1/rB7x/ft8BILHADAAQlUqST37hxo4QbCBC4gqcGgQ80goU/+qM/wo9+9CNxEgwbPPzwwwIYyBh897vfFSfMB5sCCHTSbNNL1uAnP/mJOHY6JgKLV155RXQMBAd0/tyHbAUdT3t7uzADnAPHfO211+RhTwaBoIHhAs7tzTffFIaAIKOpqUnGUA9hHpfAgsckcCFbocAB/aACCLwFggIQHAkxXAgQWCipX4R/ng6AIkUWLrqw5jF1BCynnDAjcDRS/FmYDosrAVktjIRZgGTVVDQsu0NW1527NyFzeDNKjUG4WgaW5iLrmrCdKLKxGhTOW4OyKTPQe3QP4oe3INJ3GmGXq1xDBIYhju+mkNXJIIQEtrBio5fqSJjAzpHUIAQQj9QhNn0NDiWqsOdMEq5RgHA0JmGXm266Seyd7+zy61+oGhR8jwCMNqf9ec3Uajl/Va0ccv4YMp+88EVra6uwQfPnzxcwqV6XGyCo8JQ6tnLKnKMS4aq58T1hkgwv9DI8PVdl7SgWgPe4AhAKZCjgkM9YKJCg0oSVXUaaheOHGEbygPa38S1wLS1wgwAEggLqDtgYhg6dIQY+zPk+V+V0EN/4xjfw+OOPi0Mmpc8QA7UGdHqLFy/Gpz71KXm4Uhj4q1/9SsAFNQMHDx7ET3/6UxmfD8lPfvKTEnLgdhQ6ko2YM2eOMAJ88DLVkgwBAQYBBUMKHJfsAdkKrj45x82bN8v+BCx8cR/1sCdzQVDDcAlDI6zxIMoBhhgEIEj5I3nvPEDQoDsDQNcRYRCspm2I2v3QtWEAIa/8sTgZNwAXIQyYbEWcRACpXOZDEBn2XDDC6C2sRtnsJWi4aRG6D+1F1/rnUaHHoelpWLBhO9RexJAOlgN1M1B100IBJl27NgBNe1HoUrPgZSqwsiNBCDUIWS0o70l2BQGC/N9jENLwAEJ0+hr8ZlcfmhMRzJy7GMlURpwhwzF08ASIBFBtbW3CFDCkQ2HnsWPHBKzR5nS41J5wO/7mPrzuvKZ0+PycPwRsvFbcr7e3d4gV4tgMU/Ga87MHH3xw6LpdiRCD0qUoB64YDc6RxxseLsgHKIoxUKEFfqZqgqiVvQpZ5P/OZwaUTobv8VgKUIxUYOszCNfyoe8f27fASC1wAwAEPgiZ5sjVOjUFP//5z8UJ88HG+D2d9BtvvCGrcz7oZ82aJc6D1D0Zh1tvvVXa0RIwUAdAJ/Bv//ZvojWgQ+FYXK3SIb399tsCGMgQrF69WpwJq+XxONQO0Nk89thjEnIgo0GwQKaAD2jqD8gikH0gW7Bw4UL5m2NyHDIQPBZfdHQEEQxn0BnRybHNsydU9Fo1K4AQ0OwhBsFwqEEgQPgerKatAhDIGniuWYUYzhcv8pacIdgIIWUGoGtxKZHMAohpswxapBSJTBZ9tgW3pAZz7/kvMDMWml9/Fua5YwgbbOiUyY0cRQJRDERKUT57EcbNWYzuI7vRt+01aeLEeUqLaoZJVOEmFfTI1WZQAMGxHViBCAYi4xGeugrPbutBtHYe7v34p9Db1y9aEjoxhmNmz54tIJAAi9eY153vMdRDAEbgxs+pC6EdCejU7+9973v41re+hblz5wpgIBtEYMj7g9scP35cRK78zfcPHz4sAPPTn/60hDjytQH5X8mPGmJQ7AfnQy0NNS6cP+9V/pAFUewCz5shL97nnDd/k73i+RAAE4jyniZA/d3f/V0Bm/xsuAZDMQMdHR0CtMnSMDOI7yvgyn/7DMJIH77+dr4FRrsFbhCAQFGfSkXkw5JhAz7A582bJzQ0gQEZBToM/tAB8yHLhyspf35eWFgoD1E+nBn/J+1PZ8P3yQZwHDokshHcjg9POn6OS+qaY5LGJlChU6KzV/so/QIfzAQRfDjzQc0VGVemSiSmqjpy9coXj8P5eRUYPedKkaLFHo2aF3OnlBAiVCSBPwB0egAhe2YbolY/2zKdBwhS+lgBBI/SZ+1C6gMyuikMAptJW8ECFM5ZDaOoGm1H///2zjzKjuo691/VHfveHtSS0NiaEZIQYhKTBiYJxOAFGDPYGIPt5+cpdpwsZ1jJH0lWEgfs4CzHsZOs5xD7PRtsYwYbsAGDMKAAEhIgBAjNE0Kz0NTjnare+p3q0xSNhFqW5L7qPnctqbvvrTp1alfd2t/59t7fXqGWHZuVqK3XmJkf0YChTdr60pNqWfGCan0EkYsmagHIKPpZtXhZZUZNVtPsK1V4d6e2Pvuwsvu3KuuV5FM+CUBg3kGoFNEENBmNfHPEiJgGTx7NmpJqrx2t2smX6ucLd6kj26SLL7tSO3buMjazOhewLQA87AkoI1/kM5/5jAF/MAIAM8I12B1HieMHJMIS/dM//ZNuvvlm/eVf/qVxmj/5yU+McwV8wCo9/PDD5j7hWlLFAvPEvXHjjTeaa8t1syJblvLnZxwg4JRJhD2SlwUIgBwAAoCU+5BcG6pvAJfcaxYQATKZN/k3MCg4d+YMY8Y9O3v2bANaYbrYH/DJvQ/TwnYcj/ud37n3CMV96UtfMt8pvksAWcseuByEI7mSbltngWq2QD8ACLbMEYfNPxuDjUsb8x4PfbsC6p64ZSnRuCxzPBnMZnvbjHmrqBj/u/vv8QepXa3ZxDluGbsSs8eJOxj7Xpw6BiAEQST93FEKtLelRR1t7Ro2uEGZTNqszlNem4KdK7Tp4e+qvPll5crNh01SJIcgTEQOuhR4aldWqRGTNOGazyvINmjHG69o84JHRApjzbjTNHTa2abX4vr5DyrT+q7qgjYlg6KKiYTKXkqlMG3Yhtqz5qhh4GDtW75E+1cuUU3QrhT9GQAooadUEChTQTUxNKJNlG1GlQxRnkS7AQhjVHfqXN23cIc27Uvp9Onna/BJJ2nS5Mki8ZQQDGEgQAEsAQABBwdoAEQA1HCqMEE4VBwj2+D877//fsMe3H777frbv/1b8y3+7ne/a8IOOFXAJeEIgB/XjxwWGCoAKKDCJjqyH9uxygc8wkIBKAEosEuAFfJIbFJkTx4XNhfmv/7rvwygZX/OD5DDfQygBYQAVmBLOGcSXpkDoGjWrFkGUAAQcPCwX4BoPoMtAXTg8AFMsGPYku257wARzHvGjBlmX8AFoMqGGxyD0JMr6LZxFjgRLNAPAAIPTFtFYEsPLfVrHf6JcKkON0dTvQDVT5e8QllvrlillStWaNzo4Zp66hQNaGxUJtmhcM8arXvgLlU20aypJdIdiIUZulcxlPySAp8whacO1auQHar6yRdo9FW3qaSkWt5eq1UP3q1c6255A4dq8JnnauDE8Vo7/1GV3l6rhlKzcl67CklqGhLywqRKmUYFJ0/X8Mmnq7J3lzYvnK9Uxx7VqN1INKOGQOVCFg0HAxBMz0ljApuDUExk1FozyuQgPPDSDqnxFF1z4y0aNnyESRB8/PHHDQgAIOCMcWYARBwpDhrWAIf34IMPGqdom3RBocMgsNomOZWV8p//+Z8bu37/+9834AJHzIrcOnVCCzhKxuSeIl8FVicea4fF+Pd//3cTirjooosMu4TDjgOE7smMh7rmVj8DvQ4cP+EwKxsO6CGUwPg4eo7HXAAKlkEAIMAG3HHHHSY8QjUNDMFNN91kGBW+LwAMwBOACdCDDQBD2Oy///u/jY0BUoTebMKiZbgOd6+6HITDWch97ixQDRboJwCBlR10fJTMF2Vy20ZN1XAZjs0cQsMg4EKb2wt6ftES/e53Tyulks4+60xNnnKqJk0Yqmz7Zq178Nsqb4RBaOlMUuwUMz5IFUM5WVaZlX0FcaQR8gdP0qDTL1Tt5HO1v61NNV5Fmx7/hYqbV0rplOpOnqTRMy7U1jeXac8br6q2ZafqdECMg/BSopJQMZFX65AJGnbGDNXU1WvTC0+r8u5G1ZYPKBUUDECgUiITFI1pjKpjF0AArIQK0jkdyI5QZvwsvbKrRpnhp2vGJfNU3zBACT9hYus4S5wYK3j+Jk7PihgAQBydKhBWvjhBVstQ5jhtQgVUocAK/Od//qdJBAVoknw6d+5cwxTANkCts/omx4VjwBowFu9111TAyTIWc8Bpk6vA/l/4whfMmEeiJWABAoAFoML8ODbni8ImAIHj4Ohx+NaZA5T4mxADQOk73/mO2QeAxPng4AlBkLwLGCARFlaB/Jm77rrLfA44+sd//EdzXQBCJOUCvnD6ViDscPezAwiHs5D73FmgGizQTwACiWfEa4mrxsMBPaFDq+Ey9WQOUZhCCjoZhD37mrVr906V2w4oDCvK1eb1iY/O0+xpI/XOb76v4oYlyleskqFNUjTw6X2Hq7DyJ9HRS2tfZowaT7tIQ6adp3dWrdDeA3t0yunT5JcKWvm7XyvYu1XJ+gEaM/sqZesGa9srC9Wxfpkaitslr93kE6DOUFJa+9IDVTvpHDWdNUO7N6zU7rdeUnrfZtVV6OMARKgoGUb5CwHiRx5lerYUMzAaDM01I7UrNUbz1ye08UBCSpKLESUiWq0AW8ZnM/ttUh324j2AgS0BZB9yF3iRo/K5z33OOForxR0v6bNOzq6ecdA2VBUvKbQJf7ALUPqEGQAGNtfhi1/8omElDpXQeKhrD2AhoZV7m5wDADAAhnEIOyC0BYvCecAWENqAUQAgwKoQMvj2t79tbECiKyCAUALnynkCYsixIKQAYPjqV7/alaeDPsi5555rwMhtt91mxuope8D5OIDQk2+028ZZoLct0A8AAg9tHvKsFq3YDWbvacZ1b1+iIzk+bZpwwi1tBS1bvkIvLlyk3dveVm2+RuMnjNetN16l8QOl9b/8jkobXz4EQIiLJVFqKAUJT8UgofLwszXi/MuVP2m4ljx8j4JKh8ZOP1/Dzjpf6xc8qV2v/E7JZFq1k2bp5Asu0f51K7X7lWeU2bNaqbClSwzwzVsAACAASURBVNGxEibVnKhVZfhkjTjvcqVTnra++qxpJV1fbDZRDpInkybBkRLHVAQQzPsBytFqD3y15EbJGzFdhZGzVGkYLyWzKldQUYyy6W2eRzy/xAKH7sI+OHVWzd/73vcMuCBxkMTDeBiqux4AK2fbojuuERDPYeF9tqOclVJaylZZdVPBQvIgIQYSA3n1JMGP7ew5MN9HH33UVG0AfnH8sCOAYfIkAA28j/MGMFBhA+MAWMCpwyCwL59jo6985Ssm4fEHP/iBYRIo2YRpQNcBsECI5vOf/7xREuUcYEXYF1vZPiQ9OQcHEI7kW+22dRboLQv0E4BgV3lxUZuePMh667L8XsfFkVKtQBlkR0mLX12q/3n+eY0cMlDnTD9Ho0aPVmOdL3/vOq1+8F9U3rRU+UqLEjRMMvLFVmvAM444YUoNAQtJI0q0M1mrEZd/QkMmTFXLxjXa+Nt7VfEqSo+ZosnXf1Yde3ZpzeM/V+XdHUo1DNfJl12vZE1e215bpP2v/lYn+fvkqaCyISgSKiWyak6fpPxpl6jpzPO1d9Mq7Vn2rFI71ygbkN2AxHKgihco8Gk7Fc2JfziYop/T/two1ZwyW8Nm3aSakWdo7/6CCoWicX44LGhztsXJ8TdxeRIXqfywvS5w+ps2bTKrYUBCpEoZyTDzHvF5nDoxeRyiZR6sGqYVubJMBQxEXIeAsZgHq3CSBckF4Pj00iDZDxCCg40nqh7u+seVFDkeLAj7E0rgeLzHP3uOzA0gYyWiLcPB34AMc0USiS4FSBtusIm1sBAADlgSbME+nL8tb7SsQ1yk6cPOwQGEw11h97mzQDVYoB8AhGow8x9iDmbVSitkSYVSRVt27DSU8LhRI3TS4MFKpFLyw3aFu1dr1f3/otLGV1UbHlCyEyAAD0ylQBhJNCcCBIug9BNqDbPaMaBJU2/5gtKJlLYvelYdy54xKontA4Zr9LxPaMDwJq178iG1rHtTmURKw86/XAMmTtWedzZp05M/07DyNqW8DpVMnkRC8tNq8eqUGHe+mmZepTAs6u0lT6p91QtqDEuqCX0DEkpILSUjMScSF1FVZI7tqtH+/GjVTL5QIy/+uHIjz9Sixa9px46dhnLHWZIbgBODDqdkDydH+eK1115rVtc4NJLzSCAEOPA3lDqUP828cOK33nqrWVUDFu6++25jX/INGA9NC1berLYBGvxuQxY2tMD2JnG0tdXMCWeK8+aYFiBYBqGn90lcKCnOlFhJaQCBbQdukxfZzoZPLBNiSzCtCqLt42DzJ2w5pc3ZMRUyHR0mbGFBd1yBkf0s+HAAoadX023nLFCtFnAAoVqvzBHPKw4QiggJmU5LodIJFBY9hZ6vRNChcPcarbr/2ypteFX5cH8nQIjKCS1AMCtKGgCFgSpBSi1eXq1jTteZN31Kezdu0LYXn1bNzjUqK1Rztl41Uy7QKbPnasfrS7TztZfktbao9uRpGjH9ApPRsOGpB5XZtlx5r12eh7Yi80mqXbWqDJqiIefNVd3I4XrnzYV69+WnNLDcpnwlUMoLUV1Q2SNFMTDaCMwrBCB4eQMQcpNna+TFNyvXdKZ+/diTWrt2nUnaY4X7q1/9yjhKkgZxbjjpn/3sZyYjH2YAmyGnjWPkbxwscX1KG+mwCSggLACYYFVNkh9j8JPx0TAgyY98AnILeKF5ARXPStuW1FrmyjpPQg7kB/y+AIFzsr0SLACxN4w9lg2nWQBh1Q9tCW68fNau/O18LYixzt/KTFsWxobnLLCw7IdjEI74a+t2cBaoYgs4gFDFF+cIp2YcJy6bTIQocIBwUjIomZg9/RTeAwh3qbCBHAQYBHo1ljv1BcAJFD7Sf8E3/Rba/bxas4N0yrW3qZzPavMLz6iwfoUGlFtVDsoqpDJqrmnU+AvmqGH8RG1askjvvv6qcvV1GjJ1mgZNmqq9b2/U1t89rMbSXuXTBXWEFZXp8aA6lbLDlRh9ikZMP1vloKjNixbI27JOtcVmJUotSviBEmRfmsRFfpK+mDDzOlA7WrlJszTqkpuUb5qmR379hAEIlN4hYPTII48Yh04CHk4P7QKqF3D6JOERY0cE6e///u/N3zg6ZLPRRCAcADNArB0wwOobx0jfDXQGSOyDkUBrAEdKmAIVQ0IJ8+bNMyxGvJNiPC8BB380AAGHbVfwVFRQqkl+AeNyXOaMXoMNOdjwh03KZX/mRsjAOnnAEPkK2IsOpbAaNjRjQxoWALAvx48nbVqmoid3rQsx9MRKbhtngd62gAMIvX0FjuHxCTEQnw/UUQ6M20/S4bHcoWQqJflJJQJCDDAId5kqBjou+iGizDRfopKB9X4kuhwopdDztC/ZoGDYBE2//SvavOR5bVnyP0rv2666oCg/SSvnhHYHCTWefLomX3Wjdm7coJWPPaj6ZKDciCYNP+9Ceemc1j7yC2X3rNeARIsK9GcIE0olGlRODFB7foBOOvtc5UeN1fblb2jf64tU275LmdJ+pX2YBASSQDkJM7eKl1Sbn1dzfpTyU2Zq1MU3Kt90un7z+FNav36D0QUgD4G23Th2nDeOk2Q7SgPJyCdZj/fvvPNOI4REiSPOkn0o5QNQkNiHnDW0OnQ8zhNtBIAAUtqUEVrlSyoHEA9CvAhtAhysTdyzDtGu7o+WQbDUP+Mh1Q3oobyS41I+aasK+InTt9sDAnDu5ECwHaWcgCF0IShpBBgQYmG+lD7a5F6r1AiLQniFzwFUVgzK5vPwsye5PQ4gHMOvvRvKWeC4WaCfAIR4kmL3hEW7sotnq8fjqti+Jw+943aNejpwZ5JiuVwyMsv0YyBpMeuT9R8xAl0Mwi++pcL6JaoJW0wYgX8J0yQJBoJW0Tj+GlUobawfqWHnzNbo6edr6b13q7R1gxqCNuUqBcNMlBNpHfDSCuqHaNxVtyhDI6Qn71dlw1vK5Oo04PTz1Xj+HG1cMF+FFYvVWNghLyybaoMgSCvwMipnckqNHKthMy5TW5DQ+md+owxgIjigTFiQbwST4A+oZDBwxjAIzfkm1U6ZqdGX3KB80xl68skFev31N3XdRz9qYuFk+LOKZsUPQMDZU2r4Z3/2ZyakAEvw5S9/WV//+te7Vvz/8A//YPor4BwpCURUCKfK3wgToVlATgP3C9oK69ev72rFDXAAIFBJQJgjXrrI77bbIgDhaHIQbPiA+5JKCASQCHPg6MmNAPhw/jNnzjR5FIAEQAQaEDY0MX36dAMILCsAaKDMkTEADoiKwbxQbcF5kpeB2iIiT7AVfA6AomTTfj96WhnkAEJPv9RuO2eB3rRAPwAI9sFsqVSbyBWP3cZjqbxvezV0b5Xbm5fq8McmxBAoDCqdzZo8AxAyfqRr0AUQdq3Ryl98U4X1i1UTtpowggEIYdl0UZSfUDGk1XK9iokaeePO0NhZl5jPXr/vx0q371eDV1K2dEBKJFX002pL1ak9mdeoOddr4Lhx2rTwMbW+skCZRFrJMVM0ZO712rd9i/a+/Kxqd69XqtKhsEwuAn0efFX8lCr1J2nIzKuUbhqvdQufVnHTG2oo7lWm3CY/LBp5hiRhD2ouQk8Fv0bN+ZHKT5qh0XNuUn7ENL3x5no9/fSzGjRosFntW6EkVvqsiHHcAAQAAQABR0tJH06TFTiVCjhStAmg7lmRAxCg7vkbYIF4EqDDJvjZ3AN0DmAQcLp0CwVk2F4MNinQAgYYiaMFCDahEGEnShAZE1YAEMRxAArMnTJGe16f/vSnDaOCdgLnAChgG9QjeZ9zgEkBcPAdIJ/iU5/6lGFZCNnANvzd3/2dCaOgskiYhXyLOIjuCZh2AOHw32a3hbNA71ugHwCEeKIYBidbnQchMVqoU+LIrIjQSYBWhnom9sx7rMpsM6Tev1iHm0EUYjDSxLAA0L1GQSCSXzYAISwo3LVaK35+p4oAhKDNhBQIKCQAE6Y5s4zTP+A3qkUZjbnkGo04+xxteWG+ti96TjVBUTmvqJrKAQVQ/crqQKJOlVy9xs+5Xvnhw7ThuYcUrl6qdOCp1NikAbM/ovyIIdpK9cObS1RbblcmhOlAoNFTEHoqpuo1YNpsDTz7Am3fvEY7Xl+k1J5tSgcIJxXkBxWlwyhxESVFUyaZG6HcpBkaM+dm5UdO1YEDnpYte8tUL+DwcPAoKeLwUNFk1YuYEN01ua7cGzhH3uP68yKhEbaB1TL3AvcJzhKQQZMigAaAAfEhQABAhGoRnC7b4mAZA2dt5Zu7C3IdbTdHmxPAfAEIsAQ4cFQPOS4S0zADyD8TgmCOlGjSZRImBBDDGLAFMAOEQvicyg3sRBImgAPQRBUHegm2bJIET5gGtBZgSbDj+3uCRE2+PuzlAMLhLOQ+dxaoBgv0A4BgGQRWXKz6oGRJNCNOjaPAmZCYhg49lCoPepry/MVf/IVZIUGj9qR0q/cv5wcBgqliOAhAWNkJELJUNXj0RwiUDMvK+hUVKxVV0rXaXKlTa7pRcz73VZP4uPSH/6aBHfuU8csKym3KpooqB55alVNzeqhqh4/TpMuu1p53t2n1Yz/V0OI+JStSa7JOwZRzNfnqq7Vz7WqtfuSXGlJuV53XpgrH9+nPlFQxzKgysElDL5yrzMhhWrtkkfasXq2MFyiRqChRbFOm0GyaOjHXip9Ua81w5SbP1Oi5t5gkxUolpzBMdXUWtFQ814/7AMfOPYBDw2nasBKr6fjKF2fI35YBACDwN9vFX4wPS0HlA+ADh8y4dtt4iCE+/rECCIy5YAFhldeN+BHsAYmFAAByCgAqTzzxhAG+b775phFl4txw8AABQizMm14StqslIQX2BxyTb4D4EuWdyDMDpmFf2B8QAUBge1sh4aoYev8p4GbgLHDsLNBPAIJN0uIB9sADD5jyNVZZJKvxIGWVBX0MhYpKHFQsMrSsrogrx4Vvjp3xj/VIvx9AqChlGjbhdFNhh1nRdyTz2lSpV+3YaZp54ye1bcUbeuexBzSouE/ZZKgSjj1ZiJIFg7wKDeM04oyZGjr1VG1Ztki7Fz+lxmKLkUluS+TUNmKcJlz+EfleQiufeFLJbZvUqH3yQwAKhAC1FGm1p3NqOBtdhIvU1tym1q27jFgS+g7NWzeoddNbSrXuUsYAG1+tNcNMmeOoy25Vruk0BQYgRCJH3YWHrOiPBXt2FWult+PhJAAB29kwgh3LSinH92GlTfiBhD0csqXbLTixIkLxq30sAAJgB4CDM6fhEuwBzBfz4N7+0Y9+ZEozAQAwIVRbAIiZL/c8uRQ4fkIF3O8wLTAkjEtogXDJ008/bT4nIdP2nABkMBaMCuEJAEJcldKFGI7199qN5yzQWxboBwDBPqhtaRdZ7GScE2smnszqhzIxss6hmVlp0eb3G9/4hlG4IynLOoreukw9O27PQwyrfhaFGDIBTj5lhJEACH65VUqltD/MqH3YVE2dd6PJSVj//HyVVy7T0LBVibBdZb+stmRgmiiVUw1Kjz5HEy69Xnt3bdL2xU8r+84a5VjlK1S7n9SBfINy087V6ClnqbB9r955fr5qDmxQzuswIAJwACPQRork8CYNnX6RMsMnqOKhDIh6X62aN7yld158TOGOtcoFbaZ1U3vNcNVMuVBNl91mAAKaDQZPGAXISJKY322fBJt8anMCbKleXDuAfeLsgXV4FmBYZ2jHiJf68TvgwmoNWLAQp+B572gBgg2b2XwaG8LAudtXd1noeJjDhigs0AHExMfkfrcJlYxnqzgYH4YCW9i+JpY1iGsjHO5+dSGGw1nIfe4sUA0W6EcAgQc9cVZWVjwAiT2jqEfM9qc//amhXHlIkrxGA5qvfe1r+tjHPmYAwonEIJCoGFUxkM6HsFDkNKhOSCjKQVh5750qrVukTNhhnDzNkVJhRYmgpI50Wvv8rOrPnKtTr7xZ77z4grYueU6JHZs1JFtWUGpR4JVVTCbVnsyokm/UiBkf0eBps7X++d9q77LnVbt/l/JJX4EXqsRKP5NT0HSKRk+/ULX1Q7VhwVMqrV2k2gDAQQAj6tZY9Coq1NRKg0aplD9J7cooN6hJY6ecIX//TgMQyttWKxd2KOEBEIZ0MgifVG7kVFVEi2XgjmectGWOrHPEMdlwg7GJqfyI3osLB8XLCG0Ca7zun30Z0zpoG0qwIMJ+fqjyv0MBhO7ztY8IC3jiQCbeX8KWF8YlmOOgNj53CwQYO86mxIEQ+wIGrDKiZSs4pm1jHWdcrM6CtVV8LAu2utuEcyIcA1CntJQQBgJVH3i9/Yr0zPekDYukOX8iXfTlXntyeqG9Er02BXdgZ4E/oAX6AUCwD21ir4QX+AnlyoMLmV1qxUn0gi3gdyhZKNY//uM/1o033mgAwgmTg0CzJgCCSTskuB8qEUTxdAACyX7hrjVacc83jINOq80AiWTFV6oSmjbJuzM1aq0doKnXfEqDxk7TWz+/Rx1rX1OmeEDJZEleUDT9EDwvpX3ZvIJhTTr1uk8qkRqglQ/9RIXNK5UttyvtBVFjJWR/EzVqqx+qIdMv1MhzL9aWpUu0bcGvVNO+RzWdCoks/ctoOCSSakvUqN3PqE1p5UZN0cQLLlOm2KYtC59Qceta1Xg4L08d2YHKT56h0XM/ofzIyQr8vAQjQv1lrDw1/li3TjYOECyAiDs2PregoXuSYfdvqA1B2GN2dyPdafeDAQQbvmBfK9lswQvSxnaFHmc/7PFw4DAXNikSxoR71jpuex6s+nnPAl7bgdEyBBYocQzGZJ6WheEn8+A7wssClDg4iod1LGiJJwl3D0U4gPAHfNa7QzkLHLEF+glA4MFFvToAAZU7GubwMKQ8jEQtkq/IR7CUKw9byuEADdSLnzAMAumEIY6W1TvdDIMugABgiKoY1mj5PXeosHaxMmpWiNpixVOyklRBWW3PNyp78kTN/l9f1c7XVuqNh+5Vbet2Jf2CAr9s5I4zQULJMK/dtfUacv5Mjb/kKu1a+KrWP/ULZct7lfAQXiopST8HYEIiqz1eVjUTTtOp135SbR1tWvHoT1TZvkn15D4U202fBaowyomEaQ5V8jMq+BklmyZp1PlzlSl3aNvC36qwbZ0yiDX7vtpyg1VLkuLlt6h25CTJrzUAAQahml8HAwh29Y9Dfeqpp3Tvvfcap0/zqOuuu87E+7lnbQjEsgJUJVBxAcglyZZcAsJlVFOw2rchAMJnP/7xjw1DRuIhYTYLnu19b1f7/M33BbVHKkDQVSDXgETIv/7rv+4CDTbxl3HYhznZEmHLUMRVHy1gsaqLDiBU813q5uYs0A8AAg8tVkP8s012bMyVB7VdAbE6sg8utiUEgQgMqzH+Vf8ratN8MICgTgbBljm+cc+31LHuFWXDZiPKnAg8eUFKzX6D9g4eqabzLtAps2bpjcef0raXfqcGNSvpFYyIczJIKFVJS2pQYeQojb3wYuWHjNLKhx9XYcMS1fhRh8hIVyHqCBkmMzrg16ijYbiGnj9HwydO0NsL5+vdNcuVbTugfLlD6QqtnVFY9FX0MxFA8DLyR01U0wUXGz2EHS/+VqVt68hYMMqQLTVDlTv1Io2dd6thEORRjZCs+kt1MIBgnTVOl7JFkgNx9vxkeyoGAAuUV1I5wX1NeIwkRZJs6RdBmSUJiqgc4tBJumXVTkUCY65Zs8YkHFqRKNgASn3RciDERlIjbAL7Mz77IzJFTs7f/M3fmPcBJDh25gLIIOGXbRiL7wsMHUwF50E/Cis3zXyYO+M6gFD1t6iboLOApH4AEHjw2lUX1zz+e5wSZeVjS+DsNjbO3NcAwuv33KXWda+ptrJfWRL+QqmirN5NDVP+7FmaMGum9m5arZXPPaXcvq3Keh00fY5i+0FalTCr5kSjxlx2hQZNmqgNL7+srS8t0aDKfqXULt+LVBlNKCKg3ZJUyjaoOVWvxIiTNX76efITgda/vFCtG1ZqYNChTKVg8iDQRECRoeRl1eFl5Y2ZqOGzLlGm1KKdL5CDsEbpsGKaPbXmR6pm6hyNnfdp1YycYsCB3xleqObv94eFGLj3KF2kWRRVCbAC3Jc4WJwyIAANApwt7BaqhwAEnDmfodOANgECSbyH7geiSThqK35EDwrGY19KI8nNwWlbbQSqHWx4gzH+6I/+yEhMwypYfQhYBQDM8uXLTfknwIQ5AbQ5DvsDSKgC4icMiK3ysOESq/DochCq+W51c+u/FugnAMEmXFlAYJPTWM3YmLTN2rZ0q03M4nMYh+p/9ZBB2Llay+79tlrWLVNDaZ/yFeSWZZQJt6dH6ORrbtFJEydq6WP3a//qVzSYRMKgqHTICp/chrRptdw6YIROv+EmJfIpLX3kIXVsXK8hXrmz+VMkvMQ/WAEEnIupvFoSeZXrh2vEtLM0fMqp2rDsFW175UU1VtqUDQpKhiUFQQQQyh4MQlYaO0lNsy9Vutis7c//WpUtq4zIkiixzDcpN3WuxlzxWeWappj3ouyD6n59GIPAPQm1T6MpcmFY0SP4xKrfVkiwiidMBiDgc8ocqb7BSRNaQOgJloHP0CzgHkb0COcNS4CTt86d93Hc//qv/2qOQ+IuJZM2fEAIjvAbEtQAEeZODg/JhZRCAg74rlD2yNyRc4bN4AVrQcIvqpHoLBDei1eBuBBDdd+nbnb93QL9BCDEs8255PFENRt3tSVwxGx54NltetrjvvdvpUMAhK4qhoQS6A7sXKWl93xbretfV2Nxr+oqrRhELX5euxsn6qxPfFFFz9eL9/9fJfdtUqNflF8JlA0qSlZCFb2UWlM5JSdM0ZkfuVr7tr2t5Y89qFTzbg2gwx/2NdLNpEpG6ZIUFnR4KbV5NWpDMXHiVE245Ert3rZFa557UunW3cbpAxCoQqAHBCCBEENyzCSNmzXHJEluW/CwKltWKkuHSvox5IYrN3WOxlz5GeWbTpV8SjarO/+A++RQAMECVxwrDALOlvwY7kecNoJGaBCQC0DyLEwBn+PEcejQ/Th/GAOOAbBl9U5pIqqJOHMYAZw5AINxYSlw3jAESFHTCROmghf7Mz4VPYQY5s+fb44BqABo8BP2AUCAFgQAxKpI8n1ChOyGG24wYIf5k9Njv39WrMpVMfT+k8PNwFng4BboBwCh/1z6gwMEnC4AIAhJUuxQuGOVXr33LrVtfE2NhX3KlNpU9hLan67XoItv0KhZ12nD2o1at2SBakr7lPKj1Xq+WFGyUFSZXg1Ue1wwUwPq6/T2i89p92vPqT5VVqKELHIk8Ux/B7gAGAQoipKXVNHLmLBBMHiMhs+5TvlBg7XptcVq3fG2kioZQAGYqCgpBJwoW8wNG69xZ54v78BOvfPcLxVsWa1spcMkP7ZlBys/9WKNveJ21cIgJLJmrtX++rAyRxw9K3WcK+2pie/DHKDoCRWPk/7Sl75kEhFx4Dh7Qg5ILVOBAyDA8fMTMSRCATh1m5gLWABknHXWWSZXgF4Klq0g9ICzv/nmm42zx4kDEDjeHXfcYcYi5IFiJDk6fI7q6J/+6Z+aeQFUAC/MA7CDwiOAg/EBIldccUVX9QPA24UYqv1OdfPr3xZwAKEPXf8jAQjfUsvGpWro2K9spawOL6HWuoGaeMP/1oBJs9W2r13qaFVGHQoTJYW+r0RLQV5rQWEqoTCfV3LISdq9eLG2LXxB/o61ymZLKpdajCojEMGjfbRXMSAh9CoGhOD0S16N2muHKDltlsaddY7qMklVWveatk1KhPLQTwhpNJVQECYVJnJK5eq1d91KvbPgUQU7NigdFJX0E2rPDVbdaRdq7OW3qnYUACHXWcVQ3Zf1wxgEkvzIQQAMECKADUDRk3wD3gMM0FOBTo2ACUIJJDICKGAH0BPA+TOG7SdCsqBVWWQlT+8InDZJh3SmfPbZZ01JLzkGtK++/vrrTU4C48MUIEVOTwbeo1slQIDwAqGM++67z7BtJCwSMmBMQhWAFAAFuQfMmURJC0oAB7AZDiBU933qZtffLeAAQh+6A3oOEJbe+y21rn9VdW0HVOP56qAiIJfX0AsuVW7IRPlhRn6YVCUoqpI1qkBKFMsKO0qRNHI6qTAoae9LixVsWq8BlVZ10FtBHWxqWjJHRD/NowAIZbMf+QuBsmpL1qp9YJOGTJioIaOaFNCFkkqLhKeAHTmVgB4N6DhQdF/R3g1r1bxmmVLt+wyYqNBPoWaQAQjj531SdU2TpQQ6CDAI1R1mOBRAsJoDVrfAVtjgbKk0gI6n6oBKBKoGbFjsYNoO7Etyox0LZ2+rB8yVCehxEWklWNEjq9cASLG5OGwbF52yKou8H8/psYqSdnvGtMeLC0/Zc+LYLgehDz1+3Kn0QQs4gNCHLup7AIFSQXoq+AglmRCDukIMwY7VWnbPN9W6bqka2lqUDZMq+J6aM0mVBg1WwssrXUkpgdpAMqEOvyzPp1zRU1AKjDpikPSU8MrK7typmgMHVOcV1erDNsjoNZpfurx8xCBE4sdJhWFGRaXVkaxRMlerZE1eZT+pIJlS2ZMRS4J9MC2oKYkz+QyBSi37lWpFWClShiwlUmrODTEAYcK8WzoBAgzCiQsQ4iqHVnsDRwugIBGRlT/5AiQs2nwFm19jlRMBE9ZxW4BgK3niegdx9UP7JbDVO3HBKFvNYJ28zcmxDZriX6C4EqSdA9vbbZ1QUh963LhT6QcWcAChD11kVAoi6WBaEZDsh1CSR5Ehq36kdYN2VXau09Kf3KWONa9oUKFdqdBXCdnipNTsVZQyqoq+vDClMFOj9nKHEj4O3lcl5BiewmQozy9rQLmsmkKRwIEKyUBhIiUvIDsg0QkIYAYqUAHmby/EeQMS6K4It+ChmKCynzK5DYAajhF1l4z+mRAFyY5BoJzp2gBI8VRMpNWcH6q602ZrwrxPqp4chOSJDxDsit+qd1rQQOUC15ZSwngTKZwvL/ueZQNsKaF12nblbhUOLLhb3AAAEJdJREFULcCIqzxagACQsIm63b8gVonRKinGK4HijAL7WellGIl4p0c7B8cg9KHHjzuVPmgBBxD6zEWFiS+ZvgZSqhLIp+mQQtNYKaCOUWWlglaVd2/R4v/3byqvfVkDy61mtW4YfVgGPzTJf2xuQIaPIy9L6A5Qj0BnpejJb2IApoNCEMUDTIjAi9gDyiFRaIxgSWjCC/waVRhEPSLsUHRlNIEIjmfGZTuOFv0EYCAeDfAwCZBhYIBQMemrJT9Y9VNn6+TLblXDqGnyUnkjoFTtrw9r1tRdpjl+Lt0lm7tv270Hgg0DHMweHzZWPGRh9z2SY3efswURlrWwnzuAUO13qptf/7aAAwh95vrjZAs4e89TplxWolwxjjtIear4gYKgoHTYptKu7Vp47/9REaGkcnNXtN5G7TshgHnfrPo9Rob2x4F3vtkZ5ecTs59n2j6Y/g+UH/bkFcESmy1gjhQdM3YMAy58khHYOmUYCDMPldWuslpzjRp82ixNueyTqh95mpTMdPVh6Mkcemubo+3m2FvzPlbHteyFAwjHyqJuHGeB42EBBxCOh1V7ZUycdZFlv+cpVSkrUQEghConAAiEHcpK071xzw699sSv1PL2amUqHV1AoGul+L7ln8lEM02XOimACDV0f3V6drvu/8CgBxmTgQ6XSmgYBBNigDNArIp/hhdRISiqnKvX4FPO1MTzrlLt0Any/GREblT5ywGEKBTmAEKV36huev3cAg4g9JkbABdaipb8BiD4QZQYWE74JvmPWH4qLEht+7VzzXIVD7wrH42C9znv98sMsZonBNETZ84wkcs/nIfuRBgmv+DwLy8oKww6AYKXNucXos4YFBSms8oNHqXG0acqWTvIsAc94y8Of9zjuYUDCA4gHM/7y43tLHBsLOAAwrGxYxWMYsCAYRBIRiRmj/P3TPIfSYh0SkQuOVEpqNLRrIBtzHK7000f0lsffqVvTz8eNPhwk7yXn3A403mVMg00IgbBy0im10JFYVg05ZdeKic/06DAz8j3qa7oCew43FGP7+cOIDiAcHzvMDe6s8CxsIADCMfCilUxhkkVNB4ah05iYRTXr3j0VoyYAfQJk0GxU5uAUsRYQp8BEQeLH0TZ6D15maS57skM72MoYn94zNNmIrz3/gekkmEPDIOQVOinTPqiyYsIy5GMM6PQIyL0lPATShghhup+OYDgAEJ136Fuds4CWMABhD5zH5g1ufHP/BfF7cn4CzwUCdE3pH4A91o2lQCmmgClQptU0Jlo2D1J8VAGOiho6KyIOGQOQhdZEQMSEaaJXjbjMcI25sX8OtMkVfGi8+BdCikRTKKddPQmyo3kIDiAUO03tUtSrPYr5ObnLOAAQp+6BzpTBaKMf5QLjVvFbSalALbAOt2ousEzPRPe70xNBUG3V1e1YreMgQggWE9u3Xbk0HuUXGAkGXtwCdiMXhIINHXDEgYkGGElo84QiSRRalnlL8cgOAahym9RNz1nAccg9Kl7oFO74D2AECUpekoaDYFObkGBh7BORM1/wJMfLJKA3zWO/L0PrVrB+wECOgjAgx4ABANOegYQzHadugtUNHRyBWY+PmqRZn6R5oMBBw4gVP1t7RiEqr9EboLOAg4g9Kl7wOb9URjol0x5IC96KvhBJD9sigb9SHjovdqEw+UXIHt8EGahK4PgPSYhAgiHGy+CGrAXPdkyYjqiKgwZmWWAANkHERgwnxv6JDDhBRdiqP672gGE6r9GbobOAi4HoS/dA50AwcTsTXOkSAchgbIhDEKnuiHCQ0AEaAGctE0sxA0HRvMgxgtEsgqdDEI8nBDfKtrGpAIYquHwbt+IInU1dIpHGt6f4RixDBYglOSZvhKRGBShk8D0XfA7twnlG7KhJ8fv3QtPiIHOjPfff78++9nPmtbN/ellAQKdIp9//nljC7pQ3n777R80w9uvSM98T9qwSJrzJ9JFX+41U3nhh+lc9tq03IGdBY6TBVyS4nEybC8Na/L1cKCmK0NXEMELIica+dso7c/2bIjPNHqPz2Q68Vltfqh83ny/ymHUzS+i/CXfJAdGKY/8bpMfuzT/u5QZDa/RKbgcZVYCTOwr0umPug0ansGPcgpgEExypZl/p+aCyTmgiiEanAoGSh2r/WVzEB544AF95jOf0bx586JzNOde/fM/Wvva/hAAhBdeeEG/+c1vDEC47bbbHEA4WuO6/Z0FjpkFHEA4ZqastoHeL2XcGe/v9D08oNFBKJXKpslPvMGPbf5jAYJt+sP5VSrlTgo/cujRg16mW182m+3qItjVKdCwEhEYeS+pkf2iVsS8H80lSqg00IHW0omEaRbEuOl0OuY03x/riEIKXuc8QgNqbJOjarse8fl0dHToscce04MPPmic4mWXXWY+tu2Xq3nuRzs3Cxi55igpWoBw3nnn6dOf/rQDCEdrYLe/s8Axs4ADCMfMlCfSQNYps5Ldv3+/ce75fL6LNeBcLDtg2w7juG2HP363LYQtUMCR29bAbLdv3z7j8Og+GG/zyzY4fsbFuQNOmE/cORYKBXMstgFI8JlddfI+n9fU1CiTyRizW6DB9na+1Xw9AAhPPPGE7rvvPt166626+uqrzXT7A4NgrxU/YRCee+45Y4uZM2c6BqGab1o3t35oAQcQ+uFFjxwq/3bs2KGHHnpIU6dO1TnnnGOcLqs62vPyO87bruBx6nalb2lwyz6wD068rq7OgIG9e/dq8eLFxoEzLgCE9xkDUMK27GtX/xyHz3mxzfr1682xxo0bZ7bjH+8zr02bNmnr1q1mzsOGDesCEpY9OBEYBM7lqaee0g9+8APdfPPNuuWWW7oAWX8JMXB9uU8ef/xxLVmyRDfccIMuueQSxyD0yyeSO+nqtIADCNV5XY7zrKyjh+ZesGCBxo8fr8svv1zDhw/Xk08+qZ07d+rMM880K7wRI0Zo9OjRJpnMOmn2x6lfeumlam5uNs4OMHDRRRdp5MiR2r17twEeAIPrrrvOAAdWzW+88YaWL19uxpw8ebLeffddA1JgBQAkgAeYDI6zbds2wz4MGDBAp512mtluzZo1eueddwyDAC3Pz40bN+rUU081gIF9TxQHi93vvPNOzZ07V1//+te75n2izP9oblHLBm3evFk//OEPDdv0V3/1V+a++MDLJSkejandvs4CR2EBBxCOwngn7q6wBzj2O+64w6zSWcnhhHGyd999d9fKn+34bNasWfrOd76jUaNGadeuXZowYYK2b9+uGTNmGCeN08aRT5o0yfwDWJChD2j46Ec/agACoIGV4ooVK0wYAFCyZ88e8w9mwOY6ACpOOukkc9yBAwca0MDYsAaADObEMUlqY5tVq1apvr5eV1xxhU455ZQTIsTAOWCH//iP/zCMzfXXX29AzqBBg7qYFRvi6WuAgfPienPdyT949NFHdfbZZxuQxLV3AOHEfa64mfc1CziA0NeuaI/PB8fKChZgsGXLFjU1NeljH/uYfvnLXyqXyxkHfsYZZ+hHP/qRcbxQwTAEGzZsMGV5ODjyF9h2zpw5Gjx4sNra2syqH4BAhn4cIAAoYAAACrABfEb4AueO4z9w4IABAozJa+jQoWbcV199VYsWLTKsAolsvGAhmBNjAE7Wrl1rVuIAmYM6mR5b5Q+zIewLq2bOC3sDfs466yzDqtgwTTxx9EQGCd0LAzkvrjFhpLfeesswTjfddJNmz559cPbHMQh/mJvSHcVZ4AMWcAChX94UUPokh+GgoHWh83mPjHocP84cpoAafShgVnsnn3yyWdGvW7dOV155pdkOZ4+TJjyBcwcgNDY2GnaCDH2c9bXXXmt+sv3KlSvNCh+HCLAATLBqBhywT0NDg2EFeJFfQAgDgLBw4UIT0jj33HNNbsLrr79ujsf+MAyMS8iBGDahimp+2SRNWBCA1IsvvqiHH37YhHWwCfa0yZt9JWkxDhL4HUDI+Y8dO1Yf//jHdfrpp5v75qBAyAGEar6d3dz6tAUcQOjTl/dQJ0fsd/78+SYcAEDA0b/00kuaMmWKWdWxwscRf+1rXzMUMHkJ3/zmN/Xyyy+Lfanbx+EDKoj746B5wE+fPt1Q5awQf/zjHxswAbCAXYApYNVIwiFjAyYAHHzO74AEHD4ra8AANDR/85OQAywH4IHP+MfxAAc4HAAONPU111yjIUOGVPU1tQAB2xFWARiRR8H5ARh4H/vgLG15qE3grOoTO4LJcT7cN2PGjDHhKkDdIStQHEA4Asu6TZ0FjqUFHEA4ltY8YcYCAFANAEBg1YoTJnTAQxpnj6MixEAFAuDgmWee0T//8z8bUMBnrPxgFXjQww7ARrDyhSbGmRNXf+2110xIASdn8xNISmR/WAN+4hhgCmzJJBUI7ItzBDBwDIAFoIMVNoCDYzIebAPv4VDtMaZNm2ZAR7W/ADh23pxrvPLChhY4B87LlohW+zkdyfxsFQ37cH42adblIByJFd22zgLH2wIOIBxvC1fl+DghYvpWX8CuVnlYQ/3ywCY/ACYAGVxWe5ShWc0CS33bMkX24Xe2syvk+E/rBK3+AmNzfKubgJEAJ3zO+3Y+Vh/BllNaZce4hoJdZfOTcU8EHQR7nvGyUZukGafZT+Tcgw+78W0VTBwgcK5c5w+8HINQlc8QN6n+YAEHEPrDVT7oOVrnZOls+7COx4uhvZcuXWqqG6h2sJ+xj13Z2v3j8fL4mNbJWedu/+6uqRAHBYdzkgeLzdtjngh0vBULsiwBP+Ogy77fVwFCvELD3geHZEocQOi3zyh34r1tAQcQevsK9Nrx4ytvOwnrpK3DIsYP5Q/Nb5USD7Zt/L2407PjdH/v9znp+Nzi49qxTrSywO7Z/d1t+PvY6ETZJ36tDnvdHEA4US6rm2efs4ADCH3ukroTchboUxZwAKFPXU53MieSBeIAYepVUuIgMcAT6XzcXJ0FnAX6lgVa35V2rJJadrt2z33ryrqzqXoLxAFC1U/WTdBZwFmgX1tgzp9IF32510zghYcKDPXalNyBnQWOowVWPystf1wqF4/jQdzQzgLOAs4Cx8ACp10tTbn8GAz0+w3hAMLvZze314lqgfb9UtteKQxO1DNw83YWcBboLxbIDZRyA3rtbB1A6DXTuwM7CzgLOAs4CzgLVK8FHECo3mvjZuYs4CzgLOAs4CzQaxZwAKHXTO8O7CzgLOAs4CzgLFC9FnAAoXqvjZuZs4CzgLOAs4CzQK9ZwAGEXjO9O7CzgLOAs4CzgLNA9VrAAYTqvTZuZs4CzgLOAs4CzgK9ZgEHEHrN9O7AzgLOAs4CzgLOAtVrAQcQqvfauJk5CzgLOAs4CzgL9JoFHEDoNdO7AzsLOAs4CzgLOAtUrwUcQKjea+Nm5izgLOAs4CzgLNBrFnAAoddM7w7sLOAs4CzgLOAsUL0WcACheq+Nm5mzgLOAs4CzgLNAr1nAAYReM707sLOAs4CzgLOAs0D1WsABhOq9Nm5mzgLOAs4CzgLOAr1mAQcQes307sDOAs4CzgLOAs4C1WsBBxCq99q4mTkLOAs4CzgLOAv0mgUcQOg107sDOws4CzgLOAs4C1SvBRxAqN5r42bmLOAs4CzgLOAs0GsWcACh10zvDuws4CzgLOAs4CxQvRZwAKF6r42bmbOAs4CzgLOAs0CvWeD/A3BfKR/he7JTAAAAAElFTkSuQmCC;" vertex="1" parent="1">
          <mxGeometry x="120" y="40" width="520" height="328" as="geometry" />
        </mxCell>
        <mxCell id="08xPflxwf2jpWXcSHeCm-4" value="" style="endArrow=classic;startArrow=classic;html=1;" edge="1" parent="1">
          <mxGeometry width="50" height="50" relative="1" as="geometry">
            <mxPoint x="375" y="222" as="sourcePoint" />
            <mxPoint x="457" y="194" as="targetPoint" />
          </mxGeometry>
        </mxCell>
        <mxCell id="08xPflxwf2jpWXcSHeCm-5" value="" style="endArrow=classic;startArrow=classic;html=1;" edge="1" parent="1">
          <mxGeometry width="50" height="50" relative="1" as="geometry">
            <mxPoint x="445" y="271" as="sourcePoint" />
            <mxPoint x="461" y="202" as="targetPoint" />
          </mxGeometry>
        </mxCell>
      </root>
    </mxGraphModel>
  </diagram>
</mxfile>
